  0
SECTION
  2
BLOCKS
  0
ENDSEC
  0
SECTION
  2
ENTITIES
  0
LINE
  8
0
 10
139.272
 20
0.708069
 11
140.542
 21
2.14111
  0
LINE
  8
0
 10
140.542
 20
2.14111
 11
141
 21
4
  0
LINE
  8
0
 10
141
 20
4
 11
141
 21
81
  0
LINE
  8
0
 10
141
 20
81
 11
140.542
 21
82.8589
  0
LINE
  8
0
 10
140.542
 20
82.8589
 11
139.272
 21
84.2919
  0
LINE
  8
0
 10
139.272
 20
84.2919
 11
130
 21
89.3495
  0
LINE
  8
0
 10
130
 20
89.3495
 11
130
 21
200
  0
LINE
  8
0
 10
130
 20
200
 11
129.542
 21
201.859
  0
LINE
  8
0
 10
129.542
 20
201.859
 11
128.272
 21
203.292
  0
LINE
  8
0
 10
128.272
 20
203.292
 11
126.482
 21
203.971
  0
LINE
  8
0
 10
126.482
 20
203.971
 11
4.48213
 21
203.971
  0
LINE
  8
0
 10
4.48213
 20
203.971
 11
2.58159
 21
203.74
  0
LINE
  8
0
 10
2.58159
 20
203.74
 11
1.00597
 21
202.652
  0
LINE
  8
0
 10
1.00597
 20
202.652
 11
0.116241
 21
200.957
  0
LINE
  8
0
 10
0.116241
 20
200.957
 11
0.116241
 21
3.04274
  0
LINE
  8
0
 10
0.116241
 20
3.04274
 11
1.00597
 21
1.34752
  0
LINE
  8
0
 10
1.00597
 20
1.34752
 11
2.58159
 21
0.259949
  0
LINE
  8
0
 10
2.58159
 20
0.259949
 11
4.48213
 21
0.0291748
  0
LINE
  8
0
 10
4.48213
 20
0.0291748
 11
137.482
 21
0.0291748
  0
LINE
  8
0
 10
137.482
 20
0.0291748
 11
139.272
 21
0.708069
  0
LINE
  8
0
 10
74.1981
 20
199.132
 11
74.1981
 21
200.868
  0
LINE
  8
0
 10
74.1981
 20
200.868
 11
75.5549
 21
201.95
  0
LINE
  8
0
 10
75.5549
 20
201.95
 11
77.247
 21
201.564
  0
LINE
  8
0
 10
77.247
 20
201.564
 11
78
 21
200
  0
LINE
  8
0
 10
78
 20
200
 11
77.247
 21
198.436
  0
LINE
  8
0
 10
77.247
 20
198.436
 11
75.5549
 21
198.05
  0
LINE
  8
0
 10
75.5549
 20
198.05
 11
74.1981
 21
199.132
  0
LINE
  8
0
 10
124.198
 20
199.132
 11
124.198
 21
200.868
  0
LINE
  8
0
 10
124.198
 20
200.868
 11
125.555
 21
201.95
  0
LINE
  8
0
 10
125.555
 20
201.95
 11
127.247
 21
201.564
  0
LINE
  8
0
 10
127.247
 20
201.564
 11
128
 21
200
  0
LINE
  8
0
 10
128
 20
200
 11
127.247
 21
198.436
  0
LINE
  8
0
 10
127.247
 20
198.436
 11
125.555
 21
198.05
  0
LINE
  8
0
 10
125.555
 20
198.05
 11
124.198
 21
199.132
  0
LINE
  8
0
 10
98
 20
193
 11
98
 21
198
  0
LINE
  8
0
 10
98
 20
198
 11
115
 21
198
  0
LINE
  8
0
 10
115
 20
198
 11
115
 21
193
  0
LINE
  8
0
 10
115
 20
193
 11
98
 21
193
  0
LINE
  8
0
 10
78
 20
159
 11
78
 21
176
  0
LINE
  8
0
 10
78
 20
176
 11
83
 21
176
  0
LINE
  8
0
 10
83
 20
176
 11
83
 21
159
  0
LINE
  8
0
 10
83
 20
159
 11
78
 21
159
  0
LINE
  8
0
 10
78
 20
125
 11
78
 21
142
  0
LINE
  8
0
 10
78
 20
142
 11
83
 21
142
  0
LINE
  8
0
 10
83
 20
142
 11
83
 21
125
  0
LINE
  8
0
 10
83
 20
125
 11
78
 21
125
  0
LINE
  8
0
 10
78
 20
91
 11
78
 21
108
  0
LINE
  8
0
 10
78
 20
108
 11
83
 21
108
  0
LINE
  8
0
 10
83
 20
108
 11
83
 21
91
  0
LINE
  8
0
 10
83
 20
91
 11
78
 21
91
  0
LINE
  8
0
 10
90.5816
 20
96.2599
 11
89.006
 21
97.3475
  0
LINE
  8
0
 10
89.006
 20
97.3475
 11
88.1162
 21
99.0427
  0
LINE
  8
0
 10
88.1162
 20
99.0427
 11
88.1162
 21
100.957
  0
LINE
  8
0
 10
88.1162
 20
100.957
 11
89.006
 21
102.652
  0
LINE
  8
0
 10
89.006
 20
102.652
 11
90.5816
 21
103.74
  0
LINE
  8
0
 10
90.5816
 20
103.74
 11
92.4821
 21
103.971
  0
LINE
  8
0
 10
92.4821
 20
103.971
 11
94.2722
 21
103.292
  0
LINE
  8
0
 10
94.2722
 20
103.292
 11
95.5418
 21
101.859
  0
LINE
  8
0
 10
95.5418
 20
101.859
 11
96
 21
100
  0
LINE
  8
0
 10
96
 20
100
 11
95.5418
 21
98.1411
  0
LINE
  8
0
 10
95.5418
 20
98.1411
 11
94.2722
 21
96.7081
  0
LINE
  8
0
 10
94.2722
 20
96.7081
 11
92.4821
 21
96.0292
  0
LINE
  8
0
 10
92.4821
 20
96.0292
 11
90.5816
 21
96.2599
  0
LINE
  8
0
 10
2.19806
 20
86.1322
 11
2.19806
 21
87.8678
  0
LINE
  8
0
 10
2.19806
 20
87.8678
 11
3.55495
 21
88.9498
  0
LINE
  8
0
 10
3.55495
 20
88.9498
 11
5.24698
 21
88.5637
  0
LINE
  8
0
 10
5.24698
 20
88.5637
 11
6
 21
87
  0
LINE
  8
0
 10
6
 20
87
 11
5.24698
 21
85.4363
  0
LINE
  8
0
 10
5.24698
 20
85.4363
 11
3.55495
 21
85.0501
  0
LINE
  8
0
 10
3.55495
 20
85.0501
 11
2.19806
 21
86.1322
  0
LINE
  8
0
 10
66.1981
 20
86.1322
 11
66.1981
 21
87.8678
  0
LINE
  8
0
 10
66.1981
 20
87.8678
 11
67.5549
 21
88.9498
  0
LINE
  8
0
 10
67.5549
 20
88.9498
 11
69.247
 21
88.5637
  0
LINE
  8
0
 10
69.247
 20
88.5637
 11
70
 21
87
  0
LINE
  8
0
 10
70
 20
87
 11
69.247
 21
85.4363
  0
LINE
  8
0
 10
69.247
 20
85.4363
 11
67.5549
 21
85.0501
  0
LINE
  8
0
 10
67.5549
 20
85.0501
 11
66.1981
 21
86.1322
  0
LINE
  8
0
 10
78
 20
57
 11
78
 21
74
  0
LINE
  8
0
 10
78
 20
74
 11
83
 21
74
  0
LINE
  8
0
 10
83
 20
74
 11
83
 21
57
  0
LINE
  8
0
 10
83
 20
57
 11
78
 21
57
  0
LINE
  8
0
 10
130
 20
26
 11
130
 21
43
  0
LINE
  8
0
 10
130
 20
43
 11
135
 21
43
  0
LINE
  8
0
 10
135
 20
43
 11
135
 21
26
  0
LINE
  8
0
 10
135
 20
26
 11
130
 21
26
  0
LINE
  8
0
 10
78
 20
23
 11
78
 21
40
  0
LINE
  8
0
 10
78
 20
40
 11
83
 21
40
  0
LINE
  8
0
 10
83
 20
40
 11
83
 21
23
  0
LINE
  8
0
 10
83
 20
23
 11
78
 21
23
  0
LINE
  8
0
 10
2.19806
 20
19.1322
 11
2.19806
 21
20.8678
  0
LINE
  8
0
 10
2.19806
 20
20.8678
 11
3.55495
 21
21.9498
  0
LINE
  8
0
 10
3.55495
 20
21.9498
 11
5.24698
 21
21.5637
  0
LINE
  8
0
 10
5.24698
 20
21.5637
 11
6
 21
20
  0
LINE
  8
0
 10
6
 20
20
 11
5.24698
 21
18.4363
  0
LINE
  8
0
 10
5.24698
 20
18.4363
 11
3.55495
 21
18.0501
  0
LINE
  8
0
 10
3.55495
 20
18.0501
 11
2.19806
 21
19.1322
  0
LINE
  8
0
 10
66.1981
 20
19.1322
 11
66.1981
 21
20.8678
  0
LINE
  8
0
 10
66.1981
 20
20.8678
 11
67.5549
 21
21.9498
  0
LINE
  8
0
 10
67.5549
 20
21.9498
 11
69.247
 21
21.5637
  0
LINE
  8
0
 10
69.247
 20
21.5637
 11
70
 21
20
  0
LINE
  8
0
 10
70
 20
20
 11
69.247
 21
18.4363
  0
LINE
  8
0
 10
69.247
 20
18.4363
 11
67.5549
 21
18.0501
  0
LINE
  8
0
 10
67.5549
 20
18.0501
 11
66.1981
 21
19.1322
  0
LINE
  8
0
 10
105
 20
6
 11
105
 21
11
  0
LINE
  8
0
 10
105
 20
11
 11
120
 21
11
  0
LINE
  8
0
 10
120
 20
11
 11
120
 21
6
  0
LINE
  8
0
 10
120
 20
6
 11
105
 21
6
  0
LINE
  8
0
 10
74.1981
 20
3.13222
 11
74.1981
 21
4.86777
  0
LINE
  8
0
 10
74.1981
 20
4.86777
 11
75.5549
 21
5.94984
  0
LINE
  8
0
 10
75.5549
 20
5.94984
 11
77.247
 21
5.56366
  0
LINE
  8
0
 10
77.247
 20
5.56366
 11
78
 21
4
  0
LINE
  8
0
 10
78
 20
4
 11
77.247
 21
2.43633
  0
LINE
  8
0
 10
77.247
 20
2.43633
 11
75.5549
 21
2.05014
  0
LINE
  8
0
 10
75.5549
 20
2.05014
 11
74.1981
 21
3.13222
  0
LINE
  8
0
 10
135.198
 20
3.13222
 11
135.198
 21
4.86777
  0
LINE
  8
0
 10
135.198
 20
4.86777
 11
136.555
 21
5.94984
  0
LINE
  8
0
 10
136.555
 20
5.94984
 11
138.247
 21
5.56366
  0
LINE
  8
0
 10
138.247
 20
5.56366
 11
139
 21
4
  0
LINE
  8
0
 10
139
 20
4
 11
138.247
 21
2.43633
  0
LINE
  8
0
 10
138.247
 20
2.43633
 11
136.555
 21
2.05014
  0
LINE
  8
0
 10
136.555
 20
2.05014
 11
135.198
 21
3.13222
  0
LINE
  8
0
 10
212.272
 20
0.708069
 11
213.542
 21
2.14111
  0
LINE
  8
0
 10
213.542
 20
2.14111
 11
214
 21
4
  0
LINE
  8
0
 10
214
 20
4
 11
214
 21
81
  0
LINE
  8
0
 10
214
 20
81
 11
213.542
 21
82.8589
  0
LINE
  8
0
 10
213.542
 20
82.8589
 11
212.272
 21
84.2919
  0
LINE
  8
0
 10
212.272
 20
84.2919
 11
203
 21
89.3495
  0
LINE
  8
0
 10
203
 20
89.3495
 11
203
 21
200
  0
LINE
  8
0
 10
203
 20
200
 11
202.542
 21
201.859
  0
LINE
  8
0
 10
202.542
 20
201.859
 11
201.272
 21
203.292
  0
LINE
  8
0
 10
201.272
 20
203.292
 11
199.482
 21
203.971
  0
LINE
  8
0
 10
199.482
 20
203.971
 11
149.482
 21
203.971
  0
LINE
  8
0
 10
149.482
 20
203.971
 11
147.582
 21
203.74
  0
LINE
  8
0
 10
147.582
 20
203.74
 11
146.006
 21
202.652
  0
LINE
  8
0
 10
146.006
 20
202.652
 11
145.116
 21
200.957
  0
LINE
  8
0
 10
145.116
 20
200.957
 11
145.116
 21
3.04274
  0
LINE
  8
0
 10
145.116
 20
3.04274
 11
146.006
 21
1.34752
  0
LINE
  8
0
 10
146.006
 20
1.34752
 11
147.582
 21
0.259949
  0
LINE
  8
0
 10
147.582
 20
0.259949
 11
149.482
 21
0.0291748
  0
LINE
  8
0
 10
149.482
 20
0.0291748
 11
210.482
 21
0.0291748
  0
LINE
  8
0
 10
210.482
 20
0.0291748
 11
212.272
 21
0.708069
  0
LINE
  8
0
 10
147.198
 20
199.132
 11
147.198
 21
200.868
  0
LINE
  8
0
 10
147.198
 20
200.868
 11
148.555
 21
201.95
  0
LINE
  8
0
 10
148.555
 20
201.95
 11
150.247
 21
201.564
  0
LINE
  8
0
 10
150.247
 20
201.564
 11
151
 21
200
  0
LINE
  8
0
 10
151
 20
200
 11
150.247
 21
198.436
  0
LINE
  8
0
 10
150.247
 20
198.436
 11
148.555
 21
198.05
  0
LINE
  8
0
 10
148.555
 20
198.05
 11
147.198
 21
199.132
  0
LINE
  8
0
 10
197.198
 20
199.132
 11
197.198
 21
200.868
  0
LINE
  8
0
 10
197.198
 20
200.868
 11
198.555
 21
201.95
  0
LINE
  8
0
 10
198.555
 20
201.95
 11
200.247
 21
201.564
  0
LINE
  8
0
 10
200.247
 20
201.564
 11
201
 21
200
  0
LINE
  8
0
 10
201
 20
200
 11
200.247
 21
198.436
  0
LINE
  8
0
 10
200.247
 20
198.436
 11
198.555
 21
198.05
  0
LINE
  8
0
 10
198.555
 20
198.05
 11
197.198
 21
199.132
  0
LINE
  8
0
 10
171
 20
193
 11
171
 21
198
  0
LINE
  8
0
 10
171
 20
198
 11
188
 21
198
  0
LINE
  8
0
 10
188
 20
198
 11
188
 21
193
  0
LINE
  8
0
 10
188
 20
193
 11
171
 21
193
  0
LINE
  8
0
 10
151
 20
159
 11
151
 21
176
  0
LINE
  8
0
 10
151
 20
176
 11
156
 21
176
  0
LINE
  8
0
 10
156
 20
176
 11
156
 21
159
  0
LINE
  8
0
 10
156
 20
159
 11
151
 21
159
  0
LINE
  8
0
 10
151
 20
125
 11
151
 21
142
  0
LINE
  8
0
 10
151
 20
142
 11
156
 21
142
  0
LINE
  8
0
 10
156
 20
142
 11
156
 21
125
  0
LINE
  8
0
 10
156
 20
125
 11
151
 21
125
  0
LINE
  8
0
 10
151
 20
91
 11
151
 21
108
  0
LINE
  8
0
 10
151
 20
108
 11
156
 21
108
  0
LINE
  8
0
 10
156
 20
108
 11
156
 21
91
  0
LINE
  8
0
 10
156
 20
91
 11
151
 21
91
  0
LINE
  8
0
 10
163.582
 20
96.2599
 11
162.006
 21
97.3475
  0
LINE
  8
0
 10
162.006
 20
97.3475
 11
161.116
 21
99.0427
  0
LINE
  8
0
 10
161.116
 20
99.0427
 11
161.116
 21
100.957
  0
LINE
  8
0
 10
161.116
 20
100.957
 11
162.006
 21
102.652
  0
LINE
  8
0
 10
162.006
 20
102.652
 11
163.582
 21
103.74
  0
LINE
  8
0
 10
163.582
 20
103.74
 11
165.482
 21
103.971
  0
LINE
  8
0
 10
165.482
 20
103.971
 11
167.272
 21
103.292
  0
LINE
  8
0
 10
167.272
 20
103.292
 11
168.542
 21
101.859
  0
LINE
  8
0
 10
168.542
 20
101.859
 11
169
 21
100
  0
LINE
  8
0
 10
169
 20
100
 11
168.542
 21
98.1411
  0
LINE
  8
0
 10
168.542
 20
98.1411
 11
167.272
 21
96.7081
  0
LINE
  8
0
 10
167.272
 20
96.7081
 11
165.482
 21
96.0292
  0
LINE
  8
0
 10
165.482
 20
96.0292
 11
163.582
 21
96.2599
  0
LINE
  8
0
 10
151
 20
57
 11
151
 21
74
  0
LINE
  8
0
 10
151
 20
74
 11
156
 21
74
  0
LINE
  8
0
 10
156
 20
74
 11
156
 21
57
  0
LINE
  8
0
 10
156
 20
57
 11
151
 21
57
  0
LINE
  8
0
 10
203
 20
26
 11
203
 21
43
  0
LINE
  8
0
 10
203
 20
43
 11
208
 21
43
  0
LINE
  8
0
 10
208
 20
43
 11
208
 21
26
  0
LINE
  8
0
 10
208
 20
26
 11
203
 21
26
  0
LINE
  8
0
 10
151
 20
23
 11
151
 21
40
  0
LINE
  8
0
 10
151
 20
40
 11
156
 21
40
  0
LINE
  8
0
 10
156
 20
40
 11
156
 21
23
  0
LINE
  8
0
 10
156
 20
23
 11
151
 21
23
  0
LINE
  8
0
 10
178
 20
6
 11
178
 21
11
  0
LINE
  8
0
 10
178
 20
11
 11
193
 21
11
  0
LINE
  8
0
 10
193
 20
11
 11
193
 21
6
  0
LINE
  8
0
 10
193
 20
6
 11
178
 21
6
  0
LINE
  8
0
 10
147.198
 20
3.13222
 11
147.198
 21
4.86777
  0
LINE
  8
0
 10
147.198
 20
4.86777
 11
148.555
 21
5.94984
  0
LINE
  8
0
 10
148.555
 20
5.94984
 11
150.247
 21
5.56366
  0
LINE
  8
0
 10
150.247
 20
5.56366
 11
151
 21
4
  0
LINE
  8
0
 10
151
 20
4
 11
150.247
 21
2.43633
  0
LINE
  8
0
 10
150.247
 20
2.43633
 11
148.555
 21
2.05014
  0
LINE
  8
0
 10
148.555
 20
2.05014
 11
147.198
 21
3.13222
  0
LINE
  8
0
 10
208.198
 20
3.13222
 11
208.198
 21
4.86777
  0
LINE
  8
0
 10
208.198
 20
4.86777
 11
209.555
 21
5.94984
  0
LINE
  8
0
 10
209.555
 20
5.94984
 11
211.247
 21
5.56366
  0
LINE
  8
0
 10
211.247
 20
5.56366
 11
212
 21
4
  0
LINE
  8
0
 10
212
 20
4
 11
211.247
 21
2.43633
  0
LINE
  8
0
 10
211.247
 20
2.43633
 11
209.555
 21
2.05014
  0
LINE
  8
0
 10
209.555
 20
2.05014
 11
208.198
 21
3.13222
  0
LINE
  8
0
 10
300
 20
17
 11
305
 21
17
  0
LINE
  8
0
 10
305
 20
17
 11
305
 21
34
  0
LINE
  8
0
 10
305
 20
34
 11
300
 21
34
  0
LINE
  8
0
 10
300
 20
34
 11
300
 21
51
  0
LINE
  8
0
 10
300
 20
51
 11
305
 21
51
  0
LINE
  8
0
 10
305
 20
51
 11
305
 21
68
  0
LINE
  8
0
 10
305
 20
68
 11
300
 21
68
  0
LINE
  8
0
 10
300
 20
68
 11
300
 21
85
  0
LINE
  8
0
 10
300
 20
85
 11
305
 21
85
  0
LINE
  8
0
 10
305
 20
85
 11
305
 21
102
  0
LINE
  8
0
 10
305
 20
102
 11
300
 21
102
  0
LINE
  8
0
 10
300
 20
102
 11
300
 21
119
  0
LINE
  8
0
 10
300
 20
119
 11
305
 21
119
  0
LINE
  8
0
 10
305
 20
119
 11
305
 21
136
  0
LINE
  8
0
 10
305
 20
136
 11
300
 21
136
  0
LINE
  8
0
 10
300
 20
136
 11
300
 21
153
  0
LINE
  8
0
 10
300
 20
153
 11
305
 21
153
  0
LINE
  8
0
 10
305
 20
153
 11
305
 21
170
  0
LINE
  8
0
 10
305
 20
170
 11
300
 21
170
  0
LINE
  8
0
 10
300
 20
170
 11
300
 21
187
  0
LINE
  8
0
 10
300
 20
187
 11
290
 21
187
  0
LINE
  8
0
 10
290
 20
187
 11
290
 21
192
  0
LINE
  8
0
 10
290
 20
192
 11
283
 21
192
  0
LINE
  8
0
 10
283
 20
192
 11
283
 21
187
  0
LINE
  8
0
 10
283
 20
187
 11
273
 21
187
  0
LINE
  8
0
 10
273
 20
187
 11
273
 21
170
  0
LINE
  8
0
 10
273
 20
170
 11
268
 21
170
  0
LINE
  8
0
 10
268
 20
170
 11
268
 21
153
  0
LINE
  8
0
 10
268
 20
153
 11
273
 21
153
  0
LINE
  8
0
 10
273
 20
153
 11
273
 21
136
  0
LINE
  8
0
 10
273
 20
136
 11
268
 21
136
  0
LINE
  8
0
 10
268
 20
136
 11
268
 21
119
  0
LINE
  8
0
 10
268
 20
119
 11
273
 21
119
  0
LINE
  8
0
 10
273
 20
119
 11
273
 21
102
  0
LINE
  8
0
 10
273
 20
102
 11
268
 21
102
  0
LINE
  8
0
 10
268
 20
102
 11
268
 21
85
  0
LINE
  8
0
 10
268
 20
85
 11
273
 21
85
  0
LINE
  8
0
 10
273
 20
85
 11
273
 21
68
  0
LINE
  8
0
 10
273
 20
68
 11
268
 21
68
  0
LINE
  8
0
 10
268
 20
68
 11
268
 21
51
  0
LINE
  8
0
 10
268
 20
51
 11
273
 21
51
  0
LINE
  8
0
 10
273
 20
51
 11
273
 21
34
  0
LINE
  8
0
 10
273
 20
34
 11
268
 21
34
  0
LINE
  8
0
 10
268
 20
34
 11
268
 21
17
  0
LINE
  8
0
 10
268
 20
17
 11
273
 21
17
  0
LINE
  8
0
 10
273
 20
17
 11
273
 21
0
  0
LINE
  8
0
 10
273
 20
0
 11
300
 21
0
  0
LINE
  8
0
 10
300
 20
0
 11
300
 21
17
  0
LINE
  8
0
 10
238
 20
125
 11
245
 21
125
  0
LINE
  8
0
 10
245
 20
125
 11
245
 21
120
  0
LINE
  8
0
 10
245
 20
120
 11
255
 21
120
  0
LINE
  8
0
 10
255
 20
120
 11
255
 21
140
  0
LINE
  8
0
 10
255
 20
140
 11
260
 21
140
  0
LINE
  8
0
 10
260
 20
140
 11
260
 21
157
  0
LINE
  8
0
 10
260
 20
157
 11
255
 21
157
  0
LINE
  8
0
 10
255
 20
157
 11
255
 21
172
  0
LINE
  8
0
 10
255
 20
172
 11
228
 21
172
  0
LINE
  8
0
 10
228
 20
172
 11
228
 21
157
  0
LINE
  8
0
 10
228
 20
157
 11
223
 21
157
  0
LINE
  8
0
 10
223
 20
157
 11
223
 21
140
  0
LINE
  8
0
 10
223
 20
140
 11
228
 21
140
  0
LINE
  8
0
 10
228
 20
140
 11
228
 21
120
  0
LINE
  8
0
 10
228
 20
120
 11
238
 21
120
  0
LINE
  8
0
 10
238
 20
120
 11
238
 21
125
  0
LINE
  8
0
 10
238
 20
55
 11
245
 21
55
  0
LINE
  8
0
 10
245
 20
55
 11
245
 21
50
  0
LINE
  8
0
 10
245
 20
50
 11
255
 21
50
  0
LINE
  8
0
 10
255
 20
50
 11
255
 21
70
  0
LINE
  8
0
 10
255
 20
70
 11
260
 21
70
  0
LINE
  8
0
 10
260
 20
70
 11
260
 21
87
  0
LINE
  8
0
 10
260
 20
87
 11
255
 21
87
  0
LINE
  8
0
 10
255
 20
87
 11
255
 21
102
  0
LINE
  8
0
 10
255
 20
102
 11
228
 21
102
  0
LINE
  8
0
 10
228
 20
102
 11
228
 21
87
  0
LINE
  8
0
 10
228
 20
87
 11
223
 21
87
  0
LINE
  8
0
 10
223
 20
87
 11
223
 21
70
  0
LINE
  8
0
 10
223
 20
70
 11
228
 21
70
  0
LINE
  8
0
 10
228
 20
70
 11
228
 21
50
  0
LINE
  8
0
 10
228
 20
50
 11
238
 21
50
  0
LINE
  8
0
 10
238
 20
50
 11
238
 21
55
  0
LINE
  8
0
 10
255
 20
10
 11
260
 21
10
  0
LINE
  8
0
 10
260
 20
10
 11
260
 21
25
  0
LINE
  8
0
 10
260
 20
25
 11
255
 21
25
  0
LINE
  8
0
 10
255
 20
25
 11
255
 21
35
  0
LINE
  8
0
 10
255
 20
35
 11
245
 21
35
  0
LINE
  8
0
 10
245
 20
35
 11
245
 21
40
  0
LINE
  8
0
 10
245
 20
40
 11
238
 21
40
  0
LINE
  8
0
 10
238
 20
40
 11
238
 21
35
  0
LINE
  8
0
 10
238
 20
35
 11
228
 21
35
  0
LINE
  8
0
 10
228
 20
35
 11
228
 21
25
  0
LINE
  8
0
 10
228
 20
25
 11
223
 21
25
  0
LINE
  8
0
 10
223
 20
25
 11
223
 21
10
  0
LINE
  8
0
 10
223
 20
10
 11
228
 21
10
  0
LINE
  8
0
 10
228
 20
10
 11
228
 21
0
  0
LINE
  8
0
 10
228
 20
0
 11
255
 21
0
  0
LINE
  8
0
 10
255
 20
0
 11
255
 21
10
  0
ENDSEC
  0
SECTION
  2
OBJECTS
  0
DICTIONARY
  0
ENDSEC
  0
EOF
