  0
SECTION
  2
BLOCKS
  0
ENDSEC
  0
SECTION
  2
ENTITIES
  0
LINE
  8
0
 10
147.686
 20
0.0337219
 11
148.366
 21
0.134506
  0
LINE
  8
0
 10
148.366
 20
0.134506
 11
149.032
 21
0.301422
  0
LINE
  8
0
 10
149.032
 20
0.301422
 11
149.679
 21
0.532852
  0
LINE
  8
0
 10
149.679
 20
0.532852
 11
150.3
 21
0.826553
  0
LINE
  8
0
 10
150.3
 20
0.826553
 11
150.889
 21
1.17972
  0
LINE
  8
0
 10
150.889
 20
1.17972
 11
151.441
 21
1.58893
  0
LINE
  8
0
 10
151.441
 20
1.58893
 11
151.95
 21
2.05026
  0
LINE
  8
0
 10
151.95
 20
2.05026
 11
152.411
 21
2.55925
  0
LINE
  8
0
 10
152.411
 20
2.55925
 11
152.82
 21
3.11102
  0
LINE
  8
0
 10
152.82
 20
3.11102
 11
153.173
 21
3.70023
  0
LINE
  8
0
 10
153.173
 20
3.70023
 11
153.467
 21
4.32123
  0
LINE
  8
0
 10
153.467
 20
4.32123
 11
153.699
 21
4.96802
  0
LINE
  8
0
 10
153.699
 20
4.96802
 11
153.865
 21
5.63437
  0
LINE
  8
0
 10
153.865
 20
5.63437
 11
153.966
 21
6.31389
  0
LINE
  8
0
 10
153.966
 20
6.31389
 11
154
 21
7
  0
LINE
  8
0
 10
154
 20
7
 11
154
 21
85
  0
LINE
  8
0
 10
154
 20
85
 11
153.966
 21
85.6861
  0
LINE
  8
0
 10
153.966
 20
85.6861
 11
153.865
 21
86.3656
  0
LINE
  8
0
 10
153.865
 20
86.3656
 11
153.699
 21
87.032
  0
LINE
  8
0
 10
153.699
 20
87.032
 11
153.467
 21
87.6788
  0
LINE
  8
0
 10
153.467
 20
87.6788
 11
153.173
 21
88.2998
  0
LINE
  8
0
 10
153.173
 20
88.2998
 11
152.82
 21
88.889
  0
LINE
  8
0
 10
152.82
 20
88.889
 11
152.411
 21
89.4408
  0
LINE
  8
0
 10
152.411
 20
89.4408
 11
151.95
 21
89.9497
  0
LINE
  8
0
 10
151.95
 20
89.9497
 11
151.441
 21
90.4111
  0
LINE
  8
0
 10
151.441
 20
90.4111
 11
150.889
 21
90.8203
  0
LINE
  8
0
 10
150.889
 20
90.8203
 11
150.3
 21
91.1734
  0
LINE
  8
0
 10
150.3
 20
91.1734
 11
149.679
 21
91.4671
  0
LINE
  8
0
 10
149.679
 20
91.4671
 11
140
 21
95.6152
  0
LINE
  8
0
 10
140
 20
95.6152
 11
140
 21
203
  0
LINE
  8
0
 10
140
 20
203
 11
139.966
 21
203.686
  0
LINE
  8
0
 10
139.966
 20
203.686
 11
139.865
 21
204.366
  0
LINE
  8
0
 10
139.865
 20
204.366
 11
139.699
 21
205.032
  0
LINE
  8
0
 10
139.699
 20
205.032
 11
139.467
 21
205.679
  0
LINE
  8
0
 10
139.467
 20
205.679
 11
139.173
 21
206.3
  0
LINE
  8
0
 10
139.173
 20
206.3
 11
138.82
 21
206.889
  0
LINE
  8
0
 10
138.82
 20
206.889
 11
138.411
 21
207.441
  0
LINE
  8
0
 10
138.411
 20
207.441
 11
137.95
 21
207.95
  0
LINE
  8
0
 10
137.95
 20
207.95
 11
137.441
 21
208.411
  0
LINE
  8
0
 10
137.441
 20
208.411
 11
136.889
 21
208.82
  0
LINE
  8
0
 10
136.889
 20
208.82
 11
136.3
 21
209.173
  0
LINE
  8
0
 10
136.3
 20
209.173
 11
135.679
 21
209.467
  0
LINE
  8
0
 10
135.679
 20
209.467
 11
135.032
 21
209.699
  0
LINE
  8
0
 10
135.032
 20
209.699
 11
134.366
 21
209.865
  0
LINE
  8
0
 10
134.366
 20
209.865
 11
133.686
 21
209.966
  0
LINE
  8
0
 10
133.686
 20
209.966
 11
133
 21
210
  0
LINE
  8
0
 10
133
 20
210
 11
7
 21
210
  0
LINE
  8
0
 10
7
 20
210
 11
6.31389
 21
209.966
  0
LINE
  8
0
 10
6.31389
 20
209.966
 11
5.63437
 21
209.865
  0
LINE
  8
0
 10
5.63437
 20
209.865
 11
4.96802
 21
209.699
  0
LINE
  8
0
 10
4.96802
 20
209.699
 11
4.32123
 21
209.467
  0
LINE
  8
0
 10
4.32123
 20
209.467
 11
3.70023
 21
209.173
  0
LINE
  8
0
 10
3.70023
 20
209.173
 11
3.11102
 21
208.82
  0
LINE
  8
0
 10
3.11102
 20
208.82
 11
2.55925
 21
208.411
  0
LINE
  8
0
 10
2.55925
 20
208.411
 11
2.05026
 21
207.95
  0
LINE
  8
0
 10
2.05026
 20
207.95
 11
1.58893
 21
207.441
  0
LINE
  8
0
 10
1.58893
 20
207.441
 11
1.17972
 21
206.889
  0
LINE
  8
0
 10
1.17972
 20
206.889
 11
0.826553
 21
206.3
  0
LINE
  8
0
 10
0.826553
 20
206.3
 11
0.532852
 21
205.679
  0
LINE
  8
0
 10
0.532852
 20
205.679
 11
0.301422
 21
205.032
  0
LINE
  8
0
 10
0.301422
 20
205.032
 11
0.134506
 21
204.366
  0
LINE
  8
0
 10
0.134506
 20
204.366
 11
0.0337219
 21
203.686
  0
LINE
  8
0
 10
0.0337219
 20
203.686
 11
0
 21
203
  0
LINE
  8
0
 10
0
 20
203
 11
0
 21
7
  0
LINE
  8
0
 10
0
 20
7
 11
0.0337219
 21
6.31389
  0
LINE
  8
0
 10
0.0337219
 20
6.31389
 11
0.134506
 21
5.63437
  0
LINE
  8
0
 10
0.134506
 20
5.63437
 11
0.301422
 21
4.96802
  0
LINE
  8
0
 10
0.301422
 20
4.96802
 11
0.532852
 21
4.32123
  0
LINE
  8
0
 10
0.532852
 20
4.32123
 11
0.826553
 21
3.70023
  0
LINE
  8
0
 10
0.826553
 20
3.70023
 11
1.17972
 21
3.11102
  0
LINE
  8
0
 10
1.17972
 20
3.11102
 11
1.58893
 21
2.55925
  0
LINE
  8
0
 10
1.58893
 20
2.55925
 11
2.05026
 21
2.05026
  0
LINE
  8
0
 10
2.05026
 20
2.05026
 11
2.55925
 21
1.58893
  0
LINE
  8
0
 10
2.55925
 20
1.58893
 11
3.11102
 21
1.17972
  0
LINE
  8
0
 10
3.11102
 20
1.17972
 11
3.70023
 21
0.826553
  0
LINE
  8
0
 10
3.70023
 20
0.826553
 11
4.32123
 21
0.532852
  0
LINE
  8
0
 10
4.32123
 20
0.532852
 11
4.96802
 21
0.301422
  0
LINE
  8
0
 10
4.96802
 20
0.301422
 11
5.63437
 21
0.134506
  0
LINE
  8
0
 10
5.63437
 20
0.134506
 11
6.31389
 21
0.0337219
  0
LINE
  8
0
 10
6.31389
 20
0.0337219
 11
7
 21
0
  0
LINE
  8
0
 10
7
 20
0
 11
147
 21
0
  0
LINE
  8
0
 10
147
 20
0
 11
147.686
 21
0.0337219
  0
LINE
  8
0
 10
85.804
 20
201.01
 11
85.6098
 21
201.038
  0
LINE
  8
0
 10
85.6098
 20
201.038
 11
85.4194
 21
201.086
  0
LINE
  8
0
 10
85.4194
 20
201.086
 11
85.2346
 21
201.152
  0
LINE
  8
0
 10
85.2346
 20
201.152
 11
85.0572
 21
201.236
  0
LINE
  8
0
 10
85.0572
 20
201.236
 11
84.8889
 21
201.337
  0
LINE
  8
0
 10
84.8889
 20
201.337
 11
84.7312
 21
201.454
  0
LINE
  8
0
 10
84.7312
 20
201.454
 11
84.5858
 21
201.586
  0
LINE
  8
0
 10
84.5858
 20
201.586
 11
84.454
 21
201.731
  0
LINE
  8
0
 10
84.454
 20
201.731
 11
84.3371
 21
201.889
  0
LINE
  8
0
 10
84.3371
 20
201.889
 11
84.2361
 21
202.057
  0
LINE
  8
0
 10
84.2361
 20
202.057
 11
84.1522
 21
202.235
  0
LINE
  8
0
 10
84.1522
 20
202.235
 11
84.0861
 21
202.419
  0
LINE
  8
0
 10
84.0861
 20
202.419
 11
84.0384
 21
202.61
  0
LINE
  8
0
 10
84.0384
 20
202.61
 11
84.0096
 21
202.804
  0
LINE
  8
0
 10
84.0096
 20
202.804
 11
84
 21
203
  0
LINE
  8
0
 10
84
 20
203
 11
84.0096
 21
203.196
  0
LINE
  8
0
 10
84.0096
 20
203.196
 11
84.0384
 21
203.39
  0
LINE
  8
0
 10
84.0384
 20
203.39
 11
84.0861
 21
203.581
  0
LINE
  8
0
 10
84.0861
 20
203.581
 11
84.1522
 21
203.765
  0
LINE
  8
0
 10
84.1522
 20
203.765
 11
84.2361
 21
203.943
  0
LINE
  8
0
 10
84.2361
 20
203.943
 11
84.3371
 21
204.111
  0
LINE
  8
0
 10
84.3371
 20
204.111
 11
84.454
 21
204.269
  0
LINE
  8
0
 10
84.454
 20
204.269
 11
84.5858
 21
204.414
  0
LINE
  8
0
 10
84.5858
 20
204.414
 11
84.7312
 21
204.546
  0
LINE
  8
0
 10
84.7312
 20
204.546
 11
84.8889
 21
204.663
  0
LINE
  8
0
 10
84.8889
 20
204.663
 11
85.0572
 21
204.764
  0
LINE
  8
0
 10
85.0572
 20
204.764
 11
85.2346
 21
204.848
  0
LINE
  8
0
 10
85.2346
 20
204.848
 11
85.4194
 21
204.914
  0
LINE
  8
0
 10
85.4194
 20
204.914
 11
85.6098
 21
204.962
  0
LINE
  8
0
 10
85.6098
 20
204.962
 11
85.804
 21
204.99
  0
LINE
  8
0
 10
85.804
 20
204.99
 11
86
 21
205
  0
LINE
  8
0
 10
86
 20
205
 11
86.196
 21
204.99
  0
LINE
  8
0
 10
86.196
 20
204.99
 11
86.3902
 21
204.962
  0
LINE
  8
0
 10
86.3902
 20
204.962
 11
86.5806
 21
204.914
  0
LINE
  8
0
 10
86.5806
 20
204.914
 11
86.7654
 21
204.848
  0
LINE
  8
0
 10
86.7654
 20
204.848
 11
86.9428
 21
204.764
  0
LINE
  8
0
 10
86.9428
 20
204.764
 11
87.1111
 21
204.663
  0
LINE
  8
0
 10
87.1111
 20
204.663
 11
87.2688
 21
204.546
  0
LINE
  8
0
 10
87.2688
 20
204.546
 11
87.4142
 21
204.414
  0
LINE
  8
0
 10
87.4142
 20
204.414
 11
87.546
 21
204.269
  0
LINE
  8
0
 10
87.546
 20
204.269
 11
87.6629
 21
204.111
  0
LINE
  8
0
 10
87.6629
 20
204.111
 11
87.7638
 21
203.943
  0
LINE
  8
0
 10
87.7638
 20
203.943
 11
87.8477
 21
203.765
  0
LINE
  8
0
 10
87.8477
 20
203.765
 11
87.9139
 21
203.581
  0
LINE
  8
0
 10
87.9139
 20
203.581
 11
87.9616
 21
203.39
  0
LINE
  8
0
 10
87.9616
 20
203.39
 11
87.9904
 21
203.196
  0
LINE
  8
0
 10
87.9904
 20
203.196
 11
88
 21
203
  0
LINE
  8
0
 10
88
 20
203
 11
87.9904
 21
202.804
  0
LINE
  8
0
 10
87.9904
 20
202.804
 11
87.9616
 21
202.61
  0
LINE
  8
0
 10
87.9616
 20
202.61
 11
87.9139
 21
202.419
  0
LINE
  8
0
 10
87.9139
 20
202.419
 11
87.8477
 21
202.235
  0
LINE
  8
0
 10
87.8477
 20
202.235
 11
87.7638
 21
202.057
  0
LINE
  8
0
 10
87.7638
 20
202.057
 11
87.6629
 21
201.889
  0
LINE
  8
0
 10
87.6629
 20
201.889
 11
87.546
 21
201.731
  0
LINE
  8
0
 10
87.546
 20
201.731
 11
87.4142
 21
201.586
  0
LINE
  8
0
 10
87.4142
 20
201.586
 11
87.2688
 21
201.454
  0
LINE
  8
0
 10
87.2688
 20
201.454
 11
87.1111
 21
201.337
  0
LINE
  8
0
 10
87.1111
 20
201.337
 11
86.9428
 21
201.236
  0
LINE
  8
0
 10
86.9428
 20
201.236
 11
86.7654
 21
201.152
  0
LINE
  8
0
 10
86.7654
 20
201.152
 11
86.5806
 21
201.086
  0
LINE
  8
0
 10
86.5806
 20
201.086
 11
86.3902
 21
201.038
  0
LINE
  8
0
 10
86.3902
 20
201.038
 11
86.196
 21
201.01
  0
LINE
  8
0
 10
86.196
 20
201.01
 11
86
 21
201
  0
LINE
  8
0
 10
86
 20
201
 11
85.804
 21
201.01
  0
LINE
  8
0
 10
132.804
 20
201.01
 11
132.61
 21
201.038
  0
LINE
  8
0
 10
132.61
 20
201.038
 11
132.419
 21
201.086
  0
LINE
  8
0
 10
132.419
 20
201.086
 11
132.235
 21
201.152
  0
LINE
  8
0
 10
132.235
 20
201.152
 11
132.057
 21
201.236
  0
LINE
  8
0
 10
132.057
 20
201.236
 11
131.889
 21
201.337
  0
LINE
  8
0
 10
131.889
 20
201.337
 11
131.731
 21
201.454
  0
LINE
  8
0
 10
131.731
 20
201.454
 11
131.586
 21
201.586
  0
LINE
  8
0
 10
131.586
 20
201.586
 11
131.454
 21
201.731
  0
LINE
  8
0
 10
131.454
 20
201.731
 11
131.337
 21
201.889
  0
LINE
  8
0
 10
131.337
 20
201.889
 11
131.236
 21
202.057
  0
LINE
  8
0
 10
131.236
 20
202.057
 11
131.152
 21
202.235
  0
LINE
  8
0
 10
131.152
 20
202.235
 11
131.086
 21
202.419
  0
LINE
  8
0
 10
131.086
 20
202.419
 11
131.038
 21
202.61
  0
LINE
  8
0
 10
131.038
 20
202.61
 11
131.01
 21
202.804
  0
LINE
  8
0
 10
131.01
 20
202.804
 11
131
 21
203
  0
LINE
  8
0
 10
131
 20
203
 11
131.01
 21
203.196
  0
LINE
  8
0
 10
131.01
 20
203.196
 11
131.038
 21
203.39
  0
LINE
  8
0
 10
131.038
 20
203.39
 11
131.086
 21
203.581
  0
LINE
  8
0
 10
131.086
 20
203.581
 11
131.152
 21
203.765
  0
LINE
  8
0
 10
131.152
 20
203.765
 11
131.236
 21
203.943
  0
LINE
  8
0
 10
131.236
 20
203.943
 11
131.337
 21
204.111
  0
LINE
  8
0
 10
131.337
 20
204.111
 11
131.454
 21
204.269
  0
LINE
  8
0
 10
131.454
 20
204.269
 11
131.586
 21
204.414
  0
LINE
  8
0
 10
131.586
 20
204.414
 11
131.731
 21
204.546
  0
LINE
  8
0
 10
131.731
 20
204.546
 11
131.889
 21
204.663
  0
LINE
  8
0
 10
131.889
 20
204.663
 11
132.057
 21
204.764
  0
LINE
  8
0
 10
132.057
 20
204.764
 11
132.235
 21
204.848
  0
LINE
  8
0
 10
132.235
 20
204.848
 11
132.419
 21
204.914
  0
LINE
  8
0
 10
132.419
 20
204.914
 11
132.61
 21
204.962
  0
LINE
  8
0
 10
132.61
 20
204.962
 11
132.804
 21
204.99
  0
LINE
  8
0
 10
132.804
 20
204.99
 11
133
 21
205
  0
LINE
  8
0
 10
133
 20
205
 11
133.196
 21
204.99
  0
LINE
  8
0
 10
133.196
 20
204.99
 11
133.39
 21
204.962
  0
LINE
  8
0
 10
133.39
 20
204.962
 11
133.581
 21
204.914
  0
LINE
  8
0
 10
133.581
 20
204.914
 11
133.765
 21
204.848
  0
LINE
  8
0
 10
133.765
 20
204.848
 11
133.943
 21
204.764
  0
LINE
  8
0
 10
133.943
 20
204.764
 11
134.111
 21
204.663
  0
LINE
  8
0
 10
134.111
 20
204.663
 11
134.269
 21
204.546
  0
LINE
  8
0
 10
134.269
 20
204.546
 11
134.414
 21
204.414
  0
LINE
  8
0
 10
134.414
 20
204.414
 11
134.546
 21
204.269
  0
LINE
  8
0
 10
134.546
 20
204.269
 11
134.663
 21
204.111
  0
LINE
  8
0
 10
134.663
 20
204.111
 11
134.764
 21
203.943
  0
LINE
  8
0
 10
134.764
 20
203.943
 11
134.848
 21
203.765
  0
LINE
  8
0
 10
134.848
 20
203.765
 11
134.914
 21
203.581
  0
LINE
  8
0
 10
134.914
 20
203.581
 11
134.962
 21
203.39
  0
LINE
  8
0
 10
134.962
 20
203.39
 11
134.99
 21
203.196
  0
LINE
  8
0
 10
134.99
 20
203.196
 11
135
 21
203
  0
LINE
  8
0
 10
135
 20
203
 11
134.99
 21
202.804
  0
LINE
  8
0
 10
134.99
 20
202.804
 11
134.962
 21
202.61
  0
LINE
  8
0
 10
134.962
 20
202.61
 11
134.914
 21
202.419
  0
LINE
  8
0
 10
134.914
 20
202.419
 11
134.848
 21
202.235
  0
LINE
  8
0
 10
134.848
 20
202.235
 11
134.764
 21
202.057
  0
LINE
  8
0
 10
134.764
 20
202.057
 11
134.663
 21
201.889
  0
LINE
  8
0
 10
134.663
 20
201.889
 11
134.546
 21
201.731
  0
LINE
  8
0
 10
134.546
 20
201.731
 11
134.414
 21
201.586
  0
LINE
  8
0
 10
134.414
 20
201.586
 11
134.269
 21
201.454
  0
LINE
  8
0
 10
134.269
 20
201.454
 11
134.111
 21
201.337
  0
LINE
  8
0
 10
134.111
 20
201.337
 11
133.943
 21
201.236
  0
LINE
  8
0
 10
133.943
 20
201.236
 11
133.765
 21
201.152
  0
LINE
  8
0
 10
133.765
 20
201.152
 11
133.581
 21
201.086
  0
LINE
  8
0
 10
133.581
 20
201.086
 11
133.39
 21
201.038
  0
LINE
  8
0
 10
133.39
 20
201.038
 11
133.196
 21
201.01
  0
LINE
  8
0
 10
133.196
 20
201.01
 11
133
 21
201
  0
LINE
  8
0
 10
133
 20
201
 11
132.804
 21
201.01
  0
LINE
  8
0
 10
108
 20
196
 11
108
 21
201
  0
LINE
  8
0
 10
108
 20
201
 11
125
 21
201
  0
LINE
  8
0
 10
125
 20
201
 11
125
 21
196
  0
LINE
  8
0
 10
125
 20
196
 11
108
 21
196
  0
LINE
  8
0
 10
88
 20
162
 11
88
 21
179
  0
LINE
  8
0
 10
88
 20
179
 11
93
 21
179
  0
LINE
  8
0
 10
93
 20
179
 11
93
 21
162
  0
LINE
  8
0
 10
93
 20
162
 11
88
 21
162
  0
LINE
  8
0
 10
88
 20
128
 11
88
 21
145
  0
LINE
  8
0
 10
88
 20
145
 11
93
 21
145
  0
LINE
  8
0
 10
93
 20
145
 11
93
 21
128
  0
LINE
  8
0
 10
93
 20
128
 11
88
 21
128
  0
LINE
  8
0
 10
88
 20
94
 11
88
 21
111
  0
LINE
  8
0
 10
88
 20
111
 11
93
 21
111
  0
LINE
  8
0
 10
93
 20
111
 11
93
 21
94
  0
LINE
  8
0
 10
93
 20
94
 11
88
 21
94
  0
LINE
  8
0
 10
101.608
 20
99.0193
 11
101.22
 21
99.0769
  0
LINE
  8
0
 10
101.22
 20
99.0769
 11
100.839
 21
99.1722
  0
LINE
  8
0
 10
100.839
 20
99.1722
 11
100.469
 21
99.3045
  0
LINE
  8
0
 10
100.469
 20
99.3045
 11
100.114
 21
99.4723
  0
LINE
  8
0
 10
100.114
 20
99.4723
 11
99.7777
 21
99.6741
  0
LINE
  8
0
 10
99.7777
 20
99.6741
 11
99.4624
 21
99.9079
  0
LINE
  8
0
 10
99.4624
 20
99.9079
 11
99.1716
 21
100.172
  0
LINE
  8
0
 10
99.1716
 20
100.172
 11
98.9079
 21
100.462
  0
LINE
  8
0
 10
98.9079
 20
100.462
 11
98.6741
 21
100.778
  0
LINE
  8
0
 10
98.6741
 20
100.778
 11
98.4723
 21
101.114
  0
LINE
  8
0
 10
98.4723
 20
101.114
 11
98.3045
 21
101.469
  0
LINE
  8
0
 10
98.3045
 20
101.469
 11
98.1722
 21
101.839
  0
LINE
  8
0
 10
98.1722
 20
101.839
 11
98.0769
 21
102.22
  0
LINE
  8
0
 10
98.0769
 20
102.22
 11
98.0193
 21
102.608
  0
LINE
  8
0
 10
98.0193
 20
102.608
 11
98
 21
103
  0
LINE
  8
0
 10
98
 20
103
 11
98.0193
 21
103.392
  0
LINE
  8
0
 10
98.0193
 20
103.392
 11
98.0769
 21
103.78
  0
LINE
  8
0
 10
98.0769
 20
103.78
 11
98.1722
 21
104.161
  0
LINE
  8
0
 10
98.1722
 20
104.161
 11
98.3045
 21
104.531
  0
LINE
  8
0
 10
98.3045
 20
104.531
 11
98.4723
 21
104.886
  0
LINE
  8
0
 10
98.4723
 20
104.886
 11
98.6741
 21
105.222
  0
LINE
  8
0
 10
98.6741
 20
105.222
 11
98.9079
 21
105.538
  0
LINE
  8
0
 10
98.9079
 20
105.538
 11
99.1716
 21
105.828
  0
LINE
  8
0
 10
99.1716
 20
105.828
 11
99.4624
 21
106.092
  0
LINE
  8
0
 10
99.4624
 20
106.092
 11
99.7777
 21
106.326
  0
LINE
  8
0
 10
99.7777
 20
106.326
 11
100.114
 21
106.528
  0
LINE
  8
0
 10
100.114
 20
106.528
 11
100.469
 21
106.696
  0
LINE
  8
0
 10
100.469
 20
106.696
 11
100.839
 21
106.828
  0
LINE
  8
0
 10
100.839
 20
106.828
 11
101.22
 21
106.923
  0
LINE
  8
0
 10
101.22
 20
106.923
 11
101.608
 21
106.981
  0
LINE
  8
0
 10
101.608
 20
106.981
 11
102
 21
107
  0
LINE
  8
0
 10
102
 20
107
 11
102.392
 21
106.981
  0
LINE
  8
0
 10
102.392
 20
106.981
 11
102.78
 21
106.923
  0
LINE
  8
0
 10
102.78
 20
106.923
 11
103.161
 21
106.828
  0
LINE
  8
0
 10
103.161
 20
106.828
 11
103.531
 21
106.696
  0
LINE
  8
0
 10
103.531
 20
106.696
 11
103.886
 21
106.528
  0
LINE
  8
0
 10
103.886
 20
106.528
 11
104.222
 21
106.326
  0
LINE
  8
0
 10
104.222
 20
106.326
 11
104.538
 21
106.092
  0
LINE
  8
0
 10
104.538
 20
106.092
 11
104.828
 21
105.828
  0
LINE
  8
0
 10
104.828
 20
105.828
 11
105.092
 21
105.538
  0
LINE
  8
0
 10
105.092
 20
105.538
 11
105.326
 21
105.222
  0
LINE
  8
0
 10
105.326
 20
105.222
 11
105.528
 21
104.886
  0
LINE
  8
0
 10
105.528
 20
104.886
 11
105.696
 21
104.531
  0
LINE
  8
0
 10
105.696
 20
104.531
 11
105.828
 21
104.161
  0
LINE
  8
0
 10
105.828
 20
104.161
 11
105.923
 21
103.78
  0
LINE
  8
0
 10
105.923
 20
103.78
 11
105.981
 21
103.392
  0
LINE
  8
0
 10
105.981
 20
103.392
 11
106
 21
103
  0
LINE
  8
0
 10
106
 20
103
 11
105.981
 21
102.608
  0
LINE
  8
0
 10
105.981
 20
102.608
 11
105.923
 21
102.22
  0
LINE
  8
0
 10
105.923
 20
102.22
 11
105.828
 21
101.839
  0
LINE
  8
0
 10
105.828
 20
101.839
 11
105.696
 21
101.469
  0
LINE
  8
0
 10
105.696
 20
101.469
 11
105.528
 21
101.114
  0
LINE
  8
0
 10
105.528
 20
101.114
 11
105.326
 21
100.778
  0
LINE
  8
0
 10
105.326
 20
100.778
 11
105.092
 21
100.462
  0
LINE
  8
0
 10
105.092
 20
100.462
 11
104.828
 21
100.172
  0
LINE
  8
0
 10
104.828
 20
100.172
 11
104.538
 21
99.9079
  0
LINE
  8
0
 10
104.538
 20
99.9079
 11
104.222
 21
99.6741
  0
LINE
  8
0
 10
104.222
 20
99.6741
 11
103.886
 21
99.4723
  0
LINE
  8
0
 10
103.886
 20
99.4723
 11
103.531
 21
99.3045
  0
LINE
  8
0
 10
103.531
 20
99.3045
 11
103.161
 21
99.1722
  0
LINE
  8
0
 10
103.161
 20
99.1722
 11
102.78
 21
99.0769
  0
LINE
  8
0
 10
102.78
 20
99.0769
 11
102.392
 21
99.0193
  0
LINE
  8
0
 10
102.392
 20
99.0193
 11
102
 21
99
  0
LINE
  8
0
 10
102
 20
99
 11
101.608
 21
99.0193
  0
LINE
  8
0
 10
6.80396
 20
85.0096
 11
6.60982
 21
85.0384
  0
LINE
  8
0
 10
6.60982
 20
85.0384
 11
6.41942
 21
85.0861
  0
LINE
  8
0
 10
6.41942
 20
85.0861
 11
6.23462
 21
85.1522
  0
LINE
  8
0
 10
6.23462
 20
85.1522
 11
6.05721
 21
85.2361
  0
LINE
  8
0
 10
6.05721
 20
85.2361
 11
5.88885
 21
85.3371
  0
LINE
  8
0
 10
5.88885
 20
85.3371
 11
5.7312
 21
85.454
  0
LINE
  8
0
 10
5.7312
 20
85.454
 11
5.58578
 21
85.5858
  0
LINE
  8
0
 10
5.58578
 20
85.5858
 11
5.45396
 21
85.7312
  0
LINE
  8
0
 10
5.45396
 20
85.7312
 11
5.33705
 21
85.8889
  0
LINE
  8
0
 10
5.33705
 20
85.8889
 11
5.23615
 21
86.0572
  0
LINE
  8
0
 10
5.23615
 20
86.0572
 11
5.15224
 21
86.2346
  0
LINE
  8
0
 10
5.15224
 20
86.2346
 11
5.08611
 21
86.4194
  0
LINE
  8
0
 10
5.08611
 20
86.4194
 11
5.03842
 21
86.6098
  0
LINE
  8
0
 10
5.03842
 20
86.6098
 11
5.00963
 21
86.804
  0
LINE
  8
0
 10
5.00963
 20
86.804
 11
5
 21
87
  0
LINE
  8
0
 10
5
 20
87
 11
5.00963
 21
87.196
  0
LINE
  8
0
 10
5.00963
 20
87.196
 11
5.03842
 21
87.3902
  0
LINE
  8
0
 10
5.03842
 20
87.3902
 11
5.08611
 21
87.5806
  0
LINE
  8
0
 10
5.08611
 20
87.5806
 11
5.15224
 21
87.7654
  0
LINE
  8
0
 10
5.15224
 20
87.7654
 11
5.23615
 21
87.9428
  0
LINE
  8
0
 10
5.23615
 20
87.9428
 11
5.33705
 21
88.1111
  0
LINE
  8
0
 10
5.33705
 20
88.1111
 11
5.45396
 21
88.2688
  0
LINE
  8
0
 10
5.45396
 20
88.2688
 11
5.58578
 21
88.4142
  0
LINE
  8
0
 10
5.58578
 20
88.4142
 11
5.7312
 21
88.546
  0
LINE
  8
0
 10
5.7312
 20
88.546
 11
5.88885
 21
88.6629
  0
LINE
  8
0
 10
5.88885
 20
88.6629
 11
6.05721
 21
88.7638
  0
LINE
  8
0
 10
6.05721
 20
88.7638
 11
6.23462
 21
88.8477
  0
LINE
  8
0
 10
6.23462
 20
88.8477
 11
6.41942
 21
88.9139
  0
LINE
  8
0
 10
6.41942
 20
88.9139
 11
6.60982
 21
88.9616
  0
LINE
  8
0
 10
6.60982
 20
88.9616
 11
6.80396
 21
88.9904
  0
LINE
  8
0
 10
6.80396
 20
88.9904
 11
7
 21
89
  0
LINE
  8
0
 10
7
 20
89
 11
7.19603
 21
88.9904
  0
LINE
  8
0
 10
7.19603
 20
88.9904
 11
7.39017
 21
88.9616
  0
LINE
  8
0
 10
7.39017
 20
88.9616
 11
7.58057
 21
88.9139
  0
LINE
  8
0
 10
7.58057
 20
88.9139
 11
7.76537
 21
88.8477
  0
LINE
  8
0
 10
7.76537
 20
88.8477
 11
7.94278
 21
88.7638
  0
LINE
  8
0
 10
7.94278
 20
88.7638
 11
8.11113
 21
88.6629
  0
LINE
  8
0
 10
8.11113
 20
88.6629
 11
8.26878
 21
88.546
  0
LINE
  8
0
 10
8.26878
 20
88.546
 11
8.4142
 21
88.4142
  0
LINE
  8
0
 10
8.4142
 20
88.4142
 11
8.54602
 21
88.2688
  0
LINE
  8
0
 10
8.54602
 20
88.2688
 11
8.66293
 21
88.1111
  0
LINE
  8
0
 10
8.66293
 20
88.1111
 11
8.76384
 21
87.9428
  0
LINE
  8
0
 10
8.76384
 20
87.9428
 11
8.84775
 21
87.7654
  0
LINE
  8
0
 10
8.84775
 20
87.7654
 11
8.91388
 21
87.5806
  0
LINE
  8
0
 10
8.91388
 20
87.5806
 11
8.96156
 21
87.3902
  0
LINE
  8
0
 10
8.96156
 20
87.3902
 11
8.99036
 21
87.196
  0
LINE
  8
0
 10
8.99036
 20
87.196
 11
9
 21
87
  0
LINE
  8
0
 10
9
 20
87
 11
8.99036
 21
86.804
  0
LINE
  8
0
 10
8.99036
 20
86.804
 11
8.96156
 21
86.6098
  0
LINE
  8
0
 10
8.96156
 20
86.6098
 11
8.91388
 21
86.4194
  0
LINE
  8
0
 10
8.91388
 20
86.4194
 11
8.84775
 21
86.2346
  0
LINE
  8
0
 10
8.84775
 20
86.2346
 11
8.76384
 21
86.0572
  0
LINE
  8
0
 10
8.76384
 20
86.0572
 11
8.66293
 21
85.8889
  0
LINE
  8
0
 10
8.66293
 20
85.8889
 11
8.54602
 21
85.7312
  0
LINE
  8
0
 10
8.54602
 20
85.7312
 11
8.4142
 21
85.5858
  0
LINE
  8
0
 10
8.4142
 20
85.5858
 11
8.26878
 21
85.454
  0
LINE
  8
0
 10
8.26878
 20
85.454
 11
8.11113
 21
85.3371
  0
LINE
  8
0
 10
8.11113
 20
85.3371
 11
7.94278
 21
85.2361
  0
LINE
  8
0
 10
7.94278
 20
85.2361
 11
7.76537
 21
85.1522
  0
LINE
  8
0
 10
7.76537
 20
85.1522
 11
7.58057
 21
85.0861
  0
LINE
  8
0
 10
7.58057
 20
85.0861
 11
7.39017
 21
85.0384
  0
LINE
  8
0
 10
7.39017
 20
85.0384
 11
7.19603
 21
85.0096
  0
LINE
  8
0
 10
7.19603
 20
85.0096
 11
7
 21
85
  0
LINE
  8
0
 10
7
 20
85
 11
6.80396
 21
85.0096
  0
LINE
  8
0
 10
70.804
 20
85.0096
 11
70.6098
 21
85.0384
  0
LINE
  8
0
 10
70.6098
 20
85.0384
 11
70.4194
 21
85.0861
  0
LINE
  8
0
 10
70.4194
 20
85.0861
 11
70.2346
 21
85.1522
  0
LINE
  8
0
 10
70.2346
 20
85.1522
 11
70.0572
 21
85.2361
  0
LINE
  8
0
 10
70.0572
 20
85.2361
 11
69.8889
 21
85.3371
  0
LINE
  8
0
 10
69.8889
 20
85.3371
 11
69.7312
 21
85.454
  0
LINE
  8
0
 10
69.7312
 20
85.454
 11
69.5858
 21
85.5858
  0
LINE
  8
0
 10
69.5858
 20
85.5858
 11
69.454
 21
85.7312
  0
LINE
  8
0
 10
69.454
 20
85.7312
 11
69.3371
 21
85.8889
  0
LINE
  8
0
 10
69.3371
 20
85.8889
 11
69.2361
 21
86.0572
  0
LINE
  8
0
 10
69.2361
 20
86.0572
 11
69.1522
 21
86.2346
  0
LINE
  8
0
 10
69.1522
 20
86.2346
 11
69.0861
 21
86.4194
  0
LINE
  8
0
 10
69.0861
 20
86.4194
 11
69.0384
 21
86.6098
  0
LINE
  8
0
 10
69.0384
 20
86.6098
 11
69.0096
 21
86.804
  0
LINE
  8
0
 10
69.0096
 20
86.804
 11
69
 21
87
  0
LINE
  8
0
 10
69
 20
87
 11
69.0096
 21
87.196
  0
LINE
  8
0
 10
69.0096
 20
87.196
 11
69.0384
 21
87.3902
  0
LINE
  8
0
 10
69.0384
 20
87.3902
 11
69.0861
 21
87.5806
  0
LINE
  8
0
 10
69.0861
 20
87.5806
 11
69.1522
 21
87.7654
  0
LINE
  8
0
 10
69.1522
 20
87.7654
 11
69.2361
 21
87.9428
  0
LINE
  8
0
 10
69.2361
 20
87.9428
 11
69.3371
 21
88.1111
  0
LINE
  8
0
 10
69.3371
 20
88.1111
 11
69.454
 21
88.2688
  0
LINE
  8
0
 10
69.454
 20
88.2688
 11
69.5858
 21
88.4142
  0
LINE
  8
0
 10
69.5858
 20
88.4142
 11
69.7312
 21
88.546
  0
LINE
  8
0
 10
69.7312
 20
88.546
 11
69.8889
 21
88.6629
  0
LINE
  8
0
 10
69.8889
 20
88.6629
 11
70.0572
 21
88.7638
  0
LINE
  8
0
 10
70.0572
 20
88.7638
 11
70.2346
 21
88.8477
  0
LINE
  8
0
 10
70.2346
 20
88.8477
 11
70.4194
 21
88.9139
  0
LINE
  8
0
 10
70.4194
 20
88.9139
 11
70.6098
 21
88.9616
  0
LINE
  8
0
 10
70.6098
 20
88.9616
 11
70.804
 21
88.9904
  0
LINE
  8
0
 10
70.804
 20
88.9904
 11
71
 21
89
  0
LINE
  8
0
 10
71
 20
89
 11
71.196
 21
88.9904
  0
LINE
  8
0
 10
71.196
 20
88.9904
 11
71.3902
 21
88.9616
  0
LINE
  8
0
 10
71.3902
 20
88.9616
 11
71.5806
 21
88.9139
  0
LINE
  8
0
 10
71.5806
 20
88.9139
 11
71.7654
 21
88.8477
  0
LINE
  8
0
 10
71.7654
 20
88.8477
 11
71.9428
 21
88.7638
  0
LINE
  8
0
 10
71.9428
 20
88.7638
 11
72.1111
 21
88.6629
  0
LINE
  8
0
 10
72.1111
 20
88.6629
 11
72.2688
 21
88.546
  0
LINE
  8
0
 10
72.2688
 20
88.546
 11
72.4142
 21
88.4142
  0
LINE
  8
0
 10
72.4142
 20
88.4142
 11
72.546
 21
88.2688
  0
LINE
  8
0
 10
72.546
 20
88.2688
 11
72.6629
 21
88.1111
  0
LINE
  8
0
 10
72.6629
 20
88.1111
 11
72.7638
 21
87.9428
  0
LINE
  8
0
 10
72.7638
 20
87.9428
 11
72.8477
 21
87.7654
  0
LINE
  8
0
 10
72.8477
 20
87.7654
 11
72.9139
 21
87.5806
  0
LINE
  8
0
 10
72.9139
 20
87.5806
 11
72.9616
 21
87.3902
  0
LINE
  8
0
 10
72.9616
 20
87.3902
 11
72.9904
 21
87.196
  0
LINE
  8
0
 10
72.9904
 20
87.196
 11
73
 21
87
  0
LINE
  8
0
 10
73
 20
87
 11
72.9904
 21
86.804
  0
LINE
  8
0
 10
72.9904
 20
86.804
 11
72.9616
 21
86.6098
  0
LINE
  8
0
 10
72.9616
 20
86.6098
 11
72.9139
 21
86.4194
  0
LINE
  8
0
 10
72.9139
 20
86.4194
 11
72.8477
 21
86.2346
  0
LINE
  8
0
 10
72.8477
 20
86.2346
 11
72.7638
 21
86.0572
  0
LINE
  8
0
 10
72.7638
 20
86.0572
 11
72.6629
 21
85.8889
  0
LINE
  8
0
 10
72.6629
 20
85.8889
 11
72.546
 21
85.7312
  0
LINE
  8
0
 10
72.546
 20
85.7312
 11
72.4142
 21
85.5858
  0
LINE
  8
0
 10
72.4142
 20
85.5858
 11
72.2688
 21
85.454
  0
LINE
  8
0
 10
72.2688
 20
85.454
 11
72.1111
 21
85.3371
  0
LINE
  8
0
 10
72.1111
 20
85.3371
 11
71.9428
 21
85.2361
  0
LINE
  8
0
 10
71.9428
 20
85.2361
 11
71.7654
 21
85.1522
  0
LINE
  8
0
 10
71.7654
 20
85.1522
 11
71.5806
 21
85.0861
  0
LINE
  8
0
 10
71.5806
 20
85.0861
 11
71.3902
 21
85.0384
  0
LINE
  8
0
 10
71.3902
 20
85.0384
 11
71.196
 21
85.0096
  0
LINE
  8
0
 10
71.196
 20
85.0096
 11
71
 21
85
  0
LINE
  8
0
 10
71
 20
85
 11
70.804
 21
85.0096
  0
LINE
  8
0
 10
88
 20
60
 11
88
 21
77
  0
LINE
  8
0
 10
88
 20
77
 11
93
 21
77
  0
LINE
  8
0
 10
93
 20
77
 11
93
 21
60
  0
LINE
  8
0
 10
93
 20
60
 11
88
 21
60
  0
LINE
  8
0
 10
141
 20
29
 11
141
 21
46
  0
LINE
  8
0
 10
141
 20
46
 11
146
 21
46
  0
LINE
  8
0
 10
146
 20
46
 11
146
 21
29
  0
LINE
  8
0
 10
146
 20
29
 11
141
 21
29
  0
LINE
  8
0
 10
88
 20
26
 11
88
 21
43
  0
LINE
  8
0
 10
88
 20
43
 11
93
 21
43
  0
LINE
  8
0
 10
93
 20
43
 11
93
 21
26
  0
LINE
  8
0
 10
93
 20
26
 11
88
 21
26
  0
LINE
  8
0
 10
6.80396
 20
18.0096
 11
6.60982
 21
18.0384
  0
LINE
  8
0
 10
6.60982
 20
18.0384
 11
6.41942
 21
18.0861
  0
LINE
  8
0
 10
6.41942
 20
18.0861
 11
6.23462
 21
18.1522
  0
LINE
  8
0
 10
6.23462
 20
18.1522
 11
6.05721
 21
18.2361
  0
LINE
  8
0
 10
6.05721
 20
18.2361
 11
5.88885
 21
18.3371
  0
LINE
  8
0
 10
5.88885
 20
18.3371
 11
5.7312
 21
18.454
  0
LINE
  8
0
 10
5.7312
 20
18.454
 11
5.58578
 21
18.5858
  0
LINE
  8
0
 10
5.58578
 20
18.5858
 11
5.45396
 21
18.7312
  0
LINE
  8
0
 10
5.45396
 20
18.7312
 11
5.33705
 21
18.8889
  0
LINE
  8
0
 10
5.33705
 20
18.8889
 11
5.23615
 21
19.0572
  0
LINE
  8
0
 10
5.23615
 20
19.0572
 11
5.15224
 21
19.2346
  0
LINE
  8
0
 10
5.15224
 20
19.2346
 11
5.08611
 21
19.4194
  0
LINE
  8
0
 10
5.08611
 20
19.4194
 11
5.03842
 21
19.6098
  0
LINE
  8
0
 10
5.03842
 20
19.6098
 11
5.00963
 21
19.804
  0
LINE
  8
0
 10
5.00963
 20
19.804
 11
5
 21
20
  0
LINE
  8
0
 10
5
 20
20
 11
5.00963
 21
20.196
  0
LINE
  8
0
 10
5.00963
 20
20.196
 11
5.03842
 21
20.3902
  0
LINE
  8
0
 10
5.03842
 20
20.3902
 11
5.08611
 21
20.5806
  0
LINE
  8
0
 10
5.08611
 20
20.5806
 11
5.15224
 21
20.7654
  0
LINE
  8
0
 10
5.15224
 20
20.7654
 11
5.23615
 21
20.9428
  0
LINE
  8
0
 10
5.23615
 20
20.9428
 11
5.33705
 21
21.1111
  0
LINE
  8
0
 10
5.33705
 20
21.1111
 11
5.45396
 21
21.2688
  0
LINE
  8
0
 10
5.45396
 20
21.2688
 11
5.58578
 21
21.4142
  0
LINE
  8
0
 10
5.58578
 20
21.4142
 11
5.7312
 21
21.546
  0
LINE
  8
0
 10
5.7312
 20
21.546
 11
5.88885
 21
21.6629
  0
LINE
  8
0
 10
5.88885
 20
21.6629
 11
6.05721
 21
21.7638
  0
LINE
  8
0
 10
6.05721
 20
21.7638
 11
6.23462
 21
21.8477
  0
LINE
  8
0
 10
6.23462
 20
21.8477
 11
6.41942
 21
21.9139
  0
LINE
  8
0
 10
6.41942
 20
21.9139
 11
6.60982
 21
21.9616
  0
LINE
  8
0
 10
6.60982
 20
21.9616
 11
6.80396
 21
21.9904
  0
LINE
  8
0
 10
6.80396
 20
21.9904
 11
7
 21
22
  0
LINE
  8
0
 10
7
 20
22
 11
7.19603
 21
21.9904
  0
LINE
  8
0
 10
7.19603
 20
21.9904
 11
7.39017
 21
21.9616
  0
LINE
  8
0
 10
7.39017
 20
21.9616
 11
7.58057
 21
21.9139
  0
LINE
  8
0
 10
7.58057
 20
21.9139
 11
7.76537
 21
21.8477
  0
LINE
  8
0
 10
7.76537
 20
21.8477
 11
7.94278
 21
21.7638
  0
LINE
  8
0
 10
7.94278
 20
21.7638
 11
8.11113
 21
21.6629
  0
LINE
  8
0
 10
8.11113
 20
21.6629
 11
8.26878
 21
21.546
  0
LINE
  8
0
 10
8.26878
 20
21.546
 11
8.4142
 21
21.4142
  0
LINE
  8
0
 10
8.4142
 20
21.4142
 11
8.54602
 21
21.2688
  0
LINE
  8
0
 10
8.54602
 20
21.2688
 11
8.66293
 21
21.1111
  0
LINE
  8
0
 10
8.66293
 20
21.1111
 11
8.76384
 21
20.9428
  0
LINE
  8
0
 10
8.76384
 20
20.9428
 11
8.84775
 21
20.7654
  0
LINE
  8
0
 10
8.84775
 20
20.7654
 11
8.91388
 21
20.5806
  0
LINE
  8
0
 10
8.91388
 20
20.5806
 11
8.96156
 21
20.3902
  0
LINE
  8
0
 10
8.96156
 20
20.3902
 11
8.99036
 21
20.196
  0
LINE
  8
0
 10
8.99036
 20
20.196
 11
9
 21
20
  0
LINE
  8
0
 10
9
 20
20
 11
8.99036
 21
19.804
  0
LINE
  8
0
 10
8.99036
 20
19.804
 11
8.96156
 21
19.6098
  0
LINE
  8
0
 10
8.96156
 20
19.6098
 11
8.91388
 21
19.4194
  0
LINE
  8
0
 10
8.91388
 20
19.4194
 11
8.84775
 21
19.2346
  0
LINE
  8
0
 10
8.84775
 20
19.2346
 11
8.76384
 21
19.0572
  0
LINE
  8
0
 10
8.76384
 20
19.0572
 11
8.66293
 21
18.8889
  0
LINE
  8
0
 10
8.66293
 20
18.8889
 11
8.54602
 21
18.7312
  0
LINE
  8
0
 10
8.54602
 20
18.7312
 11
8.4142
 21
18.5858
  0
LINE
  8
0
 10
8.4142
 20
18.5858
 11
8.26878
 21
18.454
  0
LINE
  8
0
 10
8.26878
 20
18.454
 11
8.11113
 21
18.3371
  0
LINE
  8
0
 10
8.11113
 20
18.3371
 11
7.94278
 21
18.2361
  0
LINE
  8
0
 10
7.94278
 20
18.2361
 11
7.76537
 21
18.1522
  0
LINE
  8
0
 10
7.76537
 20
18.1522
 11
7.58057
 21
18.0861
  0
LINE
  8
0
 10
7.58057
 20
18.0861
 11
7.39017
 21
18.0384
  0
LINE
  8
0
 10
7.39017
 20
18.0384
 11
7.19603
 21
18.0096
  0
LINE
  8
0
 10
7.19603
 20
18.0096
 11
7
 21
18
  0
LINE
  8
0
 10
7
 20
18
 11
6.80396
 21
18.0096
  0
LINE
  8
0
 10
70.804
 20
18.0096
 11
70.6098
 21
18.0384
  0
LINE
  8
0
 10
70.6098
 20
18.0384
 11
70.4194
 21
18.0861
  0
LINE
  8
0
 10
70.4194
 20
18.0861
 11
70.2346
 21
18.1522
  0
LINE
  8
0
 10
70.2346
 20
18.1522
 11
70.0572
 21
18.2361
  0
LINE
  8
0
 10
70.0572
 20
18.2361
 11
69.8889
 21
18.3371
  0
LINE
  8
0
 10
69.8889
 20
18.3371
 11
69.7312
 21
18.454
  0
LINE
  8
0
 10
69.7312
 20
18.454
 11
69.5858
 21
18.5858
  0
LINE
  8
0
 10
69.5858
 20
18.5858
 11
69.454
 21
18.7312
  0
LINE
  8
0
 10
69.454
 20
18.7312
 11
69.3371
 21
18.8889
  0
LINE
  8
0
 10
69.3371
 20
18.8889
 11
69.2361
 21
19.0572
  0
LINE
  8
0
 10
69.2361
 20
19.0572
 11
69.1522
 21
19.2346
  0
LINE
  8
0
 10
69.1522
 20
19.2346
 11
69.0861
 21
19.4194
  0
LINE
  8
0
 10
69.0861
 20
19.4194
 11
69.0384
 21
19.6098
  0
LINE
  8
0
 10
69.0384
 20
19.6098
 11
69.0096
 21
19.804
  0
LINE
  8
0
 10
69.0096
 20
19.804
 11
69
 21
20
  0
LINE
  8
0
 10
69
 20
20
 11
69.0096
 21
20.196
  0
LINE
  8
0
 10
69.0096
 20
20.196
 11
69.0384
 21
20.3902
  0
LINE
  8
0
 10
69.0384
 20
20.3902
 11
69.0861
 21
20.5806
  0
LINE
  8
0
 10
69.0861
 20
20.5806
 11
69.1522
 21
20.7654
  0
LINE
  8
0
 10
69.1522
 20
20.7654
 11
69.2361
 21
20.9428
  0
LINE
  8
0
 10
69.2361
 20
20.9428
 11
69.3371
 21
21.1111
  0
LINE
  8
0
 10
69.3371
 20
21.1111
 11
69.454
 21
21.2688
  0
LINE
  8
0
 10
69.454
 20
21.2688
 11
69.5858
 21
21.4142
  0
LINE
  8
0
 10
69.5858
 20
21.4142
 11
69.7312
 21
21.546
  0
LINE
  8
0
 10
69.7312
 20
21.546
 11
69.8889
 21
21.6629
  0
LINE
  8
0
 10
69.8889
 20
21.6629
 11
70.0572
 21
21.7638
  0
LINE
  8
0
 10
70.0572
 20
21.7638
 11
70.2346
 21
21.8477
  0
LINE
  8
0
 10
70.2346
 20
21.8477
 11
70.4194
 21
21.9139
  0
LINE
  8
0
 10
70.4194
 20
21.9139
 11
70.6098
 21
21.9616
  0
LINE
  8
0
 10
70.6098
 20
21.9616
 11
70.804
 21
21.9904
  0
LINE
  8
0
 10
70.804
 20
21.9904
 11
71
 21
22
  0
LINE
  8
0
 10
71
 20
22
 11
71.196
 21
21.9904
  0
LINE
  8
0
 10
71.196
 20
21.9904
 11
71.3902
 21
21.9616
  0
LINE
  8
0
 10
71.3902
 20
21.9616
 11
71.5806
 21
21.9139
  0
LINE
  8
0
 10
71.5806
 20
21.9139
 11
71.7654
 21
21.8477
  0
LINE
  8
0
 10
71.7654
 20
21.8477
 11
71.9428
 21
21.7638
  0
LINE
  8
0
 10
71.9428
 20
21.7638
 11
72.1111
 21
21.6629
  0
LINE
  8
0
 10
72.1111
 20
21.6629
 11
72.2688
 21
21.546
  0
LINE
  8
0
 10
72.2688
 20
21.546
 11
72.4142
 21
21.4142
  0
LINE
  8
0
 10
72.4142
 20
21.4142
 11
72.546
 21
21.2688
  0
LINE
  8
0
 10
72.546
 20
21.2688
 11
72.6629
 21
21.1111
  0
LINE
  8
0
 10
72.6629
 20
21.1111
 11
72.7638
 21
20.9428
  0
LINE
  8
0
 10
72.7638
 20
20.9428
 11
72.8477
 21
20.7654
  0
LINE
  8
0
 10
72.8477
 20
20.7654
 11
72.9139
 21
20.5806
  0
LINE
  8
0
 10
72.9139
 20
20.5806
 11
72.9616
 21
20.3902
  0
LINE
  8
0
 10
72.9616
 20
20.3902
 11
72.9904
 21
20.196
  0
LINE
  8
0
 10
72.9904
 20
20.196
 11
73
 21
20
  0
LINE
  8
0
 10
73
 20
20
 11
72.9904
 21
19.804
  0
LINE
  8
0
 10
72.9904
 20
19.804
 11
72.9616
 21
19.6098
  0
LINE
  8
0
 10
72.9616
 20
19.6098
 11
72.9139
 21
19.4194
  0
LINE
  8
0
 10
72.9139
 20
19.4194
 11
72.8477
 21
19.2346
  0
LINE
  8
0
 10
72.8477
 20
19.2346
 11
72.7638
 21
19.0572
  0
LINE
  8
0
 10
72.7638
 20
19.0572
 11
72.6629
 21
18.8889
  0
LINE
  8
0
 10
72.6629
 20
18.8889
 11
72.546
 21
18.7312
  0
LINE
  8
0
 10
72.546
 20
18.7312
 11
72.4142
 21
18.5858
  0
LINE
  8
0
 10
72.4142
 20
18.5858
 11
72.2688
 21
18.454
  0
LINE
  8
0
 10
72.2688
 20
18.454
 11
72.1111
 21
18.3371
  0
LINE
  8
0
 10
72.1111
 20
18.3371
 11
71.9428
 21
18.2361
  0
LINE
  8
0
 10
71.9428
 20
18.2361
 11
71.7654
 21
18.1522
  0
LINE
  8
0
 10
71.7654
 20
18.1522
 11
71.5806
 21
18.0861
  0
LINE
  8
0
 10
71.5806
 20
18.0861
 11
71.3902
 21
18.0384
  0
LINE
  8
0
 10
71.3902
 20
18.0384
 11
71.196
 21
18.0096
  0
LINE
  8
0
 10
71.196
 20
18.0096
 11
71
 21
18
  0
LINE
  8
0
 10
71
 20
18
 11
70.804
 21
18.0096
  0
LINE
  8
0
 10
115
 20
9
 11
115
 21
14
  0
LINE
  8
0
 10
115
 20
14
 11
130
 21
14
  0
LINE
  8
0
 10
130
 20
14
 11
130
 21
9
  0
LINE
  8
0
 10
130
 20
9
 11
115
 21
9
  0
LINE
  8
0
 10
85.804
 20
5.00963
 11
85.6098
 21
5.03842
  0
LINE
  8
0
 10
85.6098
 20
5.03842
 11
85.4194
 21
5.08611
  0
LINE
  8
0
 10
85.4194
 20
5.08611
 11
85.2346
 21
5.15224
  0
LINE
  8
0
 10
85.2346
 20
5.15224
 11
85.0572
 21
5.23615
  0
LINE
  8
0
 10
85.0572
 20
5.23615
 11
84.8889
 21
5.33705
  0
LINE
  8
0
 10
84.8889
 20
5.33705
 11
84.7312
 21
5.45396
  0
LINE
  8
0
 10
84.7312
 20
5.45396
 11
84.5858
 21
5.58578
  0
LINE
  8
0
 10
84.5858
 20
5.58578
 11
84.454
 21
5.7312
  0
LINE
  8
0
 10
84.454
 20
5.7312
 11
84.3371
 21
5.88885
  0
LINE
  8
0
 10
84.3371
 20
5.88885
 11
84.2361
 21
6.05721
  0
LINE
  8
0
 10
84.2361
 20
6.05721
 11
84.1522
 21
6.23462
  0
LINE
  8
0
 10
84.1522
 20
6.23462
 11
84.0861
 21
6.41942
  0
LINE
  8
0
 10
84.0861
 20
6.41942
 11
84.0384
 21
6.60982
  0
LINE
  8
0
 10
84.0384
 20
6.60982
 11
84.0096
 21
6.80396
  0
LINE
  8
0
 10
84.0096
 20
6.80396
 11
84
 21
7
  0
LINE
  8
0
 10
84
 20
7
 11
84.0096
 21
7.19603
  0
LINE
  8
0
 10
84.0096
 20
7.19603
 11
84.0384
 21
7.39017
  0
LINE
  8
0
 10
84.0384
 20
7.39017
 11
84.0861
 21
7.58057
  0
LINE
  8
0
 10
84.0861
 20
7.58057
 11
84.1522
 21
7.76537
  0
LINE
  8
0
 10
84.1522
 20
7.76537
 11
84.2361
 21
7.94278
  0
LINE
  8
0
 10
84.2361
 20
7.94278
 11
84.3371
 21
8.11113
  0
LINE
  8
0
 10
84.3371
 20
8.11113
 11
84.454
 21
8.26878
  0
LINE
  8
0
 10
84.454
 20
8.26878
 11
84.5858
 21
8.4142
  0
LINE
  8
0
 10
84.5858
 20
8.4142
 11
84.7312
 21
8.54602
  0
LINE
  8
0
 10
84.7312
 20
8.54602
 11
84.8889
 21
8.66293
  0
LINE
  8
0
 10
84.8889
 20
8.66293
 11
85.0572
 21
8.76384
  0
LINE
  8
0
 10
85.0572
 20
8.76384
 11
85.2346
 21
8.84775
  0
LINE
  8
0
 10
85.2346
 20
8.84775
 11
85.4194
 21
8.91388
  0
LINE
  8
0
 10
85.4194
 20
8.91388
 11
85.6098
 21
8.96156
  0
LINE
  8
0
 10
85.6098
 20
8.96156
 11
85.804
 21
8.99036
  0
LINE
  8
0
 10
85.804
 20
8.99036
 11
86
 21
9
  0
LINE
  8
0
 10
86
 20
9
 11
86.196
 21
8.99036
  0
LINE
  8
0
 10
86.196
 20
8.99036
 11
86.3902
 21
8.96156
  0
LINE
  8
0
 10
86.3902
 20
8.96156
 11
86.5806
 21
8.91388
  0
LINE
  8
0
 10
86.5806
 20
8.91388
 11
86.7654
 21
8.84775
  0
LINE
  8
0
 10
86.7654
 20
8.84775
 11
86.9428
 21
8.76384
  0
LINE
  8
0
 10
86.9428
 20
8.76384
 11
87.1111
 21
8.66293
  0
LINE
  8
0
 10
87.1111
 20
8.66293
 11
87.2688
 21
8.54602
  0
LINE
  8
0
 10
87.2688
 20
8.54602
 11
87.4142
 21
8.4142
  0
LINE
  8
0
 10
87.4142
 20
8.4142
 11
87.546
 21
8.26878
  0
LINE
  8
0
 10
87.546
 20
8.26878
 11
87.6629
 21
8.11113
  0
LINE
  8
0
 10
87.6629
 20
8.11113
 11
87.7638
 21
7.94278
  0
LINE
  8
0
 10
87.7638
 20
7.94278
 11
87.8477
 21
7.76537
  0
LINE
  8
0
 10
87.8477
 20
7.76537
 11
87.9139
 21
7.58057
  0
LINE
  8
0
 10
87.9139
 20
7.58057
 11
87.9616
 21
7.39017
  0
LINE
  8
0
 10
87.9616
 20
7.39017
 11
87.9904
 21
7.19603
  0
LINE
  8
0
 10
87.9904
 20
7.19603
 11
88
 21
7
  0
LINE
  8
0
 10
88
 20
7
 11
87.9904
 21
6.80396
  0
LINE
  8
0
 10
87.9904
 20
6.80396
 11
87.9616
 21
6.60982
  0
LINE
  8
0
 10
87.9616
 20
6.60982
 11
87.9139
 21
6.41942
  0
LINE
  8
0
 10
87.9139
 20
6.41942
 11
87.8477
 21
6.23462
  0
LINE
  8
0
 10
87.8477
 20
6.23462
 11
87.7638
 21
6.05721
  0
LINE
  8
0
 10
87.7638
 20
6.05721
 11
87.6629
 21
5.88885
  0
LINE
  8
0
 10
87.6629
 20
5.88885
 11
87.546
 21
5.7312
  0
LINE
  8
0
 10
87.546
 20
5.7312
 11
87.4142
 21
5.58578
  0
LINE
  8
0
 10
87.4142
 20
5.58578
 11
87.2688
 21
5.45396
  0
LINE
  8
0
 10
87.2688
 20
5.45396
 11
87.1111
 21
5.33705
  0
LINE
  8
0
 10
87.1111
 20
5.33705
 11
86.9428
 21
5.23615
  0
LINE
  8
0
 10
86.9428
 20
5.23615
 11
86.7654
 21
5.15224
  0
LINE
  8
0
 10
86.7654
 20
5.15224
 11
86.5806
 21
5.08611
  0
LINE
  8
0
 10
86.5806
 20
5.08611
 11
86.3902
 21
5.03842
  0
LINE
  8
0
 10
86.3902
 20
5.03842
 11
86.196
 21
5.00963
  0
LINE
  8
0
 10
86.196
 20
5.00963
 11
86
 21
5
  0
LINE
  8
0
 10
86
 20
5
 11
85.804
 21
5.00963
  0
LINE
  8
0
 10
146.804
 20
5.00963
 11
146.61
 21
5.03842
  0
LINE
  8
0
 10
146.61
 20
5.03842
 11
146.419
 21
5.08611
  0
LINE
  8
0
 10
146.419
 20
5.08611
 11
146.235
 21
5.15224
  0
LINE
  8
0
 10
146.235
 20
5.15224
 11
146.057
 21
5.23615
  0
LINE
  8
0
 10
146.057
 20
5.23615
 11
145.889
 21
5.33705
  0
LINE
  8
0
 10
145.889
 20
5.33705
 11
145.731
 21
5.45396
  0
LINE
  8
0
 10
145.731
 20
5.45396
 11
145.586
 21
5.58578
  0
LINE
  8
0
 10
145.586
 20
5.58578
 11
145.454
 21
5.7312
  0
LINE
  8
0
 10
145.454
 20
5.7312
 11
145.337
 21
5.88885
  0
LINE
  8
0
 10
145.337
 20
5.88885
 11
145.236
 21
6.05721
  0
LINE
  8
0
 10
145.236
 20
6.05721
 11
145.152
 21
6.23462
  0
LINE
  8
0
 10
145.152
 20
6.23462
 11
145.086
 21
6.41942
  0
LINE
  8
0
 10
145.086
 20
6.41942
 11
145.038
 21
6.60982
  0
LINE
  8
0
 10
145.038
 20
6.60982
 11
145.01
 21
6.80396
  0
LINE
  8
0
 10
145.01
 20
6.80396
 11
145
 21
7
  0
LINE
  8
0
 10
145
 20
7
 11
145.01
 21
7.19603
  0
LINE
  8
0
 10
145.01
 20
7.19603
 11
145.038
 21
7.39017
  0
LINE
  8
0
 10
145.038
 20
7.39017
 11
145.086
 21
7.58057
  0
LINE
  8
0
 10
145.086
 20
7.58057
 11
145.152
 21
7.76537
  0
LINE
  8
0
 10
145.152
 20
7.76537
 11
145.236
 21
7.94278
  0
LINE
  8
0
 10
145.236
 20
7.94278
 11
145.337
 21
8.11113
  0
LINE
  8
0
 10
145.337
 20
8.11113
 11
145.454
 21
8.26878
  0
LINE
  8
0
 10
145.454
 20
8.26878
 11
145.586
 21
8.4142
  0
LINE
  8
0
 10
145.586
 20
8.4142
 11
145.731
 21
8.54602
  0
LINE
  8
0
 10
145.731
 20
8.54602
 11
145.889
 21
8.66293
  0
LINE
  8
0
 10
145.889
 20
8.66293
 11
146.057
 21
8.76384
  0
LINE
  8
0
 10
146.057
 20
8.76384
 11
146.235
 21
8.84775
  0
LINE
  8
0
 10
146.235
 20
8.84775
 11
146.419
 21
8.91388
  0
LINE
  8
0
 10
146.419
 20
8.91388
 11
146.61
 21
8.96156
  0
LINE
  8
0
 10
146.61
 20
8.96156
 11
146.804
 21
8.99036
  0
LINE
  8
0
 10
146.804
 20
8.99036
 11
147
 21
9
  0
LINE
  8
0
 10
147
 20
9
 11
147.196
 21
8.99036
  0
LINE
  8
0
 10
147.196
 20
8.99036
 11
147.39
 21
8.96156
  0
LINE
  8
0
 10
147.39
 20
8.96156
 11
147.581
 21
8.91388
  0
LINE
  8
0
 10
147.581
 20
8.91388
 11
147.765
 21
8.84775
  0
LINE
  8
0
 10
147.765
 20
8.84775
 11
147.943
 21
8.76384
  0
LINE
  8
0
 10
147.943
 20
8.76384
 11
148.111
 21
8.66293
  0
LINE
  8
0
 10
148.111
 20
8.66293
 11
148.269
 21
8.54602
  0
LINE
  8
0
 10
148.269
 20
8.54602
 11
148.414
 21
8.4142
  0
LINE
  8
0
 10
148.414
 20
8.4142
 11
148.546
 21
8.26878
  0
LINE
  8
0
 10
148.546
 20
8.26878
 11
148.663
 21
8.11113
  0
LINE
  8
0
 10
148.663
 20
8.11113
 11
148.764
 21
7.94278
  0
LINE
  8
0
 10
148.764
 20
7.94278
 11
148.848
 21
7.76537
  0
LINE
  8
0
 10
148.848
 20
7.76537
 11
148.914
 21
7.58057
  0
LINE
  8
0
 10
148.914
 20
7.58057
 11
148.962
 21
7.39017
  0
LINE
  8
0
 10
148.962
 20
7.39017
 11
148.99
 21
7.19603
  0
LINE
  8
0
 10
148.99
 20
7.19603
 11
149
 21
7
  0
LINE
  8
0
 10
149
 20
7
 11
148.99
 21
6.80396
  0
LINE
  8
0
 10
148.99
 20
6.80396
 11
148.962
 21
6.60982
  0
LINE
  8
0
 10
148.962
 20
6.60982
 11
148.914
 21
6.41942
  0
LINE
  8
0
 10
148.914
 20
6.41942
 11
148.848
 21
6.23462
  0
LINE
  8
0
 10
148.848
 20
6.23462
 11
148.764
 21
6.05721
  0
LINE
  8
0
 10
148.764
 20
6.05721
 11
148.663
 21
5.88885
  0
LINE
  8
0
 10
148.663
 20
5.88885
 11
148.546
 21
5.7312
  0
LINE
  8
0
 10
148.546
 20
5.7312
 11
148.414
 21
5.58578
  0
LINE
  8
0
 10
148.414
 20
5.58578
 11
148.269
 21
5.45396
  0
LINE
  8
0
 10
148.269
 20
5.45396
 11
148.111
 21
5.33705
  0
LINE
  8
0
 10
148.111
 20
5.33705
 11
147.943
 21
5.23615
  0
LINE
  8
0
 10
147.943
 20
5.23615
 11
147.765
 21
5.15224
  0
LINE
  8
0
 10
147.765
 20
5.15224
 11
147.581
 21
5.08611
  0
LINE
  8
0
 10
147.581
 20
5.08611
 11
147.39
 21
5.03842
  0
LINE
  8
0
 10
147.39
 20
5.03842
 11
147.196
 21
5.00963
  0
LINE
  8
0
 10
147.196
 20
5.00963
 11
147
 21
5
  0
LINE
  8
0
 10
147
 20
5
 11
146.804
 21
5.00963
  0
LINE
  8
0
 10
226.686
 20
0.0337219
 11
227.366
 21
0.134506
  0
LINE
  8
0
 10
227.366
 20
0.134506
 11
228.032
 21
0.301422
  0
LINE
  8
0
 10
228.032
 20
0.301422
 11
228.679
 21
0.532852
  0
LINE
  8
0
 10
228.679
 20
0.532852
 11
229.3
 21
0.826553
  0
LINE
  8
0
 10
229.3
 20
0.826553
 11
229.889
 21
1.17972
  0
LINE
  8
0
 10
229.889
 20
1.17972
 11
230.441
 21
1.58893
  0
LINE
  8
0
 10
230.441
 20
1.58893
 11
230.95
 21
2.05026
  0
LINE
  8
0
 10
230.95
 20
2.05026
 11
231.411
 21
2.55925
  0
LINE
  8
0
 10
231.411
 20
2.55925
 11
231.82
 21
3.11102
  0
LINE
  8
0
 10
231.82
 20
3.11102
 11
232.173
 21
3.70023
  0
LINE
  8
0
 10
232.173
 20
3.70023
 11
232.467
 21
4.32123
  0
LINE
  8
0
 10
232.467
 20
4.32123
 11
232.699
 21
4.96802
  0
LINE
  8
0
 10
232.699
 20
4.96802
 11
232.865
 21
5.63437
  0
LINE
  8
0
 10
232.865
 20
5.63437
 11
232.966
 21
6.31389
  0
LINE
  8
0
 10
232.966
 20
6.31389
 11
233
 21
7
  0
LINE
  8
0
 10
233
 20
7
 11
233
 21
85
  0
LINE
  8
0
 10
233
 20
85
 11
232.966
 21
85.6861
  0
LINE
  8
0
 10
232.966
 20
85.6861
 11
232.865
 21
86.3656
  0
LINE
  8
0
 10
232.865
 20
86.3656
 11
232.699
 21
87.032
  0
LINE
  8
0
 10
232.699
 20
87.032
 11
232.467
 21
87.6788
  0
LINE
  8
0
 10
232.467
 20
87.6788
 11
232.173
 21
88.2998
  0
LINE
  8
0
 10
232.173
 20
88.2998
 11
231.82
 21
88.889
  0
LINE
  8
0
 10
231.82
 20
88.889
 11
231.411
 21
89.4408
  0
LINE
  8
0
 10
231.411
 20
89.4408
 11
230.95
 21
89.9497
  0
LINE
  8
0
 10
230.95
 20
89.9497
 11
230.441
 21
90.4111
  0
LINE
  8
0
 10
230.441
 20
90.4111
 11
229.889
 21
90.8203
  0
LINE
  8
0
 10
229.889
 20
90.8203
 11
229.3
 21
91.1734
  0
LINE
  8
0
 10
229.3
 20
91.1734
 11
228.679
 21
91.4671
  0
LINE
  8
0
 10
228.679
 20
91.4671
 11
219
 21
95.6152
  0
LINE
  8
0
 10
219
 20
95.6152
 11
219
 21
203
  0
LINE
  8
0
 10
219
 20
203
 11
218.966
 21
203.686
  0
LINE
  8
0
 10
218.966
 20
203.686
 11
218.865
 21
204.366
  0
LINE
  8
0
 10
218.865
 20
204.366
 11
218.699
 21
205.032
  0
LINE
  8
0
 10
218.699
 20
205.032
 11
218.467
 21
205.679
  0
LINE
  8
0
 10
218.467
 20
205.679
 11
218.173
 21
206.3
  0
LINE
  8
0
 10
218.173
 20
206.3
 11
217.82
 21
206.889
  0
LINE
  8
0
 10
217.82
 20
206.889
 11
217.411
 21
207.441
  0
LINE
  8
0
 10
217.411
 20
207.441
 11
216.95
 21
207.95
  0
LINE
  8
0
 10
216.95
 20
207.95
 11
216.441
 21
208.411
  0
LINE
  8
0
 10
216.441
 20
208.411
 11
215.889
 21
208.82
  0
LINE
  8
0
 10
215.889
 20
208.82
 11
215.3
 21
209.173
  0
LINE
  8
0
 10
215.3
 20
209.173
 11
214.679
 21
209.467
  0
LINE
  8
0
 10
214.679
 20
209.467
 11
214.032
 21
209.699
  0
LINE
  8
0
 10
214.032
 20
209.699
 11
213.366
 21
209.865
  0
LINE
  8
0
 10
213.366
 20
209.865
 11
212.686
 21
209.966
  0
LINE
  8
0
 10
212.686
 20
209.966
 11
212
 21
210
  0
LINE
  8
0
 10
212
 20
210
 11
165
 21
210
  0
LINE
  8
0
 10
165
 20
210
 11
164.314
 21
209.966
  0
LINE
  8
0
 10
164.314
 20
209.966
 11
163.634
 21
209.865
  0
LINE
  8
0
 10
163.634
 20
209.865
 11
162.968
 21
209.699
  0
LINE
  8
0
 10
162.968
 20
209.699
 11
162.321
 21
209.467
  0
LINE
  8
0
 10
162.321
 20
209.467
 11
161.7
 21
209.173
  0
LINE
  8
0
 10
161.7
 20
209.173
 11
161.111
 21
208.82
  0
LINE
  8
0
 10
161.111
 20
208.82
 11
160.559
 21
208.411
  0
LINE
  8
0
 10
160.559
 20
208.411
 11
160.05
 21
207.95
  0
LINE
  8
0
 10
160.05
 20
207.95
 11
159.589
 21
207.441
  0
LINE
  8
0
 10
159.589
 20
207.441
 11
159.18
 21
206.889
  0
LINE
  8
0
 10
159.18
 20
206.889
 11
158.827
 21
206.3
  0
LINE
  8
0
 10
158.827
 20
206.3
 11
158.533
 21
205.679
  0
LINE
  8
0
 10
158.533
 20
205.679
 11
158.301
 21
205.032
  0
LINE
  8
0
 10
158.301
 20
205.032
 11
158.135
 21
204.366
  0
LINE
  8
0
 10
158.135
 20
204.366
 11
158.034
 21
203.686
  0
LINE
  8
0
 10
158.034
 20
203.686
 11
158
 21
203
  0
LINE
  8
0
 10
158
 20
203
 11
158
 21
7
  0
LINE
  8
0
 10
158
 20
7
 11
158.034
 21
6.31389
  0
LINE
  8
0
 10
158.034
 20
6.31389
 11
158.135
 21
5.63437
  0
LINE
  8
0
 10
158.135
 20
5.63437
 11
158.301
 21
4.96802
  0
LINE
  8
0
 10
158.301
 20
4.96802
 11
158.533
 21
4.32123
  0
LINE
  8
0
 10
158.533
 20
4.32123
 11
158.827
 21
3.70023
  0
LINE
  8
0
 10
158.827
 20
3.70023
 11
159.18
 21
3.11102
  0
LINE
  8
0
 10
159.18
 20
3.11102
 11
159.589
 21
2.55925
  0
LINE
  8
0
 10
159.589
 20
2.55925
 11
160.05
 21
2.05026
  0
LINE
  8
0
 10
160.05
 20
2.05026
 11
160.559
 21
1.58893
  0
LINE
  8
0
 10
160.559
 20
1.58893
 11
161.111
 21
1.17972
  0
LINE
  8
0
 10
161.111
 20
1.17972
 11
161.7
 21
0.826553
  0
LINE
  8
0
 10
161.7
 20
0.826553
 11
162.321
 21
0.532852
  0
LINE
  8
0
 10
162.321
 20
0.532852
 11
162.968
 21
0.301422
  0
LINE
  8
0
 10
162.968
 20
0.301422
 11
163.634
 21
0.134506
  0
LINE
  8
0
 10
163.634
 20
0.134506
 11
164.314
 21
0.0337219
  0
LINE
  8
0
 10
164.314
 20
0.0337219
 11
165
 21
0
  0
LINE
  8
0
 10
165
 20
0
 11
226
 21
0
  0
LINE
  8
0
 10
226
 20
0
 11
226.686
 21
0.0337219
  0
LINE
  8
0
 10
164.804
 20
201.01
 11
164.61
 21
201.038
  0
LINE
  8
0
 10
164.61
 20
201.038
 11
164.419
 21
201.086
  0
LINE
  8
0
 10
164.419
 20
201.086
 11
164.235
 21
201.152
  0
LINE
  8
0
 10
164.235
 20
201.152
 11
164.057
 21
201.236
  0
LINE
  8
0
 10
164.057
 20
201.236
 11
163.889
 21
201.337
  0
LINE
  8
0
 10
163.889
 20
201.337
 11
163.731
 21
201.454
  0
LINE
  8
0
 10
163.731
 20
201.454
 11
163.586
 21
201.586
  0
LINE
  8
0
 10
163.586
 20
201.586
 11
163.454
 21
201.731
  0
LINE
  8
0
 10
163.454
 20
201.731
 11
163.337
 21
201.889
  0
LINE
  8
0
 10
163.337
 20
201.889
 11
163.236
 21
202.057
  0
LINE
  8
0
 10
163.236
 20
202.057
 11
163.152
 21
202.235
  0
LINE
  8
0
 10
163.152
 20
202.235
 11
163.086
 21
202.419
  0
LINE
  8
0
 10
163.086
 20
202.419
 11
163.038
 21
202.61
  0
LINE
  8
0
 10
163.038
 20
202.61
 11
163.01
 21
202.804
  0
LINE
  8
0
 10
163.01
 20
202.804
 11
163
 21
203
  0
LINE
  8
0
 10
163
 20
203
 11
163.01
 21
203.196
  0
LINE
  8
0
 10
163.01
 20
203.196
 11
163.038
 21
203.39
  0
LINE
  8
0
 10
163.038
 20
203.39
 11
163.086
 21
203.581
  0
LINE
  8
0
 10
163.086
 20
203.581
 11
163.152
 21
203.765
  0
LINE
  8
0
 10
163.152
 20
203.765
 11
163.236
 21
203.943
  0
LINE
  8
0
 10
163.236
 20
203.943
 11
163.337
 21
204.111
  0
LINE
  8
0
 10
163.337
 20
204.111
 11
163.454
 21
204.269
  0
LINE
  8
0
 10
163.454
 20
204.269
 11
163.586
 21
204.414
  0
LINE
  8
0
 10
163.586
 20
204.414
 11
163.731
 21
204.546
  0
LINE
  8
0
 10
163.731
 20
204.546
 11
163.889
 21
204.663
  0
LINE
  8
0
 10
163.889
 20
204.663
 11
164.057
 21
204.764
  0
LINE
  8
0
 10
164.057
 20
204.764
 11
164.235
 21
204.848
  0
LINE
  8
0
 10
164.235
 20
204.848
 11
164.419
 21
204.914
  0
LINE
  8
0
 10
164.419
 20
204.914
 11
164.61
 21
204.962
  0
LINE
  8
0
 10
164.61
 20
204.962
 11
164.804
 21
204.99
  0
LINE
  8
0
 10
164.804
 20
204.99
 11
165
 21
205
  0
LINE
  8
0
 10
165
 20
205
 11
165.196
 21
204.99
  0
LINE
  8
0
 10
165.196
 20
204.99
 11
165.39
 21
204.962
  0
LINE
  8
0
 10
165.39
 20
204.962
 11
165.581
 21
204.914
  0
LINE
  8
0
 10
165.581
 20
204.914
 11
165.765
 21
204.848
  0
LINE
  8
0
 10
165.765
 20
204.848
 11
165.943
 21
204.764
  0
LINE
  8
0
 10
165.943
 20
204.764
 11
166.111
 21
204.663
  0
LINE
  8
0
 10
166.111
 20
204.663
 11
166.269
 21
204.546
  0
LINE
  8
0
 10
166.269
 20
204.546
 11
166.414
 21
204.414
  0
LINE
  8
0
 10
166.414
 20
204.414
 11
166.546
 21
204.269
  0
LINE
  8
0
 10
166.546
 20
204.269
 11
166.663
 21
204.111
  0
LINE
  8
0
 10
166.663
 20
204.111
 11
166.764
 21
203.943
  0
LINE
  8
0
 10
166.764
 20
203.943
 11
166.848
 21
203.765
  0
LINE
  8
0
 10
166.848
 20
203.765
 11
166.914
 21
203.581
  0
LINE
  8
0
 10
166.914
 20
203.581
 11
166.962
 21
203.39
  0
LINE
  8
0
 10
166.962
 20
203.39
 11
166.99
 21
203.196
  0
LINE
  8
0
 10
166.99
 20
203.196
 11
167
 21
203
  0
LINE
  8
0
 10
167
 20
203
 11
166.99
 21
202.804
  0
LINE
  8
0
 10
166.99
 20
202.804
 11
166.962
 21
202.61
  0
LINE
  8
0
 10
166.962
 20
202.61
 11
166.914
 21
202.419
  0
LINE
  8
0
 10
166.914
 20
202.419
 11
166.848
 21
202.235
  0
LINE
  8
0
 10
166.848
 20
202.235
 11
166.764
 21
202.057
  0
LINE
  8
0
 10
166.764
 20
202.057
 11
166.663
 21
201.889
  0
LINE
  8
0
 10
166.663
 20
201.889
 11
166.546
 21
201.731
  0
LINE
  8
0
 10
166.546
 20
201.731
 11
166.414
 21
201.586
  0
LINE
  8
0
 10
166.414
 20
201.586
 11
166.269
 21
201.454
  0
LINE
  8
0
 10
166.269
 20
201.454
 11
166.111
 21
201.337
  0
LINE
  8
0
 10
166.111
 20
201.337
 11
165.943
 21
201.236
  0
LINE
  8
0
 10
165.943
 20
201.236
 11
165.765
 21
201.152
  0
LINE
  8
0
 10
165.765
 20
201.152
 11
165.581
 21
201.086
  0
LINE
  8
0
 10
165.581
 20
201.086
 11
165.39
 21
201.038
  0
LINE
  8
0
 10
165.39
 20
201.038
 11
165.196
 21
201.01
  0
LINE
  8
0
 10
165.196
 20
201.01
 11
165
 21
201
  0
LINE
  8
0
 10
165
 20
201
 11
164.804
 21
201.01
  0
LINE
  8
0
 10
211.804
 20
201.01
 11
211.61
 21
201.038
  0
LINE
  8
0
 10
211.61
 20
201.038
 11
211.419
 21
201.086
  0
LINE
  8
0
 10
211.419
 20
201.086
 11
211.235
 21
201.152
  0
LINE
  8
0
 10
211.235
 20
201.152
 11
211.057
 21
201.236
  0
LINE
  8
0
 10
211.057
 20
201.236
 11
210.889
 21
201.337
  0
LINE
  8
0
 10
210.889
 20
201.337
 11
210.731
 21
201.454
  0
LINE
  8
0
 10
210.731
 20
201.454
 11
210.586
 21
201.586
  0
LINE
  8
0
 10
210.586
 20
201.586
 11
210.454
 21
201.731
  0
LINE
  8
0
 10
210.454
 20
201.731
 11
210.337
 21
201.889
  0
LINE
  8
0
 10
210.337
 20
201.889
 11
210.236
 21
202.057
  0
LINE
  8
0
 10
210.236
 20
202.057
 11
210.152
 21
202.235
  0
LINE
  8
0
 10
210.152
 20
202.235
 11
210.086
 21
202.419
  0
LINE
  8
0
 10
210.086
 20
202.419
 11
210.038
 21
202.61
  0
LINE
  8
0
 10
210.038
 20
202.61
 11
210.01
 21
202.804
  0
LINE
  8
0
 10
210.01
 20
202.804
 11
210
 21
203
  0
LINE
  8
0
 10
210
 20
203
 11
210.01
 21
203.196
  0
LINE
  8
0
 10
210.01
 20
203.196
 11
210.038
 21
203.39
  0
LINE
  8
0
 10
210.038
 20
203.39
 11
210.086
 21
203.581
  0
LINE
  8
0
 10
210.086
 20
203.581
 11
210.152
 21
203.765
  0
LINE
  8
0
 10
210.152
 20
203.765
 11
210.236
 21
203.943
  0
LINE
  8
0
 10
210.236
 20
203.943
 11
210.337
 21
204.111
  0
LINE
  8
0
 10
210.337
 20
204.111
 11
210.454
 21
204.269
  0
LINE
  8
0
 10
210.454
 20
204.269
 11
210.586
 21
204.414
  0
LINE
  8
0
 10
210.586
 20
204.414
 11
210.731
 21
204.546
  0
LINE
  8
0
 10
210.731
 20
204.546
 11
210.889
 21
204.663
  0
LINE
  8
0
 10
210.889
 20
204.663
 11
211.057
 21
204.764
  0
LINE
  8
0
 10
211.057
 20
204.764
 11
211.235
 21
204.848
  0
LINE
  8
0
 10
211.235
 20
204.848
 11
211.419
 21
204.914
  0
LINE
  8
0
 10
211.419
 20
204.914
 11
211.61
 21
204.962
  0
LINE
  8
0
 10
211.61
 20
204.962
 11
211.804
 21
204.99
  0
LINE
  8
0
 10
211.804
 20
204.99
 11
212
 21
205
  0
LINE
  8
0
 10
212
 20
205
 11
212.196
 21
204.99
  0
LINE
  8
0
 10
212.196
 20
204.99
 11
212.39
 21
204.962
  0
LINE
  8
0
 10
212.39
 20
204.962
 11
212.581
 21
204.914
  0
LINE
  8
0
 10
212.581
 20
204.914
 11
212.765
 21
204.848
  0
LINE
  8
0
 10
212.765
 20
204.848
 11
212.943
 21
204.764
  0
LINE
  8
0
 10
212.943
 20
204.764
 11
213.111
 21
204.663
  0
LINE
  8
0
 10
213.111
 20
204.663
 11
213.269
 21
204.546
  0
LINE
  8
0
 10
213.269
 20
204.546
 11
213.414
 21
204.414
  0
LINE
  8
0
 10
213.414
 20
204.414
 11
213.546
 21
204.269
  0
LINE
  8
0
 10
213.546
 20
204.269
 11
213.663
 21
204.111
  0
LINE
  8
0
 10
213.663
 20
204.111
 11
213.764
 21
203.943
  0
LINE
  8
0
 10
213.764
 20
203.943
 11
213.848
 21
203.765
  0
LINE
  8
0
 10
213.848
 20
203.765
 11
213.914
 21
203.581
  0
LINE
  8
0
 10
213.914
 20
203.581
 11
213.962
 21
203.39
  0
LINE
  8
0
 10
213.962
 20
203.39
 11
213.99
 21
203.196
  0
LINE
  8
0
 10
213.99
 20
203.196
 11
214
 21
203
  0
LINE
  8
0
 10
214
 20
203
 11
213.99
 21
202.804
  0
LINE
  8
0
 10
213.99
 20
202.804
 11
213.962
 21
202.61
  0
LINE
  8
0
 10
213.962
 20
202.61
 11
213.914
 21
202.419
  0
LINE
  8
0
 10
213.914
 20
202.419
 11
213.848
 21
202.235
  0
LINE
  8
0
 10
213.848
 20
202.235
 11
213.764
 21
202.057
  0
LINE
  8
0
 10
213.764
 20
202.057
 11
213.663
 21
201.889
  0
LINE
  8
0
 10
213.663
 20
201.889
 11
213.546
 21
201.731
  0
LINE
  8
0
 10
213.546
 20
201.731
 11
213.414
 21
201.586
  0
LINE
  8
0
 10
213.414
 20
201.586
 11
213.269
 21
201.454
  0
LINE
  8
0
 10
213.269
 20
201.454
 11
213.111
 21
201.337
  0
LINE
  8
0
 10
213.111
 20
201.337
 11
212.943
 21
201.236
  0
LINE
  8
0
 10
212.943
 20
201.236
 11
212.765
 21
201.152
  0
LINE
  8
0
 10
212.765
 20
201.152
 11
212.581
 21
201.086
  0
LINE
  8
0
 10
212.581
 20
201.086
 11
212.39
 21
201.038
  0
LINE
  8
0
 10
212.39
 20
201.038
 11
212.196
 21
201.01
  0
LINE
  8
0
 10
212.196
 20
201.01
 11
212
 21
201
  0
LINE
  8
0
 10
212
 20
201
 11
211.804
 21
201.01
  0
LINE
  8
0
 10
187
 20
196
 11
187
 21
201
  0
LINE
  8
0
 10
187
 20
201
 11
204
 21
201
  0
LINE
  8
0
 10
204
 20
201
 11
204
 21
196
  0
LINE
  8
0
 10
204
 20
196
 11
187
 21
196
  0
LINE
  8
0
 10
167
 20
162
 11
167
 21
179
  0
LINE
  8
0
 10
167
 20
179
 11
172
 21
179
  0
LINE
  8
0
 10
172
 20
179
 11
172
 21
162
  0
LINE
  8
0
 10
172
 20
162
 11
167
 21
162
  0
LINE
  8
0
 10
167
 20
129
 11
167
 21
146
  0
LINE
  8
0
 10
167
 20
146
 11
172
 21
146
  0
LINE
  8
0
 10
172
 20
146
 11
172
 21
129
  0
LINE
  8
0
 10
172
 20
129
 11
167
 21
129
  0
LINE
  8
0
 10
167
 20
94
 11
167
 21
111
  0
LINE
  8
0
 10
167
 20
111
 11
172
 21
111
  0
LINE
  8
0
 10
172
 20
111
 11
172
 21
94
  0
LINE
  8
0
 10
172
 20
94
 11
167
 21
94
  0
LINE
  8
0
 10
180.608
 20
99.0193
 11
180.22
 21
99.0769
  0
LINE
  8
0
 10
180.22
 20
99.0769
 11
179.839
 21
99.1722
  0
LINE
  8
0
 10
179.839
 20
99.1722
 11
179.469
 21
99.3045
  0
LINE
  8
0
 10
179.469
 20
99.3045
 11
179.114
 21
99.4723
  0
LINE
  8
0
 10
179.114
 20
99.4723
 11
178.778
 21
99.6741
  0
LINE
  8
0
 10
178.778
 20
99.6741
 11
178.462
 21
99.9079
  0
LINE
  8
0
 10
178.462
 20
99.9079
 11
178.172
 21
100.172
  0
LINE
  8
0
 10
178.172
 20
100.172
 11
177.908
 21
100.462
  0
LINE
  8
0
 10
177.908
 20
100.462
 11
177.674
 21
100.778
  0
LINE
  8
0
 10
177.674
 20
100.778
 11
177.472
 21
101.114
  0
LINE
  8
0
 10
177.472
 20
101.114
 11
177.304
 21
101.469
  0
LINE
  8
0
 10
177.304
 20
101.469
 11
177.172
 21
101.839
  0
LINE
  8
0
 10
177.172
 20
101.839
 11
177.077
 21
102.22
  0
LINE
  8
0
 10
177.077
 20
102.22
 11
177.019
 21
102.608
  0
LINE
  8
0
 10
177.019
 20
102.608
 11
177
 21
103
  0
LINE
  8
0
 10
177
 20
103
 11
177.019
 21
103.392
  0
LINE
  8
0
 10
177.019
 20
103.392
 11
177.077
 21
103.78
  0
LINE
  8
0
 10
177.077
 20
103.78
 11
177.172
 21
104.161
  0
LINE
  8
0
 10
177.172
 20
104.161
 11
177.304
 21
104.531
  0
LINE
  8
0
 10
177.304
 20
104.531
 11
177.472
 21
104.886
  0
LINE
  8
0
 10
177.472
 20
104.886
 11
177.674
 21
105.222
  0
LINE
  8
0
 10
177.674
 20
105.222
 11
177.908
 21
105.538
  0
LINE
  8
0
 10
177.908
 20
105.538
 11
178.172
 21
105.828
  0
LINE
  8
0
 10
178.172
 20
105.828
 11
178.462
 21
106.092
  0
LINE
  8
0
 10
178.462
 20
106.092
 11
178.778
 21
106.326
  0
LINE
  8
0
 10
178.778
 20
106.326
 11
179.114
 21
106.528
  0
LINE
  8
0
 10
179.114
 20
106.528
 11
179.469
 21
106.696
  0
LINE
  8
0
 10
179.469
 20
106.696
 11
179.839
 21
106.828
  0
LINE
  8
0
 10
179.839
 20
106.828
 11
180.22
 21
106.923
  0
LINE
  8
0
 10
180.22
 20
106.923
 11
180.608
 21
106.981
  0
LINE
  8
0
 10
180.608
 20
106.981
 11
181
 21
107
  0
LINE
  8
0
 10
181
 20
107
 11
181.392
 21
106.981
  0
LINE
  8
0
 10
181.392
 20
106.981
 11
181.78
 21
106.923
  0
LINE
  8
0
 10
181.78
 20
106.923
 11
182.161
 21
106.828
  0
LINE
  8
0
 10
182.161
 20
106.828
 11
182.531
 21
106.696
  0
LINE
  8
0
 10
182.531
 20
106.696
 11
182.886
 21
106.528
  0
LINE
  8
0
 10
182.886
 20
106.528
 11
183.222
 21
106.326
  0
LINE
  8
0
 10
183.222
 20
106.326
 11
183.538
 21
106.092
  0
LINE
  8
0
 10
183.538
 20
106.092
 11
183.828
 21
105.828
  0
LINE
  8
0
 10
183.828
 20
105.828
 11
184.092
 21
105.538
  0
LINE
  8
0
 10
184.092
 20
105.538
 11
184.326
 21
105.222
  0
LINE
  8
0
 10
184.326
 20
105.222
 11
184.528
 21
104.886
  0
LINE
  8
0
 10
184.528
 20
104.886
 11
184.696
 21
104.531
  0
LINE
  8
0
 10
184.696
 20
104.531
 11
184.828
 21
104.161
  0
LINE
  8
0
 10
184.828
 20
104.161
 11
184.923
 21
103.78
  0
LINE
  8
0
 10
184.923
 20
103.78
 11
184.981
 21
103.392
  0
LINE
  8
0
 10
184.981
 20
103.392
 11
185
 21
103
  0
LINE
  8
0
 10
185
 20
103
 11
184.981
 21
102.608
  0
LINE
  8
0
 10
184.981
 20
102.608
 11
184.923
 21
102.22
  0
LINE
  8
0
 10
184.923
 20
102.22
 11
184.828
 21
101.839
  0
LINE
  8
0
 10
184.828
 20
101.839
 11
184.696
 21
101.469
  0
LINE
  8
0
 10
184.696
 20
101.469
 11
184.528
 21
101.114
  0
LINE
  8
0
 10
184.528
 20
101.114
 11
184.326
 21
100.778
  0
LINE
  8
0
 10
184.326
 20
100.778
 11
184.092
 21
100.462
  0
LINE
  8
0
 10
184.092
 20
100.462
 11
183.828
 21
100.172
  0
LINE
  8
0
 10
183.828
 20
100.172
 11
183.538
 21
99.9079
  0
LINE
  8
0
 10
183.538
 20
99.9079
 11
183.222
 21
99.6741
  0
LINE
  8
0
 10
183.222
 20
99.6741
 11
182.886
 21
99.4723
  0
LINE
  8
0
 10
182.886
 20
99.4723
 11
182.531
 21
99.3045
  0
LINE
  8
0
 10
182.531
 20
99.3045
 11
182.161
 21
99.1722
  0
LINE
  8
0
 10
182.161
 20
99.1722
 11
181.78
 21
99.0769
  0
LINE
  8
0
 10
181.78
 20
99.0769
 11
181.392
 21
99.0193
  0
LINE
  8
0
 10
181.392
 20
99.0193
 11
181
 21
99
  0
LINE
  8
0
 10
181
 20
99
 11
180.608
 21
99.0193
  0
LINE
  8
0
 10
167
 20
60
 11
167
 21
77
  0
LINE
  8
0
 10
167
 20
77
 11
172
 21
77
  0
LINE
  8
0
 10
172
 20
77
 11
172
 21
60
  0
LINE
  8
0
 10
172
 20
60
 11
167
 21
60
  0
LINE
  8
0
 10
219
 20
29
 11
219
 21
46
  0
LINE
  8
0
 10
219
 20
46
 11
224
 21
46
  0
LINE
  8
0
 10
224
 20
46
 11
224
 21
29
  0
LINE
  8
0
 10
224
 20
29
 11
219
 21
29
  0
LINE
  8
0
 10
167
 20
26
 11
167
 21
43
  0
LINE
  8
0
 10
167
 20
43
 11
172
 21
43
  0
LINE
  8
0
 10
172
 20
43
 11
172
 21
26
  0
LINE
  8
0
 10
172
 20
26
 11
167
 21
26
  0
LINE
  8
0
 10
194
 20
9
 11
194
 21
14
  0
LINE
  8
0
 10
194
 20
14
 11
209
 21
14
  0
LINE
  8
0
 10
209
 20
14
 11
209
 21
9
  0
LINE
  8
0
 10
209
 20
9
 11
194
 21
9
  0
LINE
  8
0
 10
164.804
 20
5.00963
 11
164.61
 21
5.03842
  0
LINE
  8
0
 10
164.61
 20
5.03842
 11
164.419
 21
5.08611
  0
LINE
  8
0
 10
164.419
 20
5.08611
 11
164.235
 21
5.15224
  0
LINE
  8
0
 10
164.235
 20
5.15224
 11
164.057
 21
5.23615
  0
LINE
  8
0
 10
164.057
 20
5.23615
 11
163.889
 21
5.33705
  0
LINE
  8
0
 10
163.889
 20
5.33705
 11
163.731
 21
5.45396
  0
LINE
  8
0
 10
163.731
 20
5.45396
 11
163.586
 21
5.58578
  0
LINE
  8
0
 10
163.586
 20
5.58578
 11
163.454
 21
5.7312
  0
LINE
  8
0
 10
163.454
 20
5.7312
 11
163.337
 21
5.88885
  0
LINE
  8
0
 10
163.337
 20
5.88885
 11
163.236
 21
6.05721
  0
LINE
  8
0
 10
163.236
 20
6.05721
 11
163.152
 21
6.23462
  0
LINE
  8
0
 10
163.152
 20
6.23462
 11
163.086
 21
6.41942
  0
LINE
  8
0
 10
163.086
 20
6.41942
 11
163.038
 21
6.60982
  0
LINE
  8
0
 10
163.038
 20
6.60982
 11
163.01
 21
6.80396
  0
LINE
  8
0
 10
163.01
 20
6.80396
 11
163
 21
7
  0
LINE
  8
0
 10
163
 20
7
 11
163.01
 21
7.19603
  0
LINE
  8
0
 10
163.01
 20
7.19603
 11
163.038
 21
7.39017
  0
LINE
  8
0
 10
163.038
 20
7.39017
 11
163.086
 21
7.58057
  0
LINE
  8
0
 10
163.086
 20
7.58057
 11
163.152
 21
7.76537
  0
LINE
  8
0
 10
163.152
 20
7.76537
 11
163.236
 21
7.94278
  0
LINE
  8
0
 10
163.236
 20
7.94278
 11
163.337
 21
8.11113
  0
LINE
  8
0
 10
163.337
 20
8.11113
 11
163.454
 21
8.26878
  0
LINE
  8
0
 10
163.454
 20
8.26878
 11
163.586
 21
8.4142
  0
LINE
  8
0
 10
163.586
 20
8.4142
 11
163.731
 21
8.54602
  0
LINE
  8
0
 10
163.731
 20
8.54602
 11
163.889
 21
8.66293
  0
LINE
  8
0
 10
163.889
 20
8.66293
 11
164.057
 21
8.76384
  0
LINE
  8
0
 10
164.057
 20
8.76384
 11
164.235
 21
8.84775
  0
LINE
  8
0
 10
164.235
 20
8.84775
 11
164.419
 21
8.91388
  0
LINE
  8
0
 10
164.419
 20
8.91388
 11
164.61
 21
8.96156
  0
LINE
  8
0
 10
164.61
 20
8.96156
 11
164.804
 21
8.99036
  0
LINE
  8
0
 10
164.804
 20
8.99036
 11
165
 21
9
  0
LINE
  8
0
 10
165
 20
9
 11
165.196
 21
8.99036
  0
LINE
  8
0
 10
165.196
 20
8.99036
 11
165.39
 21
8.96156
  0
LINE
  8
0
 10
165.39
 20
8.96156
 11
165.581
 21
8.91388
  0
LINE
  8
0
 10
165.581
 20
8.91388
 11
165.765
 21
8.84775
  0
LINE
  8
0
 10
165.765
 20
8.84775
 11
165.943
 21
8.76384
  0
LINE
  8
0
 10
165.943
 20
8.76384
 11
166.111
 21
8.66293
  0
LINE
  8
0
 10
166.111
 20
8.66293
 11
166.269
 21
8.54602
  0
LINE
  8
0
 10
166.269
 20
8.54602
 11
166.414
 21
8.4142
  0
LINE
  8
0
 10
166.414
 20
8.4142
 11
166.546
 21
8.26878
  0
LINE
  8
0
 10
166.546
 20
8.26878
 11
166.663
 21
8.11113
  0
LINE
  8
0
 10
166.663
 20
8.11113
 11
166.764
 21
7.94278
  0
LINE
  8
0
 10
166.764
 20
7.94278
 11
166.848
 21
7.76537
  0
LINE
  8
0
 10
166.848
 20
7.76537
 11
166.914
 21
7.58057
  0
LINE
  8
0
 10
166.914
 20
7.58057
 11
166.962
 21
7.39017
  0
LINE
  8
0
 10
166.962
 20
7.39017
 11
166.99
 21
7.19603
  0
LINE
  8
0
 10
166.99
 20
7.19603
 11
167
 21
7
  0
LINE
  8
0
 10
167
 20
7
 11
166.99
 21
6.80396
  0
LINE
  8
0
 10
166.99
 20
6.80396
 11
166.962
 21
6.60982
  0
LINE
  8
0
 10
166.962
 20
6.60982
 11
166.914
 21
6.41942
  0
LINE
  8
0
 10
166.914
 20
6.41942
 11
166.848
 21
6.23462
  0
LINE
  8
0
 10
166.848
 20
6.23462
 11
166.764
 21
6.05721
  0
LINE
  8
0
 10
166.764
 20
6.05721
 11
166.663
 21
5.88885
  0
LINE
  8
0
 10
166.663
 20
5.88885
 11
166.546
 21
5.7312
  0
LINE
  8
0
 10
166.546
 20
5.7312
 11
166.414
 21
5.58578
  0
LINE
  8
0
 10
166.414
 20
5.58578
 11
166.269
 21
5.45396
  0
LINE
  8
0
 10
166.269
 20
5.45396
 11
166.111
 21
5.33705
  0
LINE
  8
0
 10
166.111
 20
5.33705
 11
165.943
 21
5.23615
  0
LINE
  8
0
 10
165.943
 20
5.23615
 11
165.765
 21
5.15224
  0
LINE
  8
0
 10
165.765
 20
5.15224
 11
165.581
 21
5.08611
  0
LINE
  8
0
 10
165.581
 20
5.08611
 11
165.39
 21
5.03842
  0
LINE
  8
0
 10
165.39
 20
5.03842
 11
165.196
 21
5.00963
  0
LINE
  8
0
 10
165.196
 20
5.00963
 11
165
 21
5
  0
LINE
  8
0
 10
165
 20
5
 11
164.804
 21
5.00963
  0
LINE
  8
0
 10
225.804
 20
5.00963
 11
225.61
 21
5.03842
  0
LINE
  8
0
 10
225.61
 20
5.03842
 11
225.419
 21
5.08611
  0
LINE
  8
0
 10
225.419
 20
5.08611
 11
225.235
 21
5.15224
  0
LINE
  8
0
 10
225.235
 20
5.15224
 11
225.057
 21
5.23615
  0
LINE
  8
0
 10
225.057
 20
5.23615
 11
224.889
 21
5.33705
  0
LINE
  8
0
 10
224.889
 20
5.33705
 11
224.731
 21
5.45396
  0
LINE
  8
0
 10
224.731
 20
5.45396
 11
224.586
 21
5.58578
  0
LINE
  8
0
 10
224.586
 20
5.58578
 11
224.454
 21
5.7312
  0
LINE
  8
0
 10
224.454
 20
5.7312
 11
224.337
 21
5.88885
  0
LINE
  8
0
 10
224.337
 20
5.88885
 11
224.236
 21
6.05721
  0
LINE
  8
0
 10
224.236
 20
6.05721
 11
224.152
 21
6.23462
  0
LINE
  8
0
 10
224.152
 20
6.23462
 11
224.086
 21
6.41942
  0
LINE
  8
0
 10
224.086
 20
6.41942
 11
224.038
 21
6.60982
  0
LINE
  8
0
 10
224.038
 20
6.60982
 11
224.01
 21
6.80396
  0
LINE
  8
0
 10
224.01
 20
6.80396
 11
224
 21
7
  0
LINE
  8
0
 10
224
 20
7
 11
224.01
 21
7.19603
  0
LINE
  8
0
 10
224.01
 20
7.19603
 11
224.038
 21
7.39017
  0
LINE
  8
0
 10
224.038
 20
7.39017
 11
224.086
 21
7.58057
  0
LINE
  8
0
 10
224.086
 20
7.58057
 11
224.152
 21
7.76537
  0
LINE
  8
0
 10
224.152
 20
7.76537
 11
224.236
 21
7.94278
  0
LINE
  8
0
 10
224.236
 20
7.94278
 11
224.337
 21
8.11113
  0
LINE
  8
0
 10
224.337
 20
8.11113
 11
224.454
 21
8.26878
  0
LINE
  8
0
 10
224.454
 20
8.26878
 11
224.586
 21
8.4142
  0
LINE
  8
0
 10
224.586
 20
8.4142
 11
224.731
 21
8.54602
  0
LINE
  8
0
 10
224.731
 20
8.54602
 11
224.889
 21
8.66293
  0
LINE
  8
0
 10
224.889
 20
8.66293
 11
225.057
 21
8.76384
  0
LINE
  8
0
 10
225.057
 20
8.76384
 11
225.235
 21
8.84775
  0
LINE
  8
0
 10
225.235
 20
8.84775
 11
225.419
 21
8.91388
  0
LINE
  8
0
 10
225.419
 20
8.91388
 11
225.61
 21
8.96156
  0
LINE
  8
0
 10
225.61
 20
8.96156
 11
225.804
 21
8.99036
  0
LINE
  8
0
 10
225.804
 20
8.99036
 11
226
 21
9
  0
LINE
  8
0
 10
226
 20
9
 11
226.196
 21
8.99036
  0
LINE
  8
0
 10
226.196
 20
8.99036
 11
226.39
 21
8.96156
  0
LINE
  8
0
 10
226.39
 20
8.96156
 11
226.581
 21
8.91388
  0
LINE
  8
0
 10
226.581
 20
8.91388
 11
226.765
 21
8.84775
  0
LINE
  8
0
 10
226.765
 20
8.84775
 11
226.943
 21
8.76384
  0
LINE
  8
0
 10
226.943
 20
8.76384
 11
227.111
 21
8.66293
  0
LINE
  8
0
 10
227.111
 20
8.66293
 11
227.269
 21
8.54602
  0
LINE
  8
0
 10
227.269
 20
8.54602
 11
227.414
 21
8.4142
  0
LINE
  8
0
 10
227.414
 20
8.4142
 11
227.546
 21
8.26878
  0
LINE
  8
0
 10
227.546
 20
8.26878
 11
227.663
 21
8.11113
  0
LINE
  8
0
 10
227.663
 20
8.11113
 11
227.764
 21
7.94278
  0
LINE
  8
0
 10
227.764
 20
7.94278
 11
227.848
 21
7.76537
  0
LINE
  8
0
 10
227.848
 20
7.76537
 11
227.914
 21
7.58057
  0
LINE
  8
0
 10
227.914
 20
7.58057
 11
227.962
 21
7.39017
  0
LINE
  8
0
 10
227.962
 20
7.39017
 11
227.99
 21
7.19603
  0
LINE
  8
0
 10
227.99
 20
7.19603
 11
228
 21
7
  0
LINE
  8
0
 10
228
 20
7
 11
227.99
 21
6.80396
  0
LINE
  8
0
 10
227.99
 20
6.80396
 11
227.962
 21
6.60982
  0
LINE
  8
0
 10
227.962
 20
6.60982
 11
227.914
 21
6.41942
  0
LINE
  8
0
 10
227.914
 20
6.41942
 11
227.848
 21
6.23462
  0
LINE
  8
0
 10
227.848
 20
6.23462
 11
227.764
 21
6.05721
  0
LINE
  8
0
 10
227.764
 20
6.05721
 11
227.663
 21
5.88885
  0
LINE
  8
0
 10
227.663
 20
5.88885
 11
227.546
 21
5.7312
  0
LINE
  8
0
 10
227.546
 20
5.7312
 11
227.414
 21
5.58578
  0
LINE
  8
0
 10
227.414
 20
5.58578
 11
227.269
 21
5.45396
  0
LINE
  8
0
 10
227.269
 20
5.45396
 11
227.111
 21
5.33705
  0
LINE
  8
0
 10
227.111
 20
5.33705
 11
226.943
 21
5.23615
  0
LINE
  8
0
 10
226.943
 20
5.23615
 11
226.765
 21
5.15224
  0
LINE
  8
0
 10
226.765
 20
5.15224
 11
226.581
 21
5.08611
  0
LINE
  8
0
 10
226.581
 20
5.08611
 11
226.39
 21
5.03842
  0
LINE
  8
0
 10
226.39
 20
5.03842
 11
226.196
 21
5.00963
  0
LINE
  8
0
 10
226.196
 20
5.00963
 11
226
 21
5
  0
LINE
  8
0
 10
226
 20
5
 11
225.804
 21
5.00963
  0
LINE
  8
0
 10
310
 20
17
 11
315
 21
17
  0
LINE
  8
0
 10
315
 20
17
 11
315
 21
34
  0
LINE
  8
0
 10
315
 20
34
 11
310
 21
34
  0
LINE
  8
0
 10
310
 20
34
 11
310
 21
51
  0
LINE
  8
0
 10
310
 20
51
 11
315
 21
51
  0
LINE
  8
0
 10
315
 20
51
 11
315
 21
68
  0
LINE
  8
0
 10
315
 20
68
 11
310
 21
68
  0
LINE
  8
0
 10
310
 20
68
 11
310
 21
85
  0
LINE
  8
0
 10
310
 20
85
 11
315
 21
85
  0
LINE
  8
0
 10
315
 20
85
 11
315
 21
102
  0
LINE
  8
0
 10
315
 20
102
 11
310
 21
102
  0
LINE
  8
0
 10
310
 20
102
 11
310
 21
119
  0
LINE
  8
0
 10
310
 20
119
 11
315
 21
119
  0
LINE
  8
0
 10
315
 20
119
 11
315
 21
136
  0
LINE
  8
0
 10
315
 20
136
 11
310
 21
136
  0
LINE
  8
0
 10
310
 20
136
 11
310
 21
153
  0
LINE
  8
0
 10
310
 20
153
 11
315
 21
153
  0
LINE
  8
0
 10
315
 20
153
 11
315
 21
170
  0
LINE
  8
0
 10
315
 20
170
 11
310
 21
170
  0
LINE
  8
0
 10
310
 20
170
 11
310
 21
187
  0
LINE
  8
0
 10
310
 20
187
 11
300
 21
187
  0
LINE
  8
0
 10
300
 20
187
 11
300
 21
192
  0
LINE
  8
0
 10
300
 20
192
 11
293
 21
192
  0
LINE
  8
0
 10
293
 20
192
 11
293
 21
187
  0
LINE
  8
0
 10
293
 20
187
 11
283
 21
187
  0
LINE
  8
0
 10
283
 20
187
 11
283
 21
170
  0
LINE
  8
0
 10
283
 20
170
 11
278
 21
170
  0
LINE
  8
0
 10
278
 20
170
 11
278
 21
153
  0
LINE
  8
0
 10
278
 20
153
 11
283
 21
153
  0
LINE
  8
0
 10
283
 20
153
 11
283
 21
136
  0
LINE
  8
0
 10
283
 20
136
 11
278
 21
136
  0
LINE
  8
0
 10
278
 20
136
 11
278
 21
119
  0
LINE
  8
0
 10
278
 20
119
 11
283
 21
119
  0
LINE
  8
0
 10
283
 20
119
 11
283
 21
102
  0
LINE
  8
0
 10
283
 20
102
 11
278
 21
102
  0
LINE
  8
0
 10
278
 20
102
 11
278
 21
85
  0
LINE
  8
0
 10
278
 20
85
 11
283
 21
85
  0
LINE
  8
0
 10
283
 20
85
 11
283
 21
68
  0
LINE
  8
0
 10
283
 20
68
 11
278
 21
68
  0
LINE
  8
0
 10
278
 20
68
 11
278
 21
51
  0
LINE
  8
0
 10
278
 20
51
 11
283
 21
51
  0
LINE
  8
0
 10
283
 20
51
 11
283
 21
34
  0
LINE
  8
0
 10
283
 20
34
 11
278
 21
34
  0
LINE
  8
0
 10
278
 20
34
 11
278
 21
17
  0
LINE
  8
0
 10
278
 20
17
 11
283
 21
17
  0
LINE
  8
0
 10
283
 20
17
 11
283
 21
0
  0
LINE
  8
0
 10
283
 20
0
 11
310
 21
0
  0
LINE
  8
0
 10
310
 20
0
 11
310
 21
17
  0
LINE
  8
0
 10
251
 20
125
 11
258
 21
125
  0
LINE
  8
0
 10
258
 20
125
 11
258
 21
120
  0
LINE
  8
0
 10
258
 20
120
 11
268
 21
120
  0
LINE
  8
0
 10
268
 20
120
 11
268
 21
140
  0
LINE
  8
0
 10
268
 20
140
 11
273
 21
140
  0
LINE
  8
0
 10
273
 20
140
 11
273
 21
157
  0
LINE
  8
0
 10
273
 20
157
 11
268
 21
157
  0
LINE
  8
0
 10
268
 20
157
 11
268
 21
172
  0
LINE
  8
0
 10
268
 20
172
 11
241
 21
172
  0
LINE
  8
0
 10
241
 20
172
 11
241
 21
157
  0
LINE
  8
0
 10
241
 20
157
 11
236
 21
157
  0
LINE
  8
0
 10
236
 20
157
 11
236
 21
140
  0
LINE
  8
0
 10
236
 20
140
 11
241
 21
140
  0
LINE
  8
0
 10
241
 20
140
 11
241
 21
120
  0
LINE
  8
0
 10
241
 20
120
 11
251
 21
120
  0
LINE
  8
0
 10
251
 20
120
 11
251
 21
125
  0
LINE
  8
0
 10
251
 20
55
 11
258
 21
55
  0
LINE
  8
0
 10
258
 20
55
 11
258
 21
50
  0
LINE
  8
0
 10
258
 20
50
 11
268
 21
50
  0
LINE
  8
0
 10
268
 20
50
 11
268
 21
70
  0
LINE
  8
0
 10
268
 20
70
 11
273
 21
70
  0
LINE
  8
0
 10
273
 20
70
 11
273
 21
87
  0
LINE
  8
0
 10
273
 20
87
 11
268
 21
87
  0
LINE
  8
0
 10
268
 20
87
 11
268
 21
102
  0
LINE
  8
0
 10
268
 20
102
 11
241
 21
102
  0
LINE
  8
0
 10
241
 20
102
 11
241
 21
87
  0
LINE
  8
0
 10
241
 20
87
 11
236
 21
87
  0
LINE
  8
0
 10
236
 20
87
 11
236
 21
70
  0
LINE
  8
0
 10
236
 20
70
 11
241
 21
70
  0
LINE
  8
0
 10
241
 20
70
 11
241
 21
50
  0
LINE
  8
0
 10
241
 20
50
 11
251
 21
50
  0
LINE
  8
0
 10
251
 20
50
 11
251
 21
55
  0
LINE
  8
0
 10
268
 20
10
 11
273
 21
10
  0
LINE
  8
0
 10
273
 20
10
 11
273
 21
25
  0
LINE
  8
0
 10
273
 20
25
 11
268
 21
25
  0
LINE
  8
0
 10
268
 20
25
 11
268
 21
35
  0
LINE
  8
0
 10
268
 20
35
 11
258
 21
35
  0
LINE
  8
0
 10
258
 20
35
 11
258
 21
40
  0
LINE
  8
0
 10
258
 20
40
 11
251
 21
40
  0
LINE
  8
0
 10
251
 20
40
 11
251
 21
35
  0
LINE
  8
0
 10
251
 20
35
 11
241
 21
35
  0
LINE
  8
0
 10
241
 20
35
 11
241
 21
25
  0
LINE
  8
0
 10
241
 20
25
 11
236
 21
25
  0
LINE
  8
0
 10
236
 20
25
 11
236
 21
10
  0
LINE
  8
0
 10
236
 20
10
 11
241
 21
10
  0
LINE
  8
0
 10
241
 20
10
 11
241
 21
0
  0
LINE
  8
0
 10
241
 20
0
 11
268
 21
0
  0
LINE
  8
0
 10
268
 20
0
 11
268
 21
10
  0
ENDSEC
  0
SECTION
  2
OBJECTS
  0
DICTIONARY
  0
ENDSEC
  0
EOF
