  0
SECTION
  2
BLOCKS
  0
ENDSEC
  0
SECTION
  2
ENTITIES
  0
LINE
  8
0
 10
71.6861
 20
0.0337219
 11
72.3656
 21
0.134506
  0
LINE
  8
0
 10
72.3656
 20
0.134506
 11
73.032
 21
0.301422
  0
LINE
  8
0
 10
73.032
 20
0.301422
 11
73.6788
 21
0.532852
  0
LINE
  8
0
 10
73.6788
 20
0.532852
 11
74.2998
 21
0.826553
  0
LINE
  8
0
 10
74.2998
 20
0.826553
 11
74.889
 21
1.17972
  0
LINE
  8
0
 10
74.889
 20
1.17972
 11
75.4408
 21
1.58893
  0
LINE
  8
0
 10
75.4408
 20
1.58893
 11
75.9497
 21
2.05026
  0
LINE
  8
0
 10
75.9497
 20
2.05026
 11
76.4111
 21
2.55925
  0
LINE
  8
0
 10
76.4111
 20
2.55925
 11
76.8203
 21
3.11102
  0
LINE
  8
0
 10
76.8203
 20
3.11102
 11
77.1734
 21
3.70023
  0
LINE
  8
0
 10
77.1734
 20
3.70023
 11
77.4671
 21
4.32123
  0
LINE
  8
0
 10
77.4671
 20
4.32123
 11
77.6986
 21
4.96802
  0
LINE
  8
0
 10
77.6986
 20
4.96802
 11
77.8655
 21
5.63437
  0
LINE
  8
0
 10
77.8655
 20
5.63437
 11
77.9663
 21
6.31389
  0
LINE
  8
0
 10
77.9663
 20
6.31389
 11
78
 21
7
  0
LINE
  8
0
 10
78
 20
7
 11
78
 21
74
  0
LINE
  8
0
 10
78
 20
74
 11
77.9663
 21
74.6861
  0
LINE
  8
0
 10
77.9663
 20
74.6861
 11
77.8655
 21
75.3656
  0
LINE
  8
0
 10
77.8655
 20
75.3656
 11
77.6986
 21
76.032
  0
LINE
  8
0
 10
77.6986
 20
76.032
 11
77.4671
 21
76.6788
  0
LINE
  8
0
 10
77.4671
 20
76.6788
 11
77.1734
 21
77.2998
  0
LINE
  8
0
 10
77.1734
 20
77.2998
 11
76.8203
 21
77.889
  0
LINE
  8
0
 10
76.8203
 20
77.889
 11
76.4111
 21
78.4408
  0
LINE
  8
0
 10
76.4111
 20
78.4408
 11
75.9497
 21
78.9497
  0
LINE
  8
0
 10
75.9497
 20
78.9497
 11
75.4408
 21
79.4111
  0
LINE
  8
0
 10
75.4408
 20
79.4111
 11
74.889
 21
79.8203
  0
LINE
  8
0
 10
74.889
 20
79.8203
 11
74.2998
 21
80.1734
  0
LINE
  8
0
 10
74.2998
 20
80.1734
 11
73.6788
 21
80.4671
  0
LINE
  8
0
 10
73.6788
 20
80.4671
 11
73.032
 21
80.6986
  0
LINE
  8
0
 10
73.032
 20
80.6986
 11
72.3656
 21
80.8655
  0
LINE
  8
0
 10
72.3656
 20
80.8655
 11
71.6861
 21
80.9663
  0
LINE
  8
0
 10
71.6861
 20
80.9663
 11
71
 21
81
  0
LINE
  8
0
 10
71
 20
81
 11
7
 21
81
  0
LINE
  8
0
 10
7
 20
81
 11
6.31389
 21
80.9663
  0
LINE
  8
0
 10
6.31389
 20
80.9663
 11
5.63437
 21
80.8655
  0
LINE
  8
0
 10
5.63437
 20
80.8655
 11
4.96802
 21
80.6986
  0
LINE
  8
0
 10
4.96802
 20
80.6986
 11
4.32123
 21
80.4671
  0
LINE
  8
0
 10
4.32123
 20
80.4671
 11
3.70023
 21
80.1734
  0
LINE
  8
0
 10
3.70023
 20
80.1734
 11
3.11102
 21
79.8203
  0
LINE
  8
0
 10
3.11102
 20
79.8203
 11
2.55925
 21
79.4111
  0
LINE
  8
0
 10
2.55925
 20
79.4111
 11
2.05026
 21
78.9497
  0
LINE
  8
0
 10
2.05026
 20
78.9497
 11
1.58893
 21
78.4408
  0
LINE
  8
0
 10
1.58893
 20
78.4408
 11
1.17972
 21
77.889
  0
LINE
  8
0
 10
1.17972
 20
77.889
 11
0.826553
 21
77.2998
  0
LINE
  8
0
 10
0.826553
 20
77.2998
 11
0.532852
 21
76.6788
  0
LINE
  8
0
 10
0.532852
 20
76.6788
 11
0.301422
 21
76.032
  0
LINE
  8
0
 10
0.301422
 20
76.032
 11
0.134506
 21
75.3656
  0
LINE
  8
0
 10
0.134506
 20
75.3656
 11
0.0337219
 21
74.6861
  0
LINE
  8
0
 10
0.0337219
 20
74.6861
 11
0
 21
74
  0
LINE
  8
0
 10
0
 20
74
 11
0
 21
7
  0
LINE
  8
0
 10
0
 20
7
 11
0.0337219
 21
6.31389
  0
LINE
  8
0
 10
0.0337219
 20
6.31389
 11
0.134506
 21
5.63437
  0
LINE
  8
0
 10
0.134506
 20
5.63437
 11
0.301422
 21
4.96802
  0
LINE
  8
0
 10
0.301422
 20
4.96802
 11
0.532852
 21
4.32123
  0
LINE
  8
0
 10
0.532852
 20
4.32123
 11
0.826553
 21
3.70023
  0
LINE
  8
0
 10
0.826553
 20
3.70023
 11
1.17972
 21
3.11102
  0
LINE
  8
0
 10
1.17972
 20
3.11102
 11
1.58893
 21
2.55925
  0
LINE
  8
0
 10
1.58893
 20
2.55925
 11
2.05026
 21
2.05026
  0
LINE
  8
0
 10
2.05026
 20
2.05026
 11
2.55925
 21
1.58893
  0
LINE
  8
0
 10
2.55925
 20
1.58893
 11
3.11102
 21
1.17972
  0
LINE
  8
0
 10
3.11102
 20
1.17972
 11
3.70023
 21
0.826553
  0
LINE
  8
0
 10
3.70023
 20
0.826553
 11
4.32123
 21
0.532852
  0
LINE
  8
0
 10
4.32123
 20
0.532852
 11
4.96802
 21
0.301422
  0
LINE
  8
0
 10
4.96802
 20
0.301422
 11
5.63437
 21
0.134506
  0
LINE
  8
0
 10
5.63437
 20
0.134506
 11
6.31389
 21
0.0337219
  0
LINE
  8
0
 10
6.31389
 20
0.0337219
 11
7
 21
0
  0
LINE
  8
0
 10
7
 20
0
 11
71
 21
0
  0
LINE
  8
0
 10
71
 20
0
 11
71.6861
 21
0.0337219
  0
LINE
  8
0
 10
6.80396
 20
72.0096
 11
6.60982
 21
72.0384
  0
LINE
  8
0
 10
6.60982
 20
72.0384
 11
6.41942
 21
72.0861
  0
LINE
  8
0
 10
6.41942
 20
72.0861
 11
6.23462
 21
72.1522
  0
LINE
  8
0
 10
6.23462
 20
72.1522
 11
6.05721
 21
72.2361
  0
LINE
  8
0
 10
6.05721
 20
72.2361
 11
5.88885
 21
72.3371
  0
LINE
  8
0
 10
5.88885
 20
72.3371
 11
5.7312
 21
72.454
  0
LINE
  8
0
 10
5.7312
 20
72.454
 11
5.58578
 21
72.5858
  0
LINE
  8
0
 10
5.58578
 20
72.5858
 11
5.45396
 21
72.7312
  0
LINE
  8
0
 10
5.45396
 20
72.7312
 11
5.33705
 21
72.8889
  0
LINE
  8
0
 10
5.33705
 20
72.8889
 11
5.23615
 21
73.0572
  0
LINE
  8
0
 10
5.23615
 20
73.0572
 11
5.15224
 21
73.2346
  0
LINE
  8
0
 10
5.15224
 20
73.2346
 11
5.08611
 21
73.4194
  0
LINE
  8
0
 10
5.08611
 20
73.4194
 11
5.03842
 21
73.6098
  0
LINE
  8
0
 10
5.03842
 20
73.6098
 11
5.00963
 21
73.804
  0
LINE
  8
0
 10
5.00963
 20
73.804
 11
5
 21
74
  0
LINE
  8
0
 10
5
 20
74
 11
5.00963
 21
74.196
  0
LINE
  8
0
 10
5.00963
 20
74.196
 11
5.03842
 21
74.3902
  0
LINE
  8
0
 10
5.03842
 20
74.3902
 11
5.08611
 21
74.5806
  0
LINE
  8
0
 10
5.08611
 20
74.5806
 11
5.15224
 21
74.7654
  0
LINE
  8
0
 10
5.15224
 20
74.7654
 11
5.23615
 21
74.9428
  0
LINE
  8
0
 10
5.23615
 20
74.9428
 11
5.33705
 21
75.1111
  0
LINE
  8
0
 10
5.33705
 20
75.1111
 11
5.45396
 21
75.2688
  0
LINE
  8
0
 10
5.45396
 20
75.2688
 11
5.58578
 21
75.4142
  0
LINE
  8
0
 10
5.58578
 20
75.4142
 11
5.7312
 21
75.546
  0
LINE
  8
0
 10
5.7312
 20
75.546
 11
5.88885
 21
75.6629
  0
LINE
  8
0
 10
5.88885
 20
75.6629
 11
6.05721
 21
75.7638
  0
LINE
  8
0
 10
6.05721
 20
75.7638
 11
6.23462
 21
75.8477
  0
LINE
  8
0
 10
6.23462
 20
75.8477
 11
6.41942
 21
75.9139
  0
LINE
  8
0
 10
6.41942
 20
75.9139
 11
6.60982
 21
75.9616
  0
LINE
  8
0
 10
6.60982
 20
75.9616
 11
6.80396
 21
75.9904
  0
LINE
  8
0
 10
6.80396
 20
75.9904
 11
7
 21
76
  0
LINE
  8
0
 10
7
 20
76
 11
7.19603
 21
75.9904
  0
LINE
  8
0
 10
7.19603
 20
75.9904
 11
7.39017
 21
75.9616
  0
LINE
  8
0
 10
7.39017
 20
75.9616
 11
7.58057
 21
75.9139
  0
LINE
  8
0
 10
7.58057
 20
75.9139
 11
7.76537
 21
75.8477
  0
LINE
  8
0
 10
7.76537
 20
75.8477
 11
7.94278
 21
75.7638
  0
LINE
  8
0
 10
7.94278
 20
75.7638
 11
8.11113
 21
75.6629
  0
LINE
  8
0
 10
8.11113
 20
75.6629
 11
8.26878
 21
75.546
  0
LINE
  8
0
 10
8.26878
 20
75.546
 11
8.4142
 21
75.4142
  0
LINE
  8
0
 10
8.4142
 20
75.4142
 11
8.54602
 21
75.2688
  0
LINE
  8
0
 10
8.54602
 20
75.2688
 11
8.66293
 21
75.1111
  0
LINE
  8
0
 10
8.66293
 20
75.1111
 11
8.76384
 21
74.9428
  0
LINE
  8
0
 10
8.76384
 20
74.9428
 11
8.84775
 21
74.7654
  0
LINE
  8
0
 10
8.84775
 20
74.7654
 11
8.91388
 21
74.5806
  0
LINE
  8
0
 10
8.91388
 20
74.5806
 11
8.96156
 21
74.3902
  0
LINE
  8
0
 10
8.96156
 20
74.3902
 11
8.99036
 21
74.196
  0
LINE
  8
0
 10
8.99036
 20
74.196
 11
9
 21
74
  0
LINE
  8
0
 10
9
 20
74
 11
8.99036
 21
73.804
  0
LINE
  8
0
 10
8.99036
 20
73.804
 11
8.96156
 21
73.6098
  0
LINE
  8
0
 10
8.96156
 20
73.6098
 11
8.91388
 21
73.4194
  0
LINE
  8
0
 10
8.91388
 20
73.4194
 11
8.84775
 21
73.2346
  0
LINE
  8
0
 10
8.84775
 20
73.2346
 11
8.76384
 21
73.0572
  0
LINE
  8
0
 10
8.76384
 20
73.0572
 11
8.66293
 21
72.8889
  0
LINE
  8
0
 10
8.66293
 20
72.8889
 11
8.54602
 21
72.7312
  0
LINE
  8
0
 10
8.54602
 20
72.7312
 11
8.4142
 21
72.5858
  0
LINE
  8
0
 10
8.4142
 20
72.5858
 11
8.26878
 21
72.454
  0
LINE
  8
0
 10
8.26878
 20
72.454
 11
8.11113
 21
72.3371
  0
LINE
  8
0
 10
8.11113
 20
72.3371
 11
7.94278
 21
72.2361
  0
LINE
  8
0
 10
7.94278
 20
72.2361
 11
7.76537
 21
72.1522
  0
LINE
  8
0
 10
7.76537
 20
72.1522
 11
7.58057
 21
72.0861
  0
LINE
  8
0
 10
7.58057
 20
72.0861
 11
7.39017
 21
72.0384
  0
LINE
  8
0
 10
7.39017
 20
72.0384
 11
7.19603
 21
72.0096
  0
LINE
  8
0
 10
7.19603
 20
72.0096
 11
7
 21
72
  0
LINE
  8
0
 10
7
 20
72
 11
6.80396
 21
72.0096
  0
LINE
  8
0
 10
70.804
 20
72.0096
 11
70.6098
 21
72.0384
  0
LINE
  8
0
 10
70.6098
 20
72.0384
 11
70.4194
 21
72.0861
  0
LINE
  8
0
 10
70.4194
 20
72.0861
 11
70.2346
 21
72.1522
  0
LINE
  8
0
 10
70.2346
 20
72.1522
 11
70.0572
 21
72.2361
  0
LINE
  8
0
 10
70.0572
 20
72.2361
 11
69.8889
 21
72.3371
  0
LINE
  8
0
 10
69.8889
 20
72.3371
 11
69.7312
 21
72.454
  0
LINE
  8
0
 10
69.7312
 20
72.454
 11
69.5858
 21
72.5858
  0
LINE
  8
0
 10
69.5858
 20
72.5858
 11
69.454
 21
72.7312
  0
LINE
  8
0
 10
69.454
 20
72.7312
 11
69.3371
 21
72.8889
  0
LINE
  8
0
 10
69.3371
 20
72.8889
 11
69.2361
 21
73.0572
  0
LINE
  8
0
 10
69.2361
 20
73.0572
 11
69.1522
 21
73.2346
  0
LINE
  8
0
 10
69.1522
 20
73.2346
 11
69.0861
 21
73.4194
  0
LINE
  8
0
 10
69.0861
 20
73.4194
 11
69.0384
 21
73.6098
  0
LINE
  8
0
 10
69.0384
 20
73.6098
 11
69.0096
 21
73.804
  0
LINE
  8
0
 10
69.0096
 20
73.804
 11
69
 21
74
  0
LINE
  8
0
 10
69
 20
74
 11
69.0096
 21
74.196
  0
LINE
  8
0
 10
69.0096
 20
74.196
 11
69.0384
 21
74.3902
  0
LINE
  8
0
 10
69.0384
 20
74.3902
 11
69.0861
 21
74.5806
  0
LINE
  8
0
 10
69.0861
 20
74.5806
 11
69.1522
 21
74.7654
  0
LINE
  8
0
 10
69.1522
 20
74.7654
 11
69.2361
 21
74.9428
  0
LINE
  8
0
 10
69.2361
 20
74.9428
 11
69.3371
 21
75.1111
  0
LINE
  8
0
 10
69.3371
 20
75.1111
 11
69.454
 21
75.2688
  0
LINE
  8
0
 10
69.454
 20
75.2688
 11
69.5858
 21
75.4142
  0
LINE
  8
0
 10
69.5858
 20
75.4142
 11
69.7312
 21
75.546
  0
LINE
  8
0
 10
69.7312
 20
75.546
 11
69.8889
 21
75.6629
  0
LINE
  8
0
 10
69.8889
 20
75.6629
 11
70.0572
 21
75.7638
  0
LINE
  8
0
 10
70.0572
 20
75.7638
 11
70.2346
 21
75.8477
  0
LINE
  8
0
 10
70.2346
 20
75.8477
 11
70.4194
 21
75.9139
  0
LINE
  8
0
 10
70.4194
 20
75.9139
 11
70.6098
 21
75.9616
  0
LINE
  8
0
 10
70.6098
 20
75.9616
 11
70.804
 21
75.9904
  0
LINE
  8
0
 10
70.804
 20
75.9904
 11
71
 21
76
  0
LINE
  8
0
 10
71
 20
76
 11
71.196
 21
75.9904
  0
LINE
  8
0
 10
71.196
 20
75.9904
 11
71.3902
 21
75.9616
  0
LINE
  8
0
 10
71.3902
 20
75.9616
 11
71.5806
 21
75.9139
  0
LINE
  8
0
 10
71.5806
 20
75.9139
 11
71.7654
 21
75.8477
  0
LINE
  8
0
 10
71.7654
 20
75.8477
 11
71.9428
 21
75.7638
  0
LINE
  8
0
 10
71.9428
 20
75.7638
 11
72.1111
 21
75.6629
  0
LINE
  8
0
 10
72.1111
 20
75.6629
 11
72.2688
 21
75.546
  0
LINE
  8
0
 10
72.2688
 20
75.546
 11
72.4142
 21
75.4142
  0
LINE
  8
0
 10
72.4142
 20
75.4142
 11
72.546
 21
75.2688
  0
LINE
  8
0
 10
72.546
 20
75.2688
 11
72.6629
 21
75.1111
  0
LINE
  8
0
 10
72.6629
 20
75.1111
 11
72.7638
 21
74.9428
  0
LINE
  8
0
 10
72.7638
 20
74.9428
 11
72.8477
 21
74.7654
  0
LINE
  8
0
 10
72.8477
 20
74.7654
 11
72.9139
 21
74.5806
  0
LINE
  8
0
 10
72.9139
 20
74.5806
 11
72.9616
 21
74.3902
  0
LINE
  8
0
 10
72.9616
 20
74.3902
 11
72.9904
 21
74.196
  0
LINE
  8
0
 10
72.9904
 20
74.196
 11
73
 21
74
  0
LINE
  8
0
 10
73
 20
74
 11
72.9904
 21
73.804
  0
LINE
  8
0
 10
72.9904
 20
73.804
 11
72.9616
 21
73.6098
  0
LINE
  8
0
 10
72.9616
 20
73.6098
 11
72.9139
 21
73.4194
  0
LINE
  8
0
 10
72.9139
 20
73.4194
 11
72.8477
 21
73.2346
  0
LINE
  8
0
 10
72.8477
 20
73.2346
 11
72.7638
 21
73.0572
  0
LINE
  8
0
 10
72.7638
 20
73.0572
 11
72.6629
 21
72.8889
  0
LINE
  8
0
 10
72.6629
 20
72.8889
 11
72.546
 21
72.7312
  0
LINE
  8
0
 10
72.546
 20
72.7312
 11
72.4142
 21
72.5858
  0
LINE
  8
0
 10
72.4142
 20
72.5858
 11
72.2688
 21
72.454
  0
LINE
  8
0
 10
72.2688
 20
72.454
 11
72.1111
 21
72.3371
  0
LINE
  8
0
 10
72.1111
 20
72.3371
 11
71.9428
 21
72.2361
  0
LINE
  8
0
 10
71.9428
 20
72.2361
 11
71.7654
 21
72.1522
  0
LINE
  8
0
 10
71.7654
 20
72.1522
 11
71.5806
 21
72.0861
  0
LINE
  8
0
 10
71.5806
 20
72.0861
 11
71.3902
 21
72.0384
  0
LINE
  8
0
 10
71.3902
 20
72.0384
 11
71.196
 21
72.0096
  0
LINE
  8
0
 10
71.196
 20
72.0096
 11
71
 21
72
  0
LINE
  8
0
 10
71
 20
72
 11
70.804
 21
72.0096
  0
LINE
  8
0
 10
6.80396
 20
5.00963
 11
6.60982
 21
5.03842
  0
LINE
  8
0
 10
6.60982
 20
5.03842
 11
6.41942
 21
5.08611
  0
LINE
  8
0
 10
6.41942
 20
5.08611
 11
6.23462
 21
5.15224
  0
LINE
  8
0
 10
6.23462
 20
5.15224
 11
6.05721
 21
5.23615
  0
LINE
  8
0
 10
6.05721
 20
5.23615
 11
5.88885
 21
5.33705
  0
LINE
  8
0
 10
5.88885
 20
5.33705
 11
5.7312
 21
5.45396
  0
LINE
  8
0
 10
5.7312
 20
5.45396
 11
5.58578
 21
5.58578
  0
LINE
  8
0
 10
5.58578
 20
5.58578
 11
5.45396
 21
5.7312
  0
LINE
  8
0
 10
5.45396
 20
5.7312
 11
5.33705
 21
5.88885
  0
LINE
  8
0
 10
5.33705
 20
5.88885
 11
5.23615
 21
6.05721
  0
LINE
  8
0
 10
5.23615
 20
6.05721
 11
5.15224
 21
6.23462
  0
LINE
  8
0
 10
5.15224
 20
6.23462
 11
5.08611
 21
6.41942
  0
LINE
  8
0
 10
5.08611
 20
6.41942
 11
5.03842
 21
6.60982
  0
LINE
  8
0
 10
5.03842
 20
6.60982
 11
5.00963
 21
6.80396
  0
LINE
  8
0
 10
5.00963
 20
6.80396
 11
5
 21
7
  0
LINE
  8
0
 10
5
 20
7
 11
5.00963
 21
7.19603
  0
LINE
  8
0
 10
5.00963
 20
7.19603
 11
5.03842
 21
7.39017
  0
LINE
  8
0
 10
5.03842
 20
7.39017
 11
5.08611
 21
7.58057
  0
LINE
  8
0
 10
5.08611
 20
7.58057
 11
5.15224
 21
7.76537
  0
LINE
  8
0
 10
5.15224
 20
7.76537
 11
5.23615
 21
7.94278
  0
LINE
  8
0
 10
5.23615
 20
7.94278
 11
5.33705
 21
8.11113
  0
LINE
  8
0
 10
5.33705
 20
8.11113
 11
5.45396
 21
8.26878
  0
LINE
  8
0
 10
5.45396
 20
8.26878
 11
5.58578
 21
8.4142
  0
LINE
  8
0
 10
5.58578
 20
8.4142
 11
5.7312
 21
8.54602
  0
LINE
  8
0
 10
5.7312
 20
8.54602
 11
5.88885
 21
8.66293
  0
LINE
  8
0
 10
5.88885
 20
8.66293
 11
6.05721
 21
8.76384
  0
LINE
  8
0
 10
6.05721
 20
8.76384
 11
6.23462
 21
8.84775
  0
LINE
  8
0
 10
6.23462
 20
8.84775
 11
6.41942
 21
8.91388
  0
LINE
  8
0
 10
6.41942
 20
8.91388
 11
6.60982
 21
8.96156
  0
LINE
  8
0
 10
6.60982
 20
8.96156
 11
6.80396
 21
8.99036
  0
LINE
  8
0
 10
6.80396
 20
8.99036
 11
7
 21
9
  0
LINE
  8
0
 10
7
 20
9
 11
7.19603
 21
8.99036
  0
LINE
  8
0
 10
7.19603
 20
8.99036
 11
7.39017
 21
8.96156
  0
LINE
  8
0
 10
7.39017
 20
8.96156
 11
7.58057
 21
8.91388
  0
LINE
  8
0
 10
7.58057
 20
8.91388
 11
7.76537
 21
8.84775
  0
LINE
  8
0
 10
7.76537
 20
8.84775
 11
7.94278
 21
8.76384
  0
LINE
  8
0
 10
7.94278
 20
8.76384
 11
8.11113
 21
8.66293
  0
LINE
  8
0
 10
8.11113
 20
8.66293
 11
8.26878
 21
8.54602
  0
LINE
  8
0
 10
8.26878
 20
8.54602
 11
8.4142
 21
8.4142
  0
LINE
  8
0
 10
8.4142
 20
8.4142
 11
8.54602
 21
8.26878
  0
LINE
  8
0
 10
8.54602
 20
8.26878
 11
8.66293
 21
8.11113
  0
LINE
  8
0
 10
8.66293
 20
8.11113
 11
8.76384
 21
7.94278
  0
LINE
  8
0
 10
8.76384
 20
7.94278
 11
8.84775
 21
7.76537
  0
LINE
  8
0
 10
8.84775
 20
7.76537
 11
8.91388
 21
7.58057
  0
LINE
  8
0
 10
8.91388
 20
7.58057
 11
8.96156
 21
7.39017
  0
LINE
  8
0
 10
8.96156
 20
7.39017
 11
8.99036
 21
7.19603
  0
LINE
  8
0
 10
8.99036
 20
7.19603
 11
9
 21
7
  0
LINE
  8
0
 10
9
 20
7
 11
8.99036
 21
6.80396
  0
LINE
  8
0
 10
8.99036
 20
6.80396
 11
8.96156
 21
6.60982
  0
LINE
  8
0
 10
8.96156
 20
6.60982
 11
8.91388
 21
6.41942
  0
LINE
  8
0
 10
8.91388
 20
6.41942
 11
8.84775
 21
6.23462
  0
LINE
  8
0
 10
8.84775
 20
6.23462
 11
8.76384
 21
6.05721
  0
LINE
  8
0
 10
8.76384
 20
6.05721
 11
8.66293
 21
5.88885
  0
LINE
  8
0
 10
8.66293
 20
5.88885
 11
8.54602
 21
5.7312
  0
LINE
  8
0
 10
8.54602
 20
5.7312
 11
8.4142
 21
5.58578
  0
LINE
  8
0
 10
8.4142
 20
5.58578
 11
8.26878
 21
5.45396
  0
LINE
  8
0
 10
8.26878
 20
5.45396
 11
8.11113
 21
5.33705
  0
LINE
  8
0
 10
8.11113
 20
5.33705
 11
7.94278
 21
5.23615
  0
LINE
  8
0
 10
7.94278
 20
5.23615
 11
7.76537
 21
5.15224
  0
LINE
  8
0
 10
7.76537
 20
5.15224
 11
7.58057
 21
5.08611
  0
LINE
  8
0
 10
7.58057
 20
5.08611
 11
7.39017
 21
5.03842
  0
LINE
  8
0
 10
7.39017
 20
5.03842
 11
7.19603
 21
5.00963
  0
LINE
  8
0
 10
7.19603
 20
5.00963
 11
7
 21
5
  0
LINE
  8
0
 10
7
 20
5
 11
6.80396
 21
5.00963
  0
LINE
  8
0
 10
70.804
 20
5.00963
 11
70.6098
 21
5.03842
  0
LINE
  8
0
 10
70.6098
 20
5.03842
 11
70.4194
 21
5.08611
  0
LINE
  8
0
 10
70.4194
 20
5.08611
 11
70.2346
 21
5.15224
  0
LINE
  8
0
 10
70.2346
 20
5.15224
 11
70.0572
 21
5.23615
  0
LINE
  8
0
 10
70.0572
 20
5.23615
 11
69.8889
 21
5.33705
  0
LINE
  8
0
 10
69.8889
 20
5.33705
 11
69.7312
 21
5.45396
  0
LINE
  8
0
 10
69.7312
 20
5.45396
 11
69.5858
 21
5.58578
  0
LINE
  8
0
 10
69.5858
 20
5.58578
 11
69.454
 21
5.7312
  0
LINE
  8
0
 10
69.454
 20
5.7312
 11
69.3371
 21
5.88885
  0
LINE
  8
0
 10
69.3371
 20
5.88885
 11
69.2361
 21
6.05721
  0
LINE
  8
0
 10
69.2361
 20
6.05721
 11
69.1522
 21
6.23462
  0
LINE
  8
0
 10
69.1522
 20
6.23462
 11
69.0861
 21
6.41942
  0
LINE
  8
0
 10
69.0861
 20
6.41942
 11
69.0384
 21
6.60982
  0
LINE
  8
0
 10
69.0384
 20
6.60982
 11
69.0096
 21
6.80396
  0
LINE
  8
0
 10
69.0096
 20
6.80396
 11
69
 21
7
  0
LINE
  8
0
 10
69
 20
7
 11
69.0096
 21
7.19603
  0
LINE
  8
0
 10
69.0096
 20
7.19603
 11
69.0384
 21
7.39017
  0
LINE
  8
0
 10
69.0384
 20
7.39017
 11
69.0861
 21
7.58057
  0
LINE
  8
0
 10
69.0861
 20
7.58057
 11
69.1522
 21
7.76537
  0
LINE
  8
0
 10
69.1522
 20
7.76537
 11
69.2361
 21
7.94278
  0
LINE
  8
0
 10
69.2361
 20
7.94278
 11
69.3371
 21
8.11113
  0
LINE
  8
0
 10
69.3371
 20
8.11113
 11
69.454
 21
8.26878
  0
LINE
  8
0
 10
69.454
 20
8.26878
 11
69.5858
 21
8.4142
  0
LINE
  8
0
 10
69.5858
 20
8.4142
 11
69.7312
 21
8.54602
  0
LINE
  8
0
 10
69.7312
 20
8.54602
 11
69.8889
 21
8.66293
  0
LINE
  8
0
 10
69.8889
 20
8.66293
 11
70.0572
 21
8.76384
  0
LINE
  8
0
 10
70.0572
 20
8.76384
 11
70.2346
 21
8.84775
  0
LINE
  8
0
 10
70.2346
 20
8.84775
 11
70.4194
 21
8.91388
  0
LINE
  8
0
 10
70.4194
 20
8.91388
 11
70.6098
 21
8.96156
  0
LINE
  8
0
 10
70.6098
 20
8.96156
 11
70.804
 21
8.99036
  0
LINE
  8
0
 10
70.804
 20
8.99036
 11
71
 21
9
  0
LINE
  8
0
 10
71
 20
9
 11
71.196
 21
8.99036
  0
LINE
  8
0
 10
71.196
 20
8.99036
 11
71.3902
 21
8.96156
  0
LINE
  8
0
 10
71.3902
 20
8.96156
 11
71.5806
 21
8.91388
  0
LINE
  8
0
 10
71.5806
 20
8.91388
 11
71.7654
 21
8.84775
  0
LINE
  8
0
 10
71.7654
 20
8.84775
 11
71.9428
 21
8.76384
  0
LINE
  8
0
 10
71.9428
 20
8.76384
 11
72.1111
 21
8.66293
  0
LINE
  8
0
 10
72.1111
 20
8.66293
 11
72.2688
 21
8.54602
  0
LINE
  8
0
 10
72.2688
 20
8.54602
 11
72.4142
 21
8.4142
  0
LINE
  8
0
 10
72.4142
 20
8.4142
 11
72.546
 21
8.26878
  0
LINE
  8
0
 10
72.546
 20
8.26878
 11
72.6629
 21
8.11113
  0
LINE
  8
0
 10
72.6629
 20
8.11113
 11
72.7638
 21
7.94278
  0
LINE
  8
0
 10
72.7638
 20
7.94278
 11
72.8477
 21
7.76537
  0
LINE
  8
0
 10
72.8477
 20
7.76537
 11
72.9139
 21
7.58057
  0
LINE
  8
0
 10
72.9139
 20
7.58057
 11
72.9616
 21
7.39017
  0
LINE
  8
0
 10
72.9616
 20
7.39017
 11
72.9904
 21
7.19603
  0
LINE
  8
0
 10
72.9904
 20
7.19603
 11
73
 21
7
  0
LINE
  8
0
 10
73
 20
7
 11
72.9904
 21
6.80396
  0
LINE
  8
0
 10
72.9904
 20
6.80396
 11
72.9616
 21
6.60982
  0
LINE
  8
0
 10
72.9616
 20
6.60982
 11
72.9139
 21
6.41942
  0
LINE
  8
0
 10
72.9139
 20
6.41942
 11
72.8477
 21
6.23462
  0
LINE
  8
0
 10
72.8477
 20
6.23462
 11
72.7638
 21
6.05721
  0
LINE
  8
0
 10
72.7638
 20
6.05721
 11
72.6629
 21
5.88885
  0
LINE
  8
0
 10
72.6629
 20
5.88885
 11
72.546
 21
5.7312
  0
LINE
  8
0
 10
72.546
 20
5.7312
 11
72.4142
 21
5.58578
  0
LINE
  8
0
 10
72.4142
 20
5.58578
 11
72.2688
 21
5.45396
  0
LINE
  8
0
 10
72.2688
 20
5.45396
 11
72.1111
 21
5.33705
  0
LINE
  8
0
 10
72.1111
 20
5.33705
 11
71.9428
 21
5.23615
  0
LINE
  8
0
 10
71.9428
 20
5.23615
 11
71.7654
 21
5.15224
  0
LINE
  8
0
 10
71.7654
 20
5.15224
 11
71.5806
 21
5.08611
  0
LINE
  8
0
 10
71.5806
 20
5.08611
 11
71.3902
 21
5.03842
  0
LINE
  8
0
 10
71.3902
 20
5.03842
 11
71.196
 21
5.00963
  0
LINE
  8
0
 10
71.196
 20
5.00963
 11
71
 21
5
  0
LINE
  8
0
 10
71
 20
5
 11
70.804
 21
5.00963
  0
LINE
  8
0
 10
152.686
 20
0.0337219
 11
153.366
 21
0.134506
  0
LINE
  8
0
 10
153.366
 20
0.134506
 11
154.032
 21
0.301422
  0
LINE
  8
0
 10
154.032
 20
0.301422
 11
154.679
 21
0.532852
  0
LINE
  8
0
 10
154.679
 20
0.532852
 11
155.3
 21
0.826553
  0
LINE
  8
0
 10
155.3
 20
0.826553
 11
155.889
 21
1.17972
  0
LINE
  8
0
 10
155.889
 20
1.17972
 11
156.441
 21
1.58893
  0
LINE
  8
0
 10
156.441
 20
1.58893
 11
156.95
 21
2.05026
  0
LINE
  8
0
 10
156.95
 20
2.05026
 11
157.411
 21
2.55925
  0
LINE
  8
0
 10
157.411
 20
2.55925
 11
157.82
 21
3.11102
  0
LINE
  8
0
 10
157.82
 20
3.11102
 11
158.173
 21
3.70023
  0
LINE
  8
0
 10
158.173
 20
3.70023
 11
158.467
 21
4.32123
  0
LINE
  8
0
 10
158.467
 20
4.32123
 11
158.699
 21
4.96802
  0
LINE
  8
0
 10
158.699
 20
4.96802
 11
158.865
 21
5.63437
  0
LINE
  8
0
 10
158.865
 20
5.63437
 11
158.966
 21
6.31389
  0
LINE
  8
0
 10
158.966
 20
6.31389
 11
159
 21
7
  0
LINE
  8
0
 10
159
 20
7
 11
159
 21
74
  0
LINE
  8
0
 10
159
 20
74
 11
158.966
 21
74.6861
  0
LINE
  8
0
 10
158.966
 20
74.6861
 11
158.865
 21
75.3656
  0
LINE
  8
0
 10
158.865
 20
75.3656
 11
158.699
 21
76.032
  0
LINE
  8
0
 10
158.699
 20
76.032
 11
158.467
 21
76.6788
  0
LINE
  8
0
 10
158.467
 20
76.6788
 11
158.173
 21
77.2998
  0
LINE
  8
0
 10
158.173
 20
77.2998
 11
157.82
 21
77.889
  0
LINE
  8
0
 10
157.82
 20
77.889
 11
157.411
 21
78.4408
  0
LINE
  8
0
 10
157.411
 20
78.4408
 11
156.95
 21
78.9497
  0
LINE
  8
0
 10
156.95
 20
78.9497
 11
156.441
 21
79.4111
  0
LINE
  8
0
 10
156.441
 20
79.4111
 11
155.889
 21
79.8203
  0
LINE
  8
0
 10
155.889
 20
79.8203
 11
155.3
 21
80.1734
  0
LINE
  8
0
 10
155.3
 20
80.1734
 11
154.679
 21
80.4671
  0
LINE
  8
0
 10
154.679
 20
80.4671
 11
154.032
 21
80.6986
  0
LINE
  8
0
 10
154.032
 20
80.6986
 11
153.366
 21
80.8655
  0
LINE
  8
0
 10
153.366
 20
80.8655
 11
152.686
 21
80.9663
  0
LINE
  8
0
 10
152.686
 20
80.9663
 11
152
 21
81
  0
LINE
  8
0
 10
152
 20
81
 11
88
 21
81
  0
LINE
  8
0
 10
88
 20
81
 11
87.3139
 21
80.9663
  0
LINE
  8
0
 10
87.3139
 20
80.9663
 11
86.6344
 21
80.8655
  0
LINE
  8
0
 10
86.6344
 20
80.8655
 11
85.968
 21
80.6986
  0
LINE
  8
0
 10
85.968
 20
80.6986
 11
85.3212
 21
80.4671
  0
LINE
  8
0
 10
85.3212
 20
80.4671
 11
84.7002
 21
80.1734
  0
LINE
  8
0
 10
84.7002
 20
80.1734
 11
84.111
 21
79.8203
  0
LINE
  8
0
 10
84.111
 20
79.8203
 11
83.5592
 21
79.4111
  0
LINE
  8
0
 10
83.5592
 20
79.4111
 11
83.0503
 21
78.9497
  0
LINE
  8
0
 10
83.0503
 20
78.9497
 11
82.5889
 21
78.4408
  0
LINE
  8
0
 10
82.5889
 20
78.4408
 11
82.1797
 21
77.889
  0
LINE
  8
0
 10
82.1797
 20
77.889
 11
81.8266
 21
77.2998
  0
LINE
  8
0
 10
81.8266
 20
77.2998
 11
81.5329
 21
76.6788
  0
LINE
  8
0
 10
81.5329
 20
76.6788
 11
81.3014
 21
76.032
  0
LINE
  8
0
 10
81.3014
 20
76.032
 11
81.1345
 21
75.3656
  0
LINE
  8
0
 10
81.1345
 20
75.3656
 11
81.0337
 21
74.6861
  0
LINE
  8
0
 10
81.0337
 20
74.6861
 11
81
 21
74
  0
LINE
  8
0
 10
81
 20
74
 11
81
 21
7
  0
LINE
  8
0
 10
81
 20
7
 11
81.0337
 21
6.31389
  0
LINE
  8
0
 10
81.0337
 20
6.31389
 11
81.1345
 21
5.63437
  0
LINE
  8
0
 10
81.1345
 20
5.63437
 11
81.3014
 21
4.96802
  0
LINE
  8
0
 10
81.3014
 20
4.96802
 11
81.5329
 21
4.32123
  0
LINE
  8
0
 10
81.5329
 20
4.32123
 11
81.8266
 21
3.70023
  0
LINE
  8
0
 10
81.8266
 20
3.70023
 11
82.1797
 21
3.11102
  0
LINE
  8
0
 10
82.1797
 20
3.11102
 11
82.5889
 21
2.55925
  0
LINE
  8
0
 10
82.5889
 20
2.55925
 11
83.0503
 21
2.05026
  0
LINE
  8
0
 10
83.0503
 20
2.05026
 11
83.5592
 21
1.58893
  0
LINE
  8
0
 10
83.5592
 20
1.58893
 11
84.111
 21
1.17972
  0
LINE
  8
0
 10
84.111
 20
1.17972
 11
84.7002
 21
0.826553
  0
LINE
  8
0
 10
84.7002
 20
0.826553
 11
85.3212
 21
0.532852
  0
LINE
  8
0
 10
85.3212
 20
0.532852
 11
85.968
 21
0.301422
  0
LINE
  8
0
 10
85.968
 20
0.301422
 11
86.6344
 21
0.134506
  0
LINE
  8
0
 10
86.6344
 20
0.134506
 11
87.3139
 21
0.0337219
  0
LINE
  8
0
 10
87.3139
 20
0.0337219
 11
88
 21
0
  0
LINE
  8
0
 10
88
 20
0
 11
152
 21
0
  0
LINE
  8
0
 10
152
 20
0
 11
152.686
 21
0.0337219
  0
LINE
  8
0
 10
87.804
 20
72.0096
 11
87.6098
 21
72.0384
  0
LINE
  8
0
 10
87.6098
 20
72.0384
 11
87.4194
 21
72.0861
  0
LINE
  8
0
 10
87.4194
 20
72.0861
 11
87.2346
 21
72.1522
  0
LINE
  8
0
 10
87.2346
 20
72.1522
 11
87.0572
 21
72.2361
  0
LINE
  8
0
 10
87.0572
 20
72.2361
 11
86.8889
 21
72.3371
  0
LINE
  8
0
 10
86.8889
 20
72.3371
 11
86.7312
 21
72.454
  0
LINE
  8
0
 10
86.7312
 20
72.454
 11
86.5858
 21
72.5858
  0
LINE
  8
0
 10
86.5858
 20
72.5858
 11
86.454
 21
72.7312
  0
LINE
  8
0
 10
86.454
 20
72.7312
 11
86.3371
 21
72.8889
  0
LINE
  8
0
 10
86.3371
 20
72.8889
 11
86.2361
 21
73.0572
  0
LINE
  8
0
 10
86.2361
 20
73.0572
 11
86.1522
 21
73.2346
  0
LINE
  8
0
 10
86.1522
 20
73.2346
 11
86.0861
 21
73.4194
  0
LINE
  8
0
 10
86.0861
 20
73.4194
 11
86.0384
 21
73.6098
  0
LINE
  8
0
 10
86.0384
 20
73.6098
 11
86.0096
 21
73.804
  0
LINE
  8
0
 10
86.0096
 20
73.804
 11
86
 21
74
  0
LINE
  8
0
 10
86
 20
74
 11
86.0096
 21
74.196
  0
LINE
  8
0
 10
86.0096
 20
74.196
 11
86.0384
 21
74.3902
  0
LINE
  8
0
 10
86.0384
 20
74.3902
 11
86.0861
 21
74.5806
  0
LINE
  8
0
 10
86.0861
 20
74.5806
 11
86.1522
 21
74.7654
  0
LINE
  8
0
 10
86.1522
 20
74.7654
 11
86.2361
 21
74.9428
  0
LINE
  8
0
 10
86.2361
 20
74.9428
 11
86.3371
 21
75.1111
  0
LINE
  8
0
 10
86.3371
 20
75.1111
 11
86.454
 21
75.2688
  0
LINE
  8
0
 10
86.454
 20
75.2688
 11
86.5858
 21
75.4142
  0
LINE
  8
0
 10
86.5858
 20
75.4142
 11
86.7312
 21
75.546
  0
LINE
  8
0
 10
86.7312
 20
75.546
 11
86.8889
 21
75.6629
  0
LINE
  8
0
 10
86.8889
 20
75.6629
 11
87.0572
 21
75.7638
  0
LINE
  8
0
 10
87.0572
 20
75.7638
 11
87.2346
 21
75.8477
  0
LINE
  8
0
 10
87.2346
 20
75.8477
 11
87.4194
 21
75.9139
  0
LINE
  8
0
 10
87.4194
 20
75.9139
 11
87.6098
 21
75.9616
  0
LINE
  8
0
 10
87.6098
 20
75.9616
 11
87.804
 21
75.9904
  0
LINE
  8
0
 10
87.804
 20
75.9904
 11
88
 21
76
  0
LINE
  8
0
 10
88
 20
76
 11
88.196
 21
75.9904
  0
LINE
  8
0
 10
88.196
 20
75.9904
 11
88.3902
 21
75.9616
  0
LINE
  8
0
 10
88.3902
 20
75.9616
 11
88.5806
 21
75.9139
  0
LINE
  8
0
 10
88.5806
 20
75.9139
 11
88.7654
 21
75.8477
  0
LINE
  8
0
 10
88.7654
 20
75.8477
 11
88.9428
 21
75.7638
  0
LINE
  8
0
 10
88.9428
 20
75.7638
 11
89.1111
 21
75.6629
  0
LINE
  8
0
 10
89.1111
 20
75.6629
 11
89.2688
 21
75.546
  0
LINE
  8
0
 10
89.2688
 20
75.546
 11
89.4142
 21
75.4142
  0
LINE
  8
0
 10
89.4142
 20
75.4142
 11
89.546
 21
75.2688
  0
LINE
  8
0
 10
89.546
 20
75.2688
 11
89.6629
 21
75.1111
  0
LINE
  8
0
 10
89.6629
 20
75.1111
 11
89.7638
 21
74.9428
  0
LINE
  8
0
 10
89.7638
 20
74.9428
 11
89.8477
 21
74.7654
  0
LINE
  8
0
 10
89.8477
 20
74.7654
 11
89.9139
 21
74.5806
  0
LINE
  8
0
 10
89.9139
 20
74.5806
 11
89.9616
 21
74.3902
  0
LINE
  8
0
 10
89.9616
 20
74.3902
 11
89.9904
 21
74.196
  0
LINE
  8
0
 10
89.9904
 20
74.196
 11
90
 21
74
  0
LINE
  8
0
 10
90
 20
74
 11
89.9904
 21
73.804
  0
LINE
  8
0
 10
89.9904
 20
73.804
 11
89.9616
 21
73.6098
  0
LINE
  8
0
 10
89.9616
 20
73.6098
 11
89.9139
 21
73.4194
  0
LINE
  8
0
 10
89.9139
 20
73.4194
 11
89.8477
 21
73.2346
  0
LINE
  8
0
 10
89.8477
 20
73.2346
 11
89.7638
 21
73.0572
  0
LINE
  8
0
 10
89.7638
 20
73.0572
 11
89.6629
 21
72.8889
  0
LINE
  8
0
 10
89.6629
 20
72.8889
 11
89.546
 21
72.7312
  0
LINE
  8
0
 10
89.546
 20
72.7312
 11
89.4142
 21
72.5858
  0
LINE
  8
0
 10
89.4142
 20
72.5858
 11
89.2688
 21
72.454
  0
LINE
  8
0
 10
89.2688
 20
72.454
 11
89.1111
 21
72.3371
  0
LINE
  8
0
 10
89.1111
 20
72.3371
 11
88.9428
 21
72.2361
  0
LINE
  8
0
 10
88.9428
 20
72.2361
 11
88.7654
 21
72.1522
  0
LINE
  8
0
 10
88.7654
 20
72.1522
 11
88.5806
 21
72.0861
  0
LINE
  8
0
 10
88.5806
 20
72.0861
 11
88.3902
 21
72.0384
  0
LINE
  8
0
 10
88.3902
 20
72.0384
 11
88.196
 21
72.0096
  0
LINE
  8
0
 10
88.196
 20
72.0096
 11
88
 21
72
  0
LINE
  8
0
 10
88
 20
72
 11
87.804
 21
72.0096
  0
LINE
  8
0
 10
151.804
 20
72.0096
 11
151.61
 21
72.0384
  0
LINE
  8
0
 10
151.61
 20
72.0384
 11
151.419
 21
72.0861
  0
LINE
  8
0
 10
151.419
 20
72.0861
 11
151.235
 21
72.1522
  0
LINE
  8
0
 10
151.235
 20
72.1522
 11
151.057
 21
72.2361
  0
LINE
  8
0
 10
151.057
 20
72.2361
 11
150.889
 21
72.3371
  0
LINE
  8
0
 10
150.889
 20
72.3371
 11
150.731
 21
72.454
  0
LINE
  8
0
 10
150.731
 20
72.454
 11
150.586
 21
72.5858
  0
LINE
  8
0
 10
150.586
 20
72.5858
 11
150.454
 21
72.7312
  0
LINE
  8
0
 10
150.454
 20
72.7312
 11
150.337
 21
72.8889
  0
LINE
  8
0
 10
150.337
 20
72.8889
 11
150.236
 21
73.0572
  0
LINE
  8
0
 10
150.236
 20
73.0572
 11
150.152
 21
73.2346
  0
LINE
  8
0
 10
150.152
 20
73.2346
 11
150.086
 21
73.4194
  0
LINE
  8
0
 10
150.086
 20
73.4194
 11
150.038
 21
73.6098
  0
LINE
  8
0
 10
150.038
 20
73.6098
 11
150.01
 21
73.804
  0
LINE
  8
0
 10
150.01
 20
73.804
 11
150
 21
74
  0
LINE
  8
0
 10
150
 20
74
 11
150.01
 21
74.196
  0
LINE
  8
0
 10
150.01
 20
74.196
 11
150.038
 21
74.3902
  0
LINE
  8
0
 10
150.038
 20
74.3902
 11
150.086
 21
74.5806
  0
LINE
  8
0
 10
150.086
 20
74.5806
 11
150.152
 21
74.7654
  0
LINE
  8
0
 10
150.152
 20
74.7654
 11
150.236
 21
74.9428
  0
LINE
  8
0
 10
150.236
 20
74.9428
 11
150.337
 21
75.1111
  0
LINE
  8
0
 10
150.337
 20
75.1111
 11
150.454
 21
75.2688
  0
LINE
  8
0
 10
150.454
 20
75.2688
 11
150.586
 21
75.4142
  0
LINE
  8
0
 10
150.586
 20
75.4142
 11
150.731
 21
75.546
  0
LINE
  8
0
 10
150.731
 20
75.546
 11
150.889
 21
75.6629
  0
LINE
  8
0
 10
150.889
 20
75.6629
 11
151.057
 21
75.7638
  0
LINE
  8
0
 10
151.057
 20
75.7638
 11
151.235
 21
75.8477
  0
LINE
  8
0
 10
151.235
 20
75.8477
 11
151.419
 21
75.9139
  0
LINE
  8
0
 10
151.419
 20
75.9139
 11
151.61
 21
75.9616
  0
LINE
  8
0
 10
151.61
 20
75.9616
 11
151.804
 21
75.9904
  0
LINE
  8
0
 10
151.804
 20
75.9904
 11
152
 21
76
  0
LINE
  8
0
 10
152
 20
76
 11
152.196
 21
75.9904
  0
LINE
  8
0
 10
152.196
 20
75.9904
 11
152.39
 21
75.9616
  0
LINE
  8
0
 10
152.39
 20
75.9616
 11
152.581
 21
75.9139
  0
LINE
  8
0
 10
152.581
 20
75.9139
 11
152.765
 21
75.8477
  0
LINE
  8
0
 10
152.765
 20
75.8477
 11
152.943
 21
75.7638
  0
LINE
  8
0
 10
152.943
 20
75.7638
 11
153.111
 21
75.6629
  0
LINE
  8
0
 10
153.111
 20
75.6629
 11
153.269
 21
75.546
  0
LINE
  8
0
 10
153.269
 20
75.546
 11
153.414
 21
75.4142
  0
LINE
  8
0
 10
153.414
 20
75.4142
 11
153.546
 21
75.2688
  0
LINE
  8
0
 10
153.546
 20
75.2688
 11
153.663
 21
75.1111
  0
LINE
  8
0
 10
153.663
 20
75.1111
 11
153.764
 21
74.9428
  0
LINE
  8
0
 10
153.764
 20
74.9428
 11
153.848
 21
74.7654
  0
LINE
  8
0
 10
153.848
 20
74.7654
 11
153.914
 21
74.5806
  0
LINE
  8
0
 10
153.914
 20
74.5806
 11
153.962
 21
74.3902
  0
LINE
  8
0
 10
153.962
 20
74.3902
 11
153.99
 21
74.196
  0
LINE
  8
0
 10
153.99
 20
74.196
 11
154
 21
74
  0
LINE
  8
0
 10
154
 20
74
 11
153.99
 21
73.804
  0
LINE
  8
0
 10
153.99
 20
73.804
 11
153.962
 21
73.6098
  0
LINE
  8
0
 10
153.962
 20
73.6098
 11
153.914
 21
73.4194
  0
LINE
  8
0
 10
153.914
 20
73.4194
 11
153.848
 21
73.2346
  0
LINE
  8
0
 10
153.848
 20
73.2346
 11
153.764
 21
73.0572
  0
LINE
  8
0
 10
153.764
 20
73.0572
 11
153.663
 21
72.8889
  0
LINE
  8
0
 10
153.663
 20
72.8889
 11
153.546
 21
72.7312
  0
LINE
  8
0
 10
153.546
 20
72.7312
 11
153.414
 21
72.5858
  0
LINE
  8
0
 10
153.414
 20
72.5858
 11
153.269
 21
72.454
  0
LINE
  8
0
 10
153.269
 20
72.454
 11
153.111
 21
72.3371
  0
LINE
  8
0
 10
153.111
 20
72.3371
 11
152.943
 21
72.2361
  0
LINE
  8
0
 10
152.943
 20
72.2361
 11
152.765
 21
72.1522
  0
LINE
  8
0
 10
152.765
 20
72.1522
 11
152.581
 21
72.0861
  0
LINE
  8
0
 10
152.581
 20
72.0861
 11
152.39
 21
72.0384
  0
LINE
  8
0
 10
152.39
 20
72.0384
 11
152.196
 21
72.0096
  0
LINE
  8
0
 10
152.196
 20
72.0096
 11
152
 21
72
  0
LINE
  8
0
 10
152
 20
72
 11
151.804
 21
72.0096
  0
LINE
  8
0
 10
90
 20
9
 11
90
 21
72
  0
LINE
  8
0
 10
90
 20
72
 11
150
 21
72
  0
LINE
  8
0
 10
150
 20
72
 11
150
 21
9
  0
LINE
  8
0
 10
150
 20
9
 11
90
 21
9
  0
LINE
  8
0
 10
87.804
 20
5.00963
 11
87.6098
 21
5.03842
  0
LINE
  8
0
 10
87.6098
 20
5.03842
 11
87.4194
 21
5.08611
  0
LINE
  8
0
 10
87.4194
 20
5.08611
 11
87.2346
 21
5.15224
  0
LINE
  8
0
 10
87.2346
 20
5.15224
 11
87.0572
 21
5.23615
  0
LINE
  8
0
 10
87.0572
 20
5.23615
 11
86.8889
 21
5.33705
  0
LINE
  8
0
 10
86.8889
 20
5.33705
 11
86.7312
 21
5.45396
  0
LINE
  8
0
 10
86.7312
 20
5.45396
 11
86.5858
 21
5.58578
  0
LINE
  8
0
 10
86.5858
 20
5.58578
 11
86.454
 21
5.7312
  0
LINE
  8
0
 10
86.454
 20
5.7312
 11
86.3371
 21
5.88885
  0
LINE
  8
0
 10
86.3371
 20
5.88885
 11
86.2361
 21
6.05721
  0
LINE
  8
0
 10
86.2361
 20
6.05721
 11
86.1522
 21
6.23462
  0
LINE
  8
0
 10
86.1522
 20
6.23462
 11
86.0861
 21
6.41942
  0
LINE
  8
0
 10
86.0861
 20
6.41942
 11
86.0384
 21
6.60982
  0
LINE
  8
0
 10
86.0384
 20
6.60982
 11
86.0096
 21
6.80396
  0
LINE
  8
0
 10
86.0096
 20
6.80396
 11
86
 21
7
  0
LINE
  8
0
 10
86
 20
7
 11
86.0096
 21
7.19603
  0
LINE
  8
0
 10
86.0096
 20
7.19603
 11
86.0384
 21
7.39017
  0
LINE
  8
0
 10
86.0384
 20
7.39017
 11
86.0861
 21
7.58057
  0
LINE
  8
0
 10
86.0861
 20
7.58057
 11
86.1522
 21
7.76537
  0
LINE
  8
0
 10
86.1522
 20
7.76537
 11
86.2361
 21
7.94278
  0
LINE
  8
0
 10
86.2361
 20
7.94278
 11
86.3371
 21
8.11113
  0
LINE
  8
0
 10
86.3371
 20
8.11113
 11
86.454
 21
8.26878
  0
LINE
  8
0
 10
86.454
 20
8.26878
 11
86.5858
 21
8.4142
  0
LINE
  8
0
 10
86.5858
 20
8.4142
 11
86.7312
 21
8.54602
  0
LINE
  8
0
 10
86.7312
 20
8.54602
 11
86.8889
 21
8.66293
  0
LINE
  8
0
 10
86.8889
 20
8.66293
 11
87.0572
 21
8.76384
  0
LINE
  8
0
 10
87.0572
 20
8.76384
 11
87.2346
 21
8.84775
  0
LINE
  8
0
 10
87.2346
 20
8.84775
 11
87.4194
 21
8.91388
  0
LINE
  8
0
 10
87.4194
 20
8.91388
 11
87.6098
 21
8.96156
  0
LINE
  8
0
 10
87.6098
 20
8.96156
 11
87.804
 21
8.99036
  0
LINE
  8
0
 10
87.804
 20
8.99036
 11
88
 21
9
  0
LINE
  8
0
 10
88
 20
9
 11
88.196
 21
8.99036
  0
LINE
  8
0
 10
88.196
 20
8.99036
 11
88.3902
 21
8.96156
  0
LINE
  8
0
 10
88.3902
 20
8.96156
 11
88.5806
 21
8.91388
  0
LINE
  8
0
 10
88.5806
 20
8.91388
 11
88.7654
 21
8.84775
  0
LINE
  8
0
 10
88.7654
 20
8.84775
 11
88.9428
 21
8.76384
  0
LINE
  8
0
 10
88.9428
 20
8.76384
 11
89.1111
 21
8.66293
  0
LINE
  8
0
 10
89.1111
 20
8.66293
 11
89.2688
 21
8.54602
  0
LINE
  8
0
 10
89.2688
 20
8.54602
 11
89.4142
 21
8.4142
  0
LINE
  8
0
 10
89.4142
 20
8.4142
 11
89.546
 21
8.26878
  0
LINE
  8
0
 10
89.546
 20
8.26878
 11
89.6629
 21
8.11113
  0
LINE
  8
0
 10
89.6629
 20
8.11113
 11
89.7638
 21
7.94278
  0
LINE
  8
0
 10
89.7638
 20
7.94278
 11
89.8477
 21
7.76537
  0
LINE
  8
0
 10
89.8477
 20
7.76537
 11
89.9139
 21
7.58057
  0
LINE
  8
0
 10
89.9139
 20
7.58057
 11
89.9616
 21
7.39017
  0
LINE
  8
0
 10
89.9616
 20
7.39017
 11
89.9904
 21
7.19603
  0
LINE
  8
0
 10
89.9904
 20
7.19603
 11
90
 21
7
  0
LINE
  8
0
 10
90
 20
7
 11
89.9904
 21
6.80396
  0
LINE
  8
0
 10
89.9904
 20
6.80396
 11
89.9616
 21
6.60982
  0
LINE
  8
0
 10
89.9616
 20
6.60982
 11
89.9139
 21
6.41942
  0
LINE
  8
0
 10
89.9139
 20
6.41942
 11
89.8477
 21
6.23462
  0
LINE
  8
0
 10
89.8477
 20
6.23462
 11
89.7638
 21
6.05721
  0
LINE
  8
0
 10
89.7638
 20
6.05721
 11
89.6629
 21
5.88885
  0
LINE
  8
0
 10
89.6629
 20
5.88885
 11
89.546
 21
5.7312
  0
LINE
  8
0
 10
89.546
 20
5.7312
 11
89.4142
 21
5.58578
  0
LINE
  8
0
 10
89.4142
 20
5.58578
 11
89.2688
 21
5.45396
  0
LINE
  8
0
 10
89.2688
 20
5.45396
 11
89.1111
 21
5.33705
  0
LINE
  8
0
 10
89.1111
 20
5.33705
 11
88.9428
 21
5.23615
  0
LINE
  8
0
 10
88.9428
 20
5.23615
 11
88.7654
 21
5.15224
  0
LINE
  8
0
 10
88.7654
 20
5.15224
 11
88.5806
 21
5.08611
  0
LINE
  8
0
 10
88.5806
 20
5.08611
 11
88.3902
 21
5.03842
  0
LINE
  8
0
 10
88.3902
 20
5.03842
 11
88.196
 21
5.00963
  0
LINE
  8
0
 10
88.196
 20
5.00963
 11
88
 21
5
  0
LINE
  8
0
 10
88
 20
5
 11
87.804
 21
5.00963
  0
LINE
  8
0
 10
151.804
 20
5.00963
 11
151.61
 21
5.03842
  0
LINE
  8
0
 10
151.61
 20
5.03842
 11
151.419
 21
5.08611
  0
LINE
  8
0
 10
151.419
 20
5.08611
 11
151.235
 21
5.15224
  0
LINE
  8
0
 10
151.235
 20
5.15224
 11
151.057
 21
5.23615
  0
LINE
  8
0
 10
151.057
 20
5.23615
 11
150.889
 21
5.33705
  0
LINE
  8
0
 10
150.889
 20
5.33705
 11
150.731
 21
5.45396
  0
LINE
  8
0
 10
150.731
 20
5.45396
 11
150.586
 21
5.58578
  0
LINE
  8
0
 10
150.586
 20
5.58578
 11
150.454
 21
5.7312
  0
LINE
  8
0
 10
150.454
 20
5.7312
 11
150.337
 21
5.88885
  0
LINE
  8
0
 10
150.337
 20
5.88885
 11
150.236
 21
6.05721
  0
LINE
  8
0
 10
150.236
 20
6.05721
 11
150.152
 21
6.23462
  0
LINE
  8
0
 10
150.152
 20
6.23462
 11
150.086
 21
6.41942
  0
LINE
  8
0
 10
150.086
 20
6.41942
 11
150.038
 21
6.60982
  0
LINE
  8
0
 10
150.038
 20
6.60982
 11
150.01
 21
6.80396
  0
LINE
  8
0
 10
150.01
 20
6.80396
 11
150
 21
7
  0
LINE
  8
0
 10
150
 20
7
 11
150.01
 21
7.19603
  0
LINE
  8
0
 10
150.01
 20
7.19603
 11
150.038
 21
7.39017
  0
LINE
  8
0
 10
150.038
 20
7.39017
 11
150.086
 21
7.58057
  0
LINE
  8
0
 10
150.086
 20
7.58057
 11
150.152
 21
7.76537
  0
LINE
  8
0
 10
150.152
 20
7.76537
 11
150.236
 21
7.94278
  0
LINE
  8
0
 10
150.236
 20
7.94278
 11
150.337
 21
8.11113
  0
LINE
  8
0
 10
150.337
 20
8.11113
 11
150.454
 21
8.26878
  0
LINE
  8
0
 10
150.454
 20
8.26878
 11
150.586
 21
8.4142
  0
LINE
  8
0
 10
150.586
 20
8.4142
 11
150.731
 21
8.54602
  0
LINE
  8
0
 10
150.731
 20
8.54602
 11
150.889
 21
8.66293
  0
LINE
  8
0
 10
150.889
 20
8.66293
 11
151.057
 21
8.76384
  0
LINE
  8
0
 10
151.057
 20
8.76384
 11
151.235
 21
8.84775
  0
LINE
  8
0
 10
151.235
 20
8.84775
 11
151.419
 21
8.91388
  0
LINE
  8
0
 10
151.419
 20
8.91388
 11
151.61
 21
8.96156
  0
LINE
  8
0
 10
151.61
 20
8.96156
 11
151.804
 21
8.99036
  0
LINE
  8
0
 10
151.804
 20
8.99036
 11
152
 21
9
  0
LINE
  8
0
 10
152
 20
9
 11
152.196
 21
8.99036
  0
LINE
  8
0
 10
152.196
 20
8.99036
 11
152.39
 21
8.96156
  0
LINE
  8
0
 10
152.39
 20
8.96156
 11
152.581
 21
8.91388
  0
LINE
  8
0
 10
152.581
 20
8.91388
 11
152.765
 21
8.84775
  0
LINE
  8
0
 10
152.765
 20
8.84775
 11
152.943
 21
8.76384
  0
LINE
  8
0
 10
152.943
 20
8.76384
 11
153.111
 21
8.66293
  0
LINE
  8
0
 10
153.111
 20
8.66293
 11
153.269
 21
8.54602
  0
LINE
  8
0
 10
153.269
 20
8.54602
 11
153.414
 21
8.4142
  0
LINE
  8
0
 10
153.414
 20
8.4142
 11
153.546
 21
8.26878
  0
LINE
  8
0
 10
153.546
 20
8.26878
 11
153.663
 21
8.11113
  0
LINE
  8
0
 10
153.663
 20
8.11113
 11
153.764
 21
7.94278
  0
LINE
  8
0
 10
153.764
 20
7.94278
 11
153.848
 21
7.76537
  0
LINE
  8
0
 10
153.848
 20
7.76537
 11
153.914
 21
7.58057
  0
LINE
  8
0
 10
153.914
 20
7.58057
 11
153.962
 21
7.39017
  0
LINE
  8
0
 10
153.962
 20
7.39017
 11
153.99
 21
7.19603
  0
LINE
  8
0
 10
153.99
 20
7.19603
 11
154
 21
7
  0
LINE
  8
0
 10
154
 20
7
 11
153.99
 21
6.80396
  0
LINE
  8
0
 10
153.99
 20
6.80396
 11
153.962
 21
6.60982
  0
LINE
  8
0
 10
153.962
 20
6.60982
 11
153.914
 21
6.41942
  0
LINE
  8
0
 10
153.914
 20
6.41942
 11
153.848
 21
6.23462
  0
LINE
  8
0
 10
153.848
 20
6.23462
 11
153.764
 21
6.05721
  0
LINE
  8
0
 10
153.764
 20
6.05721
 11
153.663
 21
5.88885
  0
LINE
  8
0
 10
153.663
 20
5.88885
 11
153.546
 21
5.7312
  0
LINE
  8
0
 10
153.546
 20
5.7312
 11
153.414
 21
5.58578
  0
LINE
  8
0
 10
153.414
 20
5.58578
 11
153.269
 21
5.45396
  0
LINE
  8
0
 10
153.269
 20
5.45396
 11
153.111
 21
5.33705
  0
LINE
  8
0
 10
153.111
 20
5.33705
 11
152.943
 21
5.23615
  0
LINE
  8
0
 10
152.943
 20
5.23615
 11
152.765
 21
5.15224
  0
LINE
  8
0
 10
152.765
 20
5.15224
 11
152.581
 21
5.08611
  0
LINE
  8
0
 10
152.581
 20
5.08611
 11
152.39
 21
5.03842
  0
LINE
  8
0
 10
152.39
 20
5.03842
 11
152.196
 21
5.00963
  0
LINE
  8
0
 10
152.196
 20
5.00963
 11
152
 21
5
  0
LINE
  8
0
 10
152
 20
5
 11
151.804
 21
5.00963
  0
ENDSEC
  0
SECTION
  2
OBJECTS
  0
DICTIONARY
  0
ENDSEC
  0
EOF
