  0
SECTION
  2
BLOCKS
  0
ENDSEC
  0
SECTION
  2
ENTITIES
  0
LINE
  8
0
 10
70.2722
 20
0.708069
 11
71.5418
 21
2.14111
  0
LINE
  8
0
 10
71.5418
 20
2.14111
 11
72
 21
4
  0
LINE
  8
0
 10
72
 20
4
 11
72
 21
71
  0
LINE
  8
0
 10
72
 20
71
 11
71.5418
 21
72.8589
  0
LINE
  8
0
 10
71.5418
 20
72.8589
 11
70.2722
 21
74.2919
  0
LINE
  8
0
 10
70.2722
 20
74.2919
 11
68.4821
 21
74.9708
  0
LINE
  8
0
 10
68.4821
 20
74.9708
 11
4.48213
 21
74.9708
  0
LINE
  8
0
 10
4.48213
 20
74.9708
 11
2.58159
 21
74.7401
  0
LINE
  8
0
 10
2.58159
 20
74.7401
 11
1.00597
 21
73.6525
  0
LINE
  8
0
 10
1.00597
 20
73.6525
 11
0.116241
 21
71.9573
  0
LINE
  8
0
 10
0.116241
 20
71.9573
 11
0.116241
 21
3.04274
  0
LINE
  8
0
 10
0.116241
 20
3.04274
 11
1.00597
 21
1.34752
  0
LINE
  8
0
 10
1.00597
 20
1.34752
 11
2.58159
 21
0.259949
  0
LINE
  8
0
 10
2.58159
 20
0.259949
 11
4.48213
 21
0.0291748
  0
LINE
  8
0
 10
4.48213
 20
0.0291748
 11
68.4821
 21
0.0291748
  0
LINE
  8
0
 10
68.4821
 20
0.0291748
 11
70.2722
 21
0.708069
  0
LINE
  8
0
 10
2.19806
 20
70.1322
 11
2.19806
 21
71.8678
  0
LINE
  8
0
 10
2.19806
 20
71.8678
 11
3.55495
 21
72.9498
  0
LINE
  8
0
 10
3.55495
 20
72.9498
 11
5.24698
 21
72.5637
  0
LINE
  8
0
 10
5.24698
 20
72.5637
 11
6
 21
71
  0
LINE
  8
0
 10
6
 20
71
 11
5.24698
 21
69.4363
  0
LINE
  8
0
 10
5.24698
 20
69.4363
 11
3.55495
 21
69.0501
  0
LINE
  8
0
 10
3.55495
 20
69.0501
 11
2.19806
 21
70.1322
  0
LINE
  8
0
 10
66.1981
 20
70.1322
 11
66.1981
 21
71.8678
  0
LINE
  8
0
 10
66.1981
 20
71.8678
 11
67.5549
 21
72.9498
  0
LINE
  8
0
 10
67.5549
 20
72.9498
 11
69.247
 21
72.5637
  0
LINE
  8
0
 10
69.247
 20
72.5637
 11
70
 21
71
  0
LINE
  8
0
 10
70
 20
71
 11
69.247
 21
69.4363
  0
LINE
  8
0
 10
69.247
 20
69.4363
 11
67.5549
 21
69.0501
  0
LINE
  8
0
 10
67.5549
 20
69.0501
 11
66.1981
 21
70.1322
  0
LINE
  8
0
 10
2.19806
 20
3.13222
 11
2.19806
 21
4.86777
  0
LINE
  8
0
 10
2.19806
 20
4.86777
 11
3.55495
 21
5.94984
  0
LINE
  8
0
 10
3.55495
 20
5.94984
 11
5.24698
 21
5.56366
  0
LINE
  8
0
 10
5.24698
 20
5.56366
 11
6
 21
4
  0
LINE
  8
0
 10
6
 20
4
 11
5.24698
 21
2.43633
  0
LINE
  8
0
 10
5.24698
 20
2.43633
 11
3.55495
 21
2.05014
  0
LINE
  8
0
 10
3.55495
 20
2.05014
 11
2.19806
 21
3.13222
  0
LINE
  8
0
 10
66.1981
 20
3.13222
 11
66.1981
 21
4.86777
  0
LINE
  8
0
 10
66.1981
 20
4.86777
 11
67.5549
 21
5.94984
  0
LINE
  8
0
 10
67.5549
 20
5.94984
 11
69.247
 21
5.56366
  0
LINE
  8
0
 10
69.247
 20
5.56366
 11
70
 21
4
  0
LINE
  8
0
 10
70
 20
4
 11
69.247
 21
2.43633
  0
LINE
  8
0
 10
69.247
 20
2.43633
 11
67.5549
 21
2.05014
  0
LINE
  8
0
 10
67.5549
 20
2.05014
 11
66.1981
 21
3.13222
  0
LINE
  8
0
 10
147.272
 20
0.708069
 11
148.542
 21
2.14111
  0
LINE
  8
0
 10
148.542
 20
2.14111
 11
149
 21
4
  0
LINE
  8
0
 10
149
 20
4
 11
149
 21
71
  0
LINE
  8
0
 10
149
 20
71
 11
148.542
 21
72.8589
  0
LINE
  8
0
 10
148.542
 20
72.8589
 11
147.272
 21
74.2919
  0
LINE
  8
0
 10
147.272
 20
74.2919
 11
145.482
 21
74.9708
  0
LINE
  8
0
 10
145.482
 20
74.9708
 11
81.4821
 21
74.9708
  0
LINE
  8
0
 10
81.4821
 20
74.9708
 11
79.5816
 21
74.7401
  0
LINE
  8
0
 10
79.5816
 20
74.7401
 11
78.006
 21
73.6525
  0
LINE
  8
0
 10
78.006
 20
73.6525
 11
77.1162
 21
71.9573
  0
LINE
  8
0
 10
77.1162
 20
71.9573
 11
77.1162
 21
3.04274
  0
LINE
  8
0
 10
77.1162
 20
3.04274
 11
78.006
 21
1.34752
  0
LINE
  8
0
 10
78.006
 20
1.34752
 11
79.5816
 21
0.259949
  0
LINE
  8
0
 10
79.5816
 20
0.259949
 11
81.4821
 21
0.0291748
  0
LINE
  8
0
 10
81.4821
 20
0.0291748
 11
145.482
 21
0.0291748
  0
LINE
  8
0
 10
145.482
 20
0.0291748
 11
147.272
 21
0.708069
  0
LINE
  8
0
 10
79.1981
 20
70.1322
 11
79.1981
 21
71.8678
  0
LINE
  8
0
 10
79.1981
 20
71.8678
 11
80.5549
 21
72.9498
  0
LINE
  8
0
 10
80.5549
 20
72.9498
 11
82.247
 21
72.5637
  0
LINE
  8
0
 10
82.247
 20
72.5637
 11
83
 21
71
  0
LINE
  8
0
 10
83
 20
71
 11
82.247
 21
69.4363
  0
LINE
  8
0
 10
82.247
 20
69.4363
 11
80.5549
 21
69.0501
  0
LINE
  8
0
 10
80.5549
 20
69.0501
 11
79.1981
 21
70.1322
  0
LINE
  8
0
 10
143.198
 20
70.1322
 11
143.198
 21
71.8678
  0
LINE
  8
0
 10
143.198
 20
71.8678
 11
144.555
 21
72.9498
  0
LINE
  8
0
 10
144.555
 20
72.9498
 11
146.247
 21
72.5637
  0
LINE
  8
0
 10
146.247
 20
72.5637
 11
147
 21
71
  0
LINE
  8
0
 10
147
 20
71
 11
146.247
 21
69.4363
  0
LINE
  8
0
 10
146.247
 20
69.4363
 11
144.555
 21
69.0501
  0
LINE
  8
0
 10
144.555
 20
69.0501
 11
143.198
 21
70.1322
  0
LINE
  8
0
 10
83
 20
6
 11
83
 21
69
  0
LINE
  8
0
 10
83
 20
69
 11
143
 21
69
  0
LINE
  8
0
 10
143
 20
69
 11
143
 21
6
  0
LINE
  8
0
 10
143
 20
6
 11
83
 21
6
  0
LINE
  8
0
 10
79.1981
 20
3.13222
 11
79.1981
 21
4.86777
  0
LINE
  8
0
 10
79.1981
 20
4.86777
 11
80.5549
 21
5.94984
  0
LINE
  8
0
 10
80.5549
 20
5.94984
 11
82.247
 21
5.56366
  0
LINE
  8
0
 10
82.247
 20
5.56366
 11
83
 21
4
  0
LINE
  8
0
 10
83
 20
4
 11
82.247
 21
2.43633
  0
LINE
  8
0
 10
82.247
 20
2.43633
 11
80.5549
 21
2.05014
  0
LINE
  8
0
 10
80.5549
 20
2.05014
 11
79.1981
 21
3.13222
  0
LINE
  8
0
 10
143.198
 20
3.13222
 11
143.198
 21
4.86777
  0
LINE
  8
0
 10
143.198
 20
4.86777
 11
144.555
 21
5.94984
  0
LINE
  8
0
 10
144.555
 20
5.94984
 11
146.247
 21
5.56366
  0
LINE
  8
0
 10
146.247
 20
5.56366
 11
147
 21
4
  0
LINE
  8
0
 10
147
 20
4
 11
146.247
 21
2.43633
  0
LINE
  8
0
 10
146.247
 20
2.43633
 11
144.555
 21
2.05014
  0
LINE
  8
0
 10
144.555
 20
2.05014
 11
143.198
 21
3.13222
  0
ENDSEC
  0
SECTION
  2
OBJECTS
  0
DICTIONARY
  0
ENDSEC
  0
EOF
